{
.appVersion = "3145";
.formatVersion = 3;
DisplayStrings = (
"hḫĥḥһ
/h.bolder/hbrevebelow.bolder/hcircumflex.bolder/hdotbelow.bolder/shha-cy.bolder 
mṃ/te-cy.loclBGR 
/m.bolder/mdotbelow.bolder/te-cy.loclBGR.bolder 
nńŉňņṅṇǌṉñ/nacute.loclPLK/pe-cy.loclBGR 
/n.bolder/nacute.bolder/napostrophe.bolder/ncaron.bolder/ncommaaccent.bolder/ndotaccent.bolder/ndotbelow.bolder/nj.bolder/ntilde.bolder/nacute.loclPLK.bolder/pe-cy.loclBGR.bolder",
"ṉ/nmacronbelow.bolder",
"Һ/Shha-cy.bolder jЦԦjhhhһԧ/shhadescender-cy.bolder"
);
axes = (
{
name = Weight;
tag = wght;
}
);
classes = (
{
automatic = 1;

glyphs = (
{
glyphname = A;
kernLeft = A;
kernRight = A;
layers = (
{
anchors = (
{
name = bottom;
pos = (354,0);
},
{
name = ogonek;
pos = (618,0);
},
{
name = top;
pos = (359,692);
}
);
background = {
anchors = (
{
name = bottom;
pos = (354,0);
},
{
name = ogonek;
pos = (618,0);
},
{
name = top;
pos = (359,692);
}
);
shapes = (
{
closed = 1;
nodes = (
(368,693,l),
(349,691,l),
(97,22,l),
(105,29,l),
(6,15,l),
(6,0,l),
(235,0,l),
(235,15,l),
(113,29,l),
(118,22,l),
(189,213,l),
(179,206,l),
(525,206,l),
(517,211,l),
(583,22,l),
(587,29,l),
(464,15,l),
(464,0,l),
(698,0,l),
(698,15,l),
(596,29,l),
(605,22,l)
);
},
{
closed = 1;
nodes = (
(360,672,l),
(356,672,l),
(514,220,l),
(518,225,l),
(185,225,l),
(191,219,l)
);
}
);
};
layerId = "075BA79B-D813-4287-A9DD-CCAF2D535ED3";
shapes = (
{
closed = 1;
nodes = (
(368,693,l),
(349,691,l),
(97,22,l),
(105,29,l),
(6,15,l),
(6,0,l),
(235,0,l),
(235,15,l),
(113,29,l),
(118,22,l),
(189,213,l),
(179,206,l),
(525,206,l),
(517,211,l),
(583,22,l),
(587,29,l),
(464,15,l),
(464,0,l),
(698,0,l),
(698,15,l),
(596,29,l),
(605,22,l)
);
},
{
closed = 1;
nodes = (
(360,672,l),
(356,672,l),
(514,220,l),
(518,225,l),
(185,225,l),
(191,219,l)
);
}
);
width = 704;
},
{
anchors = (
{
name = bottom;
pos = (341,0);
},
{
name = ogonek;
pos = (716,0);
},
{
name = top;
pos = (365,710);
}
);
background = {
anchors = (
{
name = bottom;
pos = (341,0);
},
{
name = ogonek;
pos = (716,0);
},
{
name = top;
pos = (365,710);
}
);
shapes = (
{
closed = 1;
nodes = (
(471,713,l),
(260,708,l),
(32,94,l),
(77,133,l),
(1,100,l),
(1,0,l),
(279,0,l),
(279,100,l),
(219,127,l),
(223,108,l),
(252,202,l),
(231,180,l),
(455,180,l),
(426,205,l),
(453,104,l),
(471,131,l),
(403,100,l),
(403,0,l),
(716,0,l),
(716,100,l),
(638,135,l),
(689,89,l)
);
},
{
closed = 1;
nodes = (
(375,604,l),
(327,605,l),
(404,289,l),
(423,320,l),
(268,320,l),
(280,294,l)
);
}
);
};
layerId = "927AED37-E9E6-4F96-A08E-421C3785EFC6";
shapes = (
{
closed = 1;
nodes = (
(471,713,l),
(260,708,l),
(32,94,l),
(77,133,l),
(1,100,l),
(1,0,l),
(279,0,l),
(279,100,l),
(219,127,l),
(223,108,l),
(252,202,l),
(231,180,l),
(455,180,l),
(426,205,l),
(453,104,l),
(471,131,l),
(403,100,l),
(403,0,l),
(716,0,l),
(716,100,l),
(638,135,l),
(689,89,l)
);
},
{
closed = 1;
nodes = (
(375,604,l),
(327,605,l),
(404,289,l),
(423,320,l),
(268,320,l),
(280,294,l)
);
}
);
width = 718;
}
);
unicode = 65;
},
{
glyphname = AE;
kernLeft = A;
kernRight = E;
layers = (
{
anchors = (
{
name = bottom;
pos = (470,0);
},
{
name = top;
pos = (589,692);
}
);
background = {
anchors = (
{
name = bottom;
pos = (470,0);
},
{
name = top;
pos = (589,692);
}
);
shapes = (
{
closed = 1;
nodes = (
(229,0,l),
(229,15,l),
(108,29,l),
(112,22,l),
(226,232,l),
(216,226,l),
(488,226,l),
(481,233,l),
(481,21,l),
(488,29,l),
(381,15,l),
(381,0,l),
(865,0,l),
(865,141,l),
(850,141,l),
(835,12,l),
(843,19,l),
(494,19,l),
(501,12,l),
(501,366,l),
(494,359,l),
(784,359,l),
(784,378,l),
(494,378,l),
(501,371,l),
(501,680,l),
(494,673,l),
(830,673,l),
(822,680,l),
(837,556,l),
(852,556,l),
(852,692,l),
(502,692,l),
(348,687,l),
(348,672,l),
(447,664,l),
(443,671,l),
(90,22,l),
(100,29,l),
(0,15,l),
(0,0,l)
);
},
{
closed = 1;
nodes = (
(469,679,l),
(459,673,l),
(488,673,l),
(481,680,l),
(481,238,l),
(488,245,l),
(226,245,l),
(230,239,l)
);
}
);
};
layerId = "075BA79B-D813-4287-A9DD-CCAF2D535ED3";
shapes = (
{
closed = 1;
nodes = (
(229,0,l),
(229,15,l),
(108,29,l),
(112,22,l),
(226,232,l),
(216,226,l),
(488,226,l),
(481,233,l),
(481,21,l),
(488,29,l),
(381,15,l),
(381,0,l),
(865,0,l),
(865,141,l),
(850,141,l),
(835,12,l),
(843,19,l),
(494,19,l),
(501,12,l),
(501,366,l),
(494,359,l),
(784,359,l),
(784,378,l),
(494,378,l),
(501,371,l),
(501,680,l),
(494,673,l),
(830,673,l),
(822,680,l),
(837,556,l),
(852,556,l),
(852,692,l),
(502,692,l),
(348,687,l),
(348,672,l),
(447,664,l),
(443,671,l),
(90,22,l),
(100,29,l),
(0,15,l),
(0,0,l)
);
},
{
closed = 1;
nodes = (
(469,679,l),
(459,673,l),
(488,673,l),
(481,680,l),
(481,238,l),
(488,245,l),
(226,245,l),
(230,239,l)
);
}
);
width = 949;
},
{
anchors = (
{
name = bottom;
pos = (474,0);
},
{
name = top;
pos = (534,710);
}
);
background = {
anchors = (
{
name = bottom;
pos = (474,0);
},
{
name = top;
pos = (534,710);
}
);
shapes = (
{
closed = 1;
nodes = (
(280,0,l),
(280,100,l),
(209,133,l),
(219,91,l),
(272,221,l),
(231,190,l),
(461,190,l),
(431,221,l),
(431,104,l),
(455,136,l),
(381,100,l),
(381,0,l),
(904,0,l),
(906,211,l),
(786,211,l),
(760,111,l),
(795,145,l),
(606,145,l),
(636,114,l),
(636,325,l),
(606,290,l),
(810,290,l),
(810,430,l),
(606,430,l),
(636,400,l),
(636,595,l),
(606,565,l),
(783,565,l),
(748,601,l),
(773,508,l),
(893,508,l),
(893,710,l),
(432,710,l),
(169,705,l),
(169,605,l),
(267,568,l),
(246,598,l),
(29,92,l),
(81,133,l),
(1,100,l),
(1,0,l)
);
},
{
closed = 1;
nodes = (
(418,583,l),
(381,565,l),
(461,565,l),
(431,584,l),
(431,305,l),
(461,330,l),
(284,330,l),
(306,305,l)
);
}
);
};
layerId = "927AED37-E9E6-4F96-A08E-421C3785EFC6";
shapes = (
{
closed = 1;
nodes = (
(280,0,l),
(280,100,l),
(209,133,l),
(219,91,l),
(272,221,l),
(231,190,l),
(461,190,l),
(431,221,l),
(431,104,l),
(455,136,l),
(381,100,l),
(381,0,l),
(904,0,l),
(906,211,l),
(786,211,l),
(760,111,l),
(795,145,l),
(606,145,l),
(636,114,l),
(636,325,l),
(606,290,l),
(810,290,l),
(810,430,l),
(606,430,l),
(636,400,l),
(636,595,l),
(606,565,l),
(783,565,l),
(748,601,l),
(773,508,l),
(893,508,l),
(893,710,l),
(432,710,l),
(169,705,l),
(169,605,l),
(267,568,l),
(246,598,l),
(29,92,l),
(81,133,l),
(1,100,l),
(1,0,l)
);
},
{
closed = 1;
nodes = (
(418,583,l),
(381,565,l),
(461,565,l),
(431,584,l),
(431,305,l),
(461,330,l),
(284,330,l),
(306,305,l)
);
}
);
width = 939;
}
);
metricRight = E;
unicode = 198;
},
{
glyphname = B;
kernLeft = H;
kernRight = B;
layers = (
{
anchors = (
{
name = bottom;
pos = (312,0);
},
{
name = top;
pos = (312,692);
}
);
background = {
anchors = (
{
name = bottom;
pos = (312,0);
},
{
name = top;
pos = (312,692);
}
);
shapes = (
{
closed = 1;
nodes = (
(487,377,o),
(530,442,o),
(530,525,cs),
(530,622,o),
(469,692,o),
(326,692,cs),
(182,692,l),
(61,687,l),
(61,672,l),
(168,662,l),
(161,670,l),
(161,21,l),
(168,29,l),
(61,15,l),
(61,0,l),
(320,0,ls),
(494,0,o),
(557,83,o),
(557,183,cs),
(557,276,o),
(500,354,o),
(368,358,c),
(365,354,l)
);
},
{
closed = 1;
nodes = (
(452,673,o),
(508,612,o),
(508,523,cs),
(508,432,o),
(449,364,o),
(293,364,cs),
(174,364,l),
(181,357,l),
(181,680,l),
(174,673,l),
(321,673,ls)
);
},
{
closed = 1;
nodes = (
(174,19,l),
(181,12,l),
(181,352,l),
(174,345,l),
(348,345,ls),
(479,345,o),
(535,271,o),
(535,181,cs),
(535,91,o),
(478,19,o),
(320,19,cs)
);
}
);
};
guides = (
{
angle = 90;
pos = (520,425);
}
);
layerId = "075BA79B-D813-4287-A9DD-CCAF2D535ED3";
shapes = (
{
closed = 1;
nodes = (
(487,377,o),
(530,442,o),
(530,525,cs),
(530,622,o),
(469,692,o),
(326,692,cs),
(182,692,l),
(61,687,l),
(61,672,l),
(168,662,l),
(161,670,l),
(161,21,l),
(168,29,l),
(61,15,l),
(61,0,l),
(320,0,ls),
(494,0,o),
(557,83,o),
(557,183,cs),
(557,276,o),
(500,354,o),
(368,358,c),
(365,354,l)
);
},
{
closed = 1;
nodes = (
(452,673,o),
(508,612,o),
(508,523,cs),
(508,432,o),
(449,364,o),
(293,364,cs),
(174,364,l),
(181,357,l),
(181,680,l),
(174,673,l),
(321,673,ls)
);
},
{
closed = 1;
nodes = (
(174,19,l),
(181,12,l),
(181,352,l),
(174,345,l),
(348,345,ls),
(479,345,o),
(535,271,o),
(535,181,cs),
(535,91,o),
(478,19,o),
(320,19,cs)
);
}
);
width = 644;
},
{
anchors = (
{
name = bottom;
pos = (328,0);
},
{
name = top;
pos = (328,710);
}
);
background = {
anchors = (
{
name = bottom;
pos = (328,0);
},
{
name = top;
pos = (328,710);
}
);
shapes = (
{
closed = 1;
nodes = (
(521,355,o),
(603,409,o),
(603,532,cs),
(603,664,o),
(507,710,o),
(362,710,cs),
(279,710,l),
(24,705,l),
(24,605,l),
(116,569,l),
(84,610,l),
(84,95,l),
(109,134,l),
(24,100,l),
(24,0,l),
(342,0,ls),
(522,0,o),
(629,66,o),
(629,202,cs),
(629,337,o),
(525,367,o),
(381,367,c),
(369,348,l)
);
},
{
closed = 1;
nodes = (
(353,568,o),
(398,568,o),
(398,503,cs),
(398,430,o),
(340,430,o),
(303,430,cs),
(259,430,l),
(289,403,l),
(289,598,l),
(259,568,l),
(322,568,ls)
);
},
{
closed = 1;
nodes = (
(259,143,l),
(289,113,l),
(289,324,l),
(259,290,l),
(347,290,ls),
(369,290,o),
(421,290,o),
(421,219,cs),
(421,143,o),
(361,143,o),
(323,143,cs)
);
}
);
};
guides = (
{
angle = 90;
pos = (603,435);
}
);
layerId = "927AED37-E9E6-4F96-A08E-421C3785EFC6";
shapes = (
{
closed = 1;
nodes = (
(521,355,o),
(603,409,o),
(603,532,cs),
(603,664,o),
(507,710,o),
(362,710,cs),
(279,710,l),
(24,705,l),
(24,605,l),
(116,569,l),
(84,610,l),
(84,95,l),
(109,134,l),
(24,100,l),
(24,0,l),
(342,0,ls),
(522,0,o),
(629,66,o),
(629,202,cs),
(629,337,o),
(525,367,o),
(381,367,c),
(369,348,l)
);
},
{
closed = 1;
nodes = (
(353,568,o),
(398,568,o),
(398,503,cs),
(398,430,o),
(340,430,o),
(303,430,cs),
(259,430,l),
(289,403,l),
(289,598,l),
(259,568,l),
(322,568,ls)
);
},
{
closed = 1;
nodes = (
(259,143,l),
(289,113,l),
(289,324,l),
(259,290,l),
(347,290,ls),
(369,290,o),
(421,290,o),
(421,219,cs),
(421,143,o),
(361,143,o),
(323,143,cs)
);
}
);
width = 648;
}
);
unicode = 66;
},
{
glyphname = C;
kernLeft = O;
kernRight = C;
layers = (
{
anchors = (
{
name = bottom;
pos = (361,0);
},
{
name = top;
pos = (361,692);
}
);
background = {
anchors = (
{
name = bottom;
pos = (361,0);
},
{
name = top;
pos = (361,692);
}
);
shapes = (
{
closed = 1;
nodes = (
(437,-6,o),
(523,26,o),
(596,93,c),
(583,109,l),
(515,45,o),
(436,15,o),
(365,15,cs),
(218,15,o),
(102,138,o),
(102,347,cs),
(102,551,o),
(215,678,o),
(377,678,cs),
(431,678,o),
(500,664,o),
(562,637,c),
(557,646,l),
(568,516,l),
(582,516,l),
(587,650,l),
(513,683,o),
(441,698,o),
(380,698,cs),
(203,698,o),
(80,566,o),
(80,343,cs),
(80,122,o),
(202,-6,o),
(359,-6,cs)
);
}
);
};
layerId = "075BA79B-D813-4287-A9DD-CCAF2D535ED3";
shapes = (
{
closed = 1;
nodes = (
(437,-6,o),
(523,26,o),
(596,93,c),
(583,109,l),
(515,45,o),
(436,15,o),
(365,15,cs),
(218,15,o),
(102,138,o),
(102,347,cs),
(102,551,o),
(215,678,o),
(377,678,cs),
(431,678,o),
(500,664,o),
(562,637,c),
(557,646,l),
(568,516,l),
(582,516,l),
(587,650,l),
(513,683,o),
(441,698,o),
(380,698,cs),
(203,698,o),
(80,566,o),
(80,343,cs),
(80,122,o),
(202,-6,o),
(359,-6,cs)
);
}
);
width = 659;
},
{
anchors = (
{
name = bottom;
pos = (335,0);
},
{
name = top;
pos = (342,710);
}
);
background = {
anchors = (
{
name = bottom;
pos = (335,0);
},
{
name = top;
pos = (342,710);
}
);
shapes = (
{
closed = 1;
nodes = (
(420,-15,o),
(514,18,o),
(602,86,c),
(529,202,l),
(476,166,o),
(426,148,o),
(383,148,cs),
(298,148,o),
(242,216,o),
(242,375,cs),
(242,499,o),
(276,570,o),
(366,570,cs),
(394,570,o),
(424,563,o),
(463,549,c),
(429,579,l),
(460,468,l),
(580,468,l),
(591,671,l),
(503,707,o),
(431,725,o),
(357,725,cs),
(151,725,o),
(22,585,o),
(22,351,cs),
(22,107,o),
(163,-15,o),
(332,-15,cs)
);
}
);
};
layerId = "927AED37-E9E6-4F96-A08E-421C3785EFC6";
shapes = (
{
closed = 1;
nodes = (
(420,-15,o),
(514,18,o),
(602,86,c),
(529,202,l),
(476,166,o),
(426,148,o),
(383,148,cs),
(298,148,o),
(242,216,o),
(242,375,cs),
(242,499,o),
(276,570,o),
(366,570,cs),
(394,570,o),
(424,563,o),
(463,549,c),
(429,579,l),
(460,468,l),
(580,468,l),
(591,671,l),
(503,707,o),
(431,725,o),
(357,725,cs),
(151,725,o),
(22,585,o),
(22,351,cs),
(22,107,o),
(163,-15,o),
(332,-15,cs)
);
}
);
width = 619;
}
);
unicode = 67;
},
{
glyphname = D;
kernLeft = H;
kernRight = O;
layers = (
{
anchors = (
{
name = bottom;
pos = (358,0);
},
{
name = center;
pos = (221,355);
},
{
name = top;
pos = (337,692);
}
);
background = {
anchors = (
{
name = bottom;
pos = (358,0);
},
{
name = center;
pos = (221,355);
},
{
name = top;
pos = (337,692);
}
);
shapes = (
{
closed = 1;
nodes = (
(211,692,l),
(61,687,l),
(61,672,l),
(168,662,l),
(161,670,l),
(161,21,l),
(168,29,l),
(61,15,l),
(61,0,l),
(332,0,ls),
(503,0,o),
(646,120,o),
(646,355,cs),
(646,591,o),
(501,692,o),
(344,692,cs)
);
},
{
closed = 1;
nodes = (
(174,19,l),
(181,12,l),
(181,680,l),
(174,673,l),
(343,673,ls),
(494,673,o),
(624,570,o),
(624,351,cs),
(624,126,o),
(487,19,o),
(332,19,cs)
);
}
);
};
layerId = "075BA79B-D813-4287-A9DD-CCAF2D535ED3";
shapes = (
{
closed = 1;
nodes = (
(211,692,l),
(61,687,l),
(61,672,l),
(168,662,l),
(161,670,l),
(161,21,l),
(168,29,l),
(61,15,l),
(61,0,l),
(332,0,ls),
(503,0,o),
(646,120,o),
(646,355,cs),
(646,591,o),
(501,692,o),
(344,692,cs)
);
},
{
closed = 1;
nodes = (
(174,19,l),
(181,12,l),
(181,680,l),
(174,673,l),
(343,673,ls),
(494,673,o),
(624,570,o),
(624,351,cs),
(624,126,o),
(487,19,o),
(332,19,cs)
);
}
);
width = 724;
},
{
anchors = (
{
name = bottom;
pos = (329,0);
},
{
name = center;
pos = (204,360);
},
{
name = top;
pos = (309,710);
}
);
background = {
anchors = (
{
name = bottom;
pos = (329,0);
},
{
name = center;
pos = (204,360);
},
{
name = top;
pos = (309,710);
}
);
shapes = (
{
closed = 1;
nodes = (
(289,710,l),
(24,705,l),
(24,605,l),
(112,570,l),
(84,610,l),
(84,95,l),
(110,134,l),
(24,100,l),
(24,0,l),
(329,0,ls),
(555,0,o),
(685,130,o),
(685,369,cs),
(685,590,o),
(570,710,o),
(354,710,cs)
);
},
{
closed = 1;
nodes = (
(259,145,l),
(289,115,l),
(289,595,l),
(259,565,l),
(349,565,ls),
(395,565,o),
(465,565,o),
(465,358,cs),
(465,145,o),
(391,145,o),
(339,145,cs)
);
}
);
};
guides = (
{
angle = 90;
pos = (726,291);
}
);
layerId = "927AED37-E9E6-4F96-A08E-421C3785EFC6";
shapes = (
{
closed = 1;
nodes = (
(289,710,l),
(24,705,l),
(24,605,l),
(112,570,l),
(84,610,l),
(84,95,l),
(110,134,l),
(24,100,l),
(24,0,l),
(329,0,ls),
(555,0,o),
(685,130,o),
(685,369,cs),
(685,590,o),
(570,710,o),
(354,710,cs)
);
},
{
closed = 1;
nodes = (
(259,145,l),
(289,115,l),
(289,595,l),
(259,565,l),
(349,565,ls),
(395,565,o),
(465,565,o),
(465,358,cs),
(465,145,o),
(391,145,o),
(339,145,cs)
);
}
);
width = 706;
}
);
unicode = 68;
},
{
glyphname = Eth;
kernLeft = H;
kernRight = O;
layers = (
{
anchors = (
{
name = bottom;
pos = (358,0);
},
{
name = center;
pos = (221,355);
},
{
name = top;
pos = (337,692);
}
);
background = {
anchors = (
{
name = bottom;
pos = (358,0);
},
{
name = center;
pos = (221,355);
},
{
name = top;
pos = (337,692);
}
);
shapes = (
{
closed = 1;
nodes = (
(211,692,l),
(61,687,l),
(61,672,l),
(168,662,l),
(161,670,l),
(161,21,l),
(168,29,l),
(61,15,l),
(61,0,l),
(332,0,ls),
(503,0,o),
(646,120,o),
(646,355,cs),
(646,591,o),
(501,692,o),
(344,692,cs)
);
},
{
closed = 1;
nodes = (
(174,19,l),
(181,12,l),
(181,680,l),
(174,673,l),
(343,673,ls),
(494,673,o),
(624,570,o),
(624,351,cs),
(624,126,o),
(487,19,o),
(332,19,cs)
);
},
{
closed = 1;
nodes = (
(386,345,l),
(386,364,l),
(66,364,l),
(66,345,l)
);
}
);
};
guides = (
{
angle = 90.9681;
pos = (68,249);
}
);
layerId = "075BA79B-D813-4287-A9DD-CCAF2D535ED3";
shapes = (
{
closed = 1;
nodes = (
(211,692,l),
(61,687,l),
(61,672,l),
(168,662,l),
(161,670,l),
(161,21,l),
(168,29,l),
(61,15,l),
(61,0,l),
(332,0,ls),
(503,0,o),
(646,120,o),
(646,355,cs),
(646,591,o),
(501,692,o),
(344,692,cs)
);
},
{
closed = 1;
nodes = (
(174,19,l),
(181,12,l),
(181,680,l),
(174,673,l),
(343,673,ls),
(494,673,o),
(624,570,o),
(624,351,cs),
(624,126,o),
(487,19,o),
(332,19,cs)
);
},
{
closed = 1;
nodes = (
(386,345,l),
(386,364,l),
(66,364,l),
(66,345,l)
);
}
);
width = 724;
},
{
anchors = (
{
name = bottom;
pos = (329,0);
},
{
name = center;
pos = (204,360);
},
{
name = top;
pos = (309,710);
}
);
background = {
anchors = (
{
name = bottom;
pos = (329,0);
},
{
name = center;
pos = (204,360);
},
{
name = top;
pos = (309,710);
}
);
shapes = (
{
closed = 1;
nodes = (
(289,710,l),
(24,705,l),
(24,605,l),
(112,570,l),
(84,610,l),
(84,95,l),
(110,134,l),
(24,100,l),
(24,0,l),
(329,0,ls),
(555,0,o),
(685,130,o),
(685,369,cs),
(685,590,o),
(570,710,o),
(354,710,cs)
);
},
{
closed = 1;
nodes = (
(259,145,l),
(289,115,l),
(289,595,l),
(259,565,l),
(349,565,ls),
(395,565,o),
(465,565,o),
(465,358,cs),
(465,145,o),
(391,145,o),
(339,145,cs)
);
},
{
closed = 1;
nodes = (
(383.455,293.6,l),
(383.455,425.6,l),
(24.455,425.6,l),
(24.455,293.6,l)
);
}
);
};
guides = (
{
angle = 90;
pos = (24,241);
}
);
layerId = "927AED37-E9E6-4F96-A08E-421C3785EFC6";
shapes = (
{
closed = 1;
nodes = (
(289,710,l),
(24,705,l),
(24,605,l),
(112,570,l),
(84,610,l),
(84,95,l),
(110,134,l),
(24,100,l),
(24,0,l),
(329,0,ls),
(555,0,o),
(685,130,o),
(685,369,cs),
(685,590,o),
(570,710,o),
(354,710,cs)
);
},
{
closed = 1;
nodes = (
(259,145,l),
(289,115,l),
(289,595,l),
(259,565,l),
(349,565,ls),
(395,565,o),
(465,565,o),
(465,358,cs),
(465,145,o),
(391,145,o),
(339,145,cs)
);
},
{
closed = 1;
nodes = (
(383.455,293.6,l),
(383.455,425.6,l),
(24.455,425.6,l),
(24.455,293.6,l)
);
}
);
width = 706;
}
);
metricRight = D;
unicode = 208;
},
{
glyphname = E;
kernLeft = H;
kernRight = E;
layers = (
{
anchors = (
{
name = bottom;
pos = (320,0);
},
{
name = ogonek;
pos = (550,0);
},
{
name = top;
pos = (329,692);
},
{
name = topleft;
pos = (31,692);
}
);
background = {
anchors = (
{
name = bottom;
pos = (320,0);
},
{
name = ogonek;
pos = (550,0);
},
{
name = top;
pos = (329,692);
},
{
name = topleft;
pos = (31,692);
}
);
shapes = (
{
closed = 1;
nodes = (
(520,12,l),
(528,19,l),
(174,19,l),
(181,12,l),
(181,353,l),
(174,346,l),
(469,346,l),
(469,365,l),
(174,365,l),
(181,358,l),
(181,680,l),
(174,673,l),
(515,673,l),
(507,680,l),
(522,556,l),
(537,556,l),
(537,692,l),
(182,692,l),
(61,687,l),
(61,672,l),
(168,662,l),
(161,670,l),
(161,21,l),
(168,29,l),
(61,15,l),
(61,0,l),
(550,0,l),
(550,141,l),
(535,141,l)
);
}
);
};
guides = (
{
angle = 90;
pos = (1198,116);
}
);
layerId = "075BA79B-D813-4287-A9DD-CCAF2D535ED3";
shapes = (
{
closed = 1;
nodes = (
(520,12,l),
(528,19,l),
(174,19,l),
(181,12,l),
(181,353,l),
(174,346,l),
(469,346,l),
(469,365,l),
(174,365,l),
(181,358,l),
(181,680,l),
(174,673,l),
(515,673,l),
(507,680,l),
(522,556,l),
(537,556,l),
(537,692,l),
(182,692,l),
(61,687,l),
(61,672,l),
(168,662,l),
(161,670,l),
(161,21,l),
(168,29,l),
(61,15,l),
(61,0,l),
(550,0,l),
(550,141,l),
(535,141,l)
);
}
);
width = 634;
},
{
anchors = (
{
name = bottom;
pos = (310,0);
},
{
name = ogonek;
pos = (561,0);
},
{
name = top;
pos = (304,710);
},
{
name = topleft;
pos = (9,710);
}
);
background = {
anchors = (
{
name = bottom;
pos = (310,0);
},
{
name = ogonek;
pos = (561,0);
},
{
name = top;
pos = (304,710);
},
{
name = topleft;
pos = (9,710);
}
);
shapes = (
{
closed = 1;
nodes = (
(419,115,l),
(456,145,l),
(259,145,l),
(289,115,l),
(289,325,l),
(259,290,l),
(468,290,l),
(468,430,l),
(259,430,l),
(289,400,l),
(289,595,l),
(259,565,l),
(444,565,l),
(408,591,l),
(431,508,l),
(551,508,l),
(551,710,l),
(284,710,l),
(24,705,l),
(24,605,l),
(108,572,l),
(84,610,l),
(84,95,l),
(109,134,l),
(24,100,l),
(24,0,l),
(561,0,l),
(563,211,l),
(443,211,l)
);
}
);
};
layerId = "927AED37-E9E6-4F96-A08E-421C3785EFC6";
shapes = (
{
closed = 1;
nodes = (
(419,115,l),
(456,145,l),
(259,145,l),
(289,115,l),
(289,325,l),
(259,290,l),
(468,290,l),
(468,430,l),
(259,430,l),
(289,400,l),
(289,595,l),
(259,565,l),
(444,565,l),
(408,591,l),
(431,508,l),
(551,508,l),
(551,710,l),
(284,710,l),
(24,705,l),
(24,605,l),
(108,572,l),
(84,610,l),
(84,95,l),
(109,134,l),
(24,100,l),
(24,0,l),
(561,0,l),
(563,211,l),
(443,211,l)
);
}
);
width = 596;
}
);
unicode = 69;
},
{
glyphname = F;
kernLeft = H;
kernRight = F;
layers = (
{
anchors = (
{
name = bottom;
pos = (171,0);
},
{
name = top;
pos = (329,692);
}
);
background = {
anchors = (
{
name = bottom;
pos = (171,0);
},
{
name = top;
pos = (329,692);
}
);
shapes = (
{
closed = 1;
nodes = (
(305,0,l),
(305,15,l),
(174,29,l),
(181,21,l),
(181,341,l),
(174,334,l),
(454,334,l),
(454,353,l),
(174,353,l),
(181,346,l),
(181,680,l),
(174,673,l),
(504,673,l),
(496,680,l),
(511,556,l),
(526,556,l),
(526,692,l),
(182,692,l),
(61,687,l),
(61,672,l),
(168,662,l),
(161,670,l),
(161,21,l),
(168,29,l),
(61,15,l),
(61,0,l)
);
}
);
};
layerId = "075BA79B-D813-4287-A9DD-CCAF2D535ED3";
shapes = (
{
closed = 1;
nodes = (
(305,0,l),
(305,15,l),
(174,29,l),
(181,21,l),
(181,341,l),
(174,334,l),
(454,334,l),
(454,353,l),
(174,353,l),
(181,346,l),
(181,680,l),
(174,673,l),
(504,673,l),
(496,680,l),
(511,556,l),
(526,556,l),
(526,692,l),
(182,692,l),
(61,687,l),
(61,672,l),
(168,662,l),
(161,670,l),
(161,21,l),
(168,29,l),
(61,15,l),
(61,0,l)
);
}
);
width = 566;
},
{
anchors = (
{
name = bottom;
pos = (188,0);
},
{
name = top;
pos = (301,710);
}
);
background = {
anchors = (
{
name = bottom;
pos = (188,0);
},
{
name = top;
pos = (301,710);
}
);
shapes = (
{
closed = 1;
nodes = (
(364,0,l),
(364,100,l),
(266,132,l),
(289,105,l),
(289,315,l),
(259,285,l),
(469,285,l),
(469,430,l),
(259,430,l),
(289,403,l),
(289,595,l),
(259,565,l),
(442,565,l),
(407,584,l),
(429,505,l),
(549,505,l),
(548,710,l),
(284,710,l),
(24,705,l),
(24,605,l),
(111,571,l),
(84,610,l),
(84,105,l),
(103,132,l),
(24,100,l),
(24,0,l)
);
}
);
};
layerId = "927AED37-E9E6-4F96-A08E-421C3785EFC6";
shapes = (
{
closed = 1;
nodes = (
(364,0,l),
(364,100,l),
(266,132,l),
(289,105,l),
(289,315,l),
(259,285,l),
(469,285,l),
(469,430,l),
(259,430,l),
(289,403,l),
(289,595,l),
(259,565,l),
(442,565,l),
(407,584,l),
(429,505,l),
(549,505,l),
(548,710,l),
(284,710,l),
(24,705,l),
(24,605,l),
(111,571,l),
(84,610,l),
(84,105,l),
(103,132,l),
(24,100,l),
(24,0,l)
);
}
);
width = 560;
}
);
unicode = 70;
},
{
glyphname = G;
kernLeft = O;
kernRight = G;
layers = (
{
anchors = (
{
name = bottom;
pos = (392,0);
},
{
name = top;
pos = (390,692);
}
);
background = {
anchors = (
{
name = bottom;
pos = (392,0);
},
{
name = top;
pos = (390,692);
}
);
shapes = (
{
closed = 1;
nodes = (
(461,-5,o),
(537,11,o),
(618,45,c),
(618,294,l),
(611,286,l),
(713,300,l),
(713,315,l),
(498,310,l),
(498,295,l),
(605,287,l),
(598,294,l),
(598,51,l),
(603,60,l),
(528,30,o),
(458,15,o),
(393,15,cs),
(214,15,o),
(101,127,o),
(101,337,cs),
(101,546,o),
(214,678,o),
(390,678,cs),
(454,678,o),
(531,661,o),
(595,637,c),
(591,646,l),
(601,516,l),
(616,516,l),
(621,650,l),
(544,683,o),
(466,698,o),
(400,698,cs),
(204,698,o),
(79,566,o),
(79,337,cs),
(79,112,o),
(199,-5,o),
(390,-5,cs)
);
}
);
};
guides = (
{
angle = 90;
pos = (608,433);
}
);
layerId = "075BA79B-D813-4287-A9DD-CCAF2D535ED3";
shapes = (
{
closed = 1;
nodes = (
(461,-5,o),
(537,11,o),
(618,45,c),
(618,294,l),
(611,286,l),
(713,300,l),
(713,315,l),
(498,310,l),
(498,295,l),
(605,287,l),
(598,294,l),
(598,51,l),
(603,60,l),
(528,30,o),
(458,15,o),
(393,15,cs),
(214,15,o),
(101,127,o),
(101,337,cs),
(101,546,o),
(214,678,o),
(390,678,cs),
(454,678,o),
(531,661,o),
(595,637,c),
(591,646,l),
(601,516,l),
(616,516,l),
(621,650,l),
(544,683,o),
(466,698,o),
(400,698,cs),
(204,698,o),
(79,566,o),
(79,337,cs),
(79,112,o),
(199,-5,o),
(390,-5,cs)
);
}
);
width = 759;
},
{
anchors = (
{
name = bottom;
pos = (363,0);
},
{
name = top;
pos = (357,710);
}
);
background = {
anchors = (
{
name = bottom;
pos = (363,0);
},
{
name = top;
pos = (357,710);
}
);
shapes = (
{
closed = 1;
nodes = (
(437,-15,o),
(531,4,o),
(629,44,c),
(629,277,l),
(611,244,l),
(689,272,l),
(689,377,l),
(379,372,l),
(379,268,l),
(470,244,l),
(439,277,l),
(439,114,l),
(462,154,l),
(432,144,o),
(405,140,o),
(383,140,cs),
(285,140,o),
(243,225,o),
(243,357,cs),
(243,506,o),
(296,571,o),
(395,571,cs),
(427,571,o),
(462,564,o),
(501,552,c),
(470,577,l),
(501,468,l),
(621,468,l),
(633,669,l),
(544,706,o),
(456,725,o),
(373,725,cs),
(151,725,o),
(23,587,o),
(23,353,cs),
(23,112,o),
(158,-15,o),
(359,-15,cs)
);
}
);
};
layerId = "927AED37-E9E6-4F96-A08E-421C3785EFC6";
shapes = (
{
closed = 1;
nodes = (
(437,-15,o),
(531,4,o),
(629,44,c),
(629,277,l),
(611,244,l),
(689,272,l),
(689,377,l),
(379,372,l),
(379,268,l),
(470,244,l),
(439,277,l),
(439,114,l),
(462,154,l),
(432,144,o),
(405,140,o),
(383,140,cs),
(285,140,o),
(243,225,o),
(243,357,cs),
(243,506,o),
(296,571,o),
(395,571,cs),
(427,571,o),
(462,564,o),
(501,552,c),
(470,577,l),
(501,468,l),
(621,468,l),
(633,669,l),
(544,706,o),
(456,725,o),
(373,725,cs),
(151,725,o),
(23,587,o),
(23,353,cs),
(23,112,o),
(158,-15,o),
(359,-15,cs)
);
}
);
width = 695;
}
);
metricLeft = O;
unicode = 71;
},
{
glyphname = H;
kernLeft = H;
kernRight = H;
layers = (
{
anchors = (
{
name = bottom;
pos = (403,0);
},
{
name = center;
pos = (403,350);
},
{
name = top;
pos = (403,692);
},
{
name = topleft;
pos = (38,692);
}
);
background = {
anchors = (
{
name = bottom;
pos = (403,0);
},
{
name = center;
pos = (403,350);
},
{
name = top;
pos = (403,692);
},
{
name = topleft;
pos = (38,692);
}
);
shapes = (
{
closed = 1;
nodes = (
(281,0,l),
(281,15,l),
(174,29,l),
(181,21,l),
(181,349,l),
(174,342,l),
(631,342,l),
(624,349,l),
(624,21,l),
(631,29,l),
(524,15,l),
(524,0,l),
(744,0,l),
(744,15,l),
(637,29,l),
(644,21,l),
(644,671,l),
(637,663,l),
(744,677,l),
(744,692,l),
(524,687,l),
(524,672,l),
(631,664,l),
(624,671,l),
(624,354,l),
(631,361,l),
(174,361,l),
(181,354,l),
(181,671,l),
(174,663,l),
(281,677,l),
(281,692,l),
(61,687,l),
(61,672,l),
(168,663,l),
(161,671,l),
(161,21,l),
(168,29,l),
(61,15,l),
(61,0,l)
);
}
);
};
layerId = "075BA79B-D813-4287-A9DD-CCAF2D535ED3";
shapes = (
{
closed = 1;
nodes = (
(281,0,l),
(281,15,l),
(174,29,l),
(181,21,l),
(181,349,l),
(174,342,l),
(631,342,l),
(624,349,l),
(624,21,l),
(631,29,l),
(524,15,l),
(524,0,l),
(744,0,l),
(744,15,l),
(637,29,l),
(644,21,l),
(644,671,l),
(637,663,l),
(744,677,l),
(744,692,l),
(524,687,l),
(524,672,l),
(631,664,l),
(624,671,l),
(624,354,l),
(631,361,l),
(174,361,l),
(181,354,l),
(181,671,l),
(174,663,l),
(281,677,l),
(281,692,l),
(61,687,l),
(61,672,l),
(168,663,l),
(161,671,l),
(161,21,l),
(168,29,l),
(61,15,l),
(61,0,l)
);
}
);
width = 804;
},
{
anchors = (
{
name = bottom;
pos = (387,0);
},
{
name = center;
pos = (387,355);
},
{
name = top;
pos = (387,710);
},
{
name = topleft;
pos = (20,710);
}
);
background = {
anchors = (
{
name = bottom;
pos = (387,0);
},
{
name = center;
pos = (387,355);
},
{
name = top;
pos = (387,710);
},
{
name = topleft;
pos = (20,710);
}
);
shapes = (
{
closed = 1;
nodes = (
(349,0,l),
(349,100,l),
(265,134,l),
(289,95,l),
(289,320,l),
(259,290,l),
(520,290,l),
(490,320,l),
(490,95,l),
(514,134,l),
(430,100,l),
(430,0,l),
(755,0,l),
(755,100,l),
(669,134,l),
(695,95,l),
(695,611,l),
(669,570,l),
(755,610,l),
(755,710,l),
(430,705,l),
(430,605,l),
(520,569,l),
(490,610,l),
(490,405,l),
(520,435,l),
(259,435,l),
(289,405,l),
(289,611,l),
(260,569,l),
(349,610,l),
(349,710,l),
(24,705,l),
(24,605,l),
(116,569,l),
(84,610,l),
(84,95,l),
(109,134,l),
(24,100,l),
(24,0,l)
);
}
);
};
layerId = "927AED37-E9E6-4F96-A08E-421C3785EFC6";
shapes = (
{
closed = 1;
nodes = (
(349,0,l),
(349,100,l),
(265,134,l),
(289,95,l),
(289,320,l),
(259,290,l),
(520,290,l),
(490,320,l),
(490,95,l),
(514,134,l),
(430,100,l),
(430,0,l),
(755,0,l),
(755,100,l),
(669,134,l),
(695,95,l),
(695,611,l),
(669,570,l),
(755,610,l),
(755,710,l),
(430,705,l),
(430,605,l),
(520,569,l),
(490,610,l),
(490,405,l),
(520,435,l),
(259,435,l),
(289,405,l),
(289,611,l),
(260,569,l),
(349,610,l),
(349,710,l),
(24,705,l),
(24,605,l),
(116,569,l),
(84,610,l),
(84,95,l),
(109,134,l),
(24,100,l),
(24,0,l)
);
}
);
width = 779;
}
);
unicode = 72;
},
{
glyphname = Hbar;
kernLeft = H;
kernRight = H;
layers = (
{
background = {
shapes = (
{
closed = 1;
nodes = (
(749,509,l),
(749,528,l),
(66,528,l),
(66,509,l)
);
},
{
closed = 1;
nodes = (
(286,0,l),
(286,15,l),
(179,29,l),
(186,21,l),
(186,349,l),
(179,342,l),
(636,342,l),
(629,349,l),
(629,21,l),
(636,29,l),
(529,15,l),
(529,0,l),
(749,0,l),
(749,15,l),
(642,29,l),
(649,21,l),
(649,671,l),
(642,663,l),
(749,677,l),
(749,692,l),
(529,687,l),
(529,672,l),
(636,664,l),
(629,671,l),
(629,354,l),
(636,361,l),
(179,361,l),
(186,354,l),
(186,671,l),
(179,663,l),
(286,677,l),
(286,692,l),
(66,687,l),
(66,672,l),
(173,663,l),
(166,671,l),
(166,21,l),
(173,29,l),
(66,15,l),
(66,0,l)
);
}
);
};
guides = (
{
angle = 90;
pos = (66,614);
},
{
angle = 90;
pos = (749,614);
}
);
layerId = "075BA79B-D813-4287-A9DD-CCAF2D535ED3";
shapes = (
{
closed = 1;
nodes = (
(749,509,l),
(749,528,l),
(66,528,l),
(66,509,l)
);
},
{
closed = 1;
nodes = (
(286,0,l),
(286,15,l),
(179,29,l),
(186,21,l),
(186,349,l),
(179,342,l),
(636,342,l),
(629,349,l),
(629,21,l),
(636,29,l),
(529,15,l),
(529,0,l),
(749,0,l),
(749,15,l),
(642,29,l),
(649,21,l),
(649,671,l),
(642,663,l),
(749,677,l),
(749,692,l),
(529,687,l),
(529,672,l),
(636,664,l),
(629,671,l),
(629,354,l),
(636,361,l),
(179,361,l),
(186,354,l),
(186,671,l),
(179,663,l),
(286,677,l),
(286,692,l),
(66,687,l),
(66,672,l),
(173,663,l),
(166,671,l),
(166,21,l),
(173,29,l),
(66,15,l),
(66,0,l)
);
}
);
width = 814;
},
{
background = {
shapes = (
{
closed = 1;
nodes = (
(760,460,l),
(760,555,l),
(29,555,l),
(29,460,l)
);
},
{
closed = 1;
nodes = (
(354,0,l),
(354,100,l),
(270,134,l),
(294,95,l),
(294,305,l),
(264,275,l),
(525,275,l),
(495,305,l),
(495,95,l),
(519,134,l),
(435,100,l),
(435,0,l),
(760,0,l),
(760,100,l),
(674,134,l),
(700,95,l),
(700,611,l),
(674,570,l),
(760,610,l),
(760,710,l),
(435,705,l),
(435,605,l),
(525,569,l),
(495,610,l),
(495,385,l),
(525,415,l),
(264,415,l),
(294,385,l),
(294,611,l),
(265,569,l),
(354,610,l),
(354,710,l),
(29,705,l),
(29,605,l),
(121,569,l),
(89,610,l),
(89,95,l),
(114,134,l),
(29,100,l),
(29,0,l)
);
}
);
};
guides = (
{
angle = 90;
pos = (29,540);
},
{
angle = 90;
pos = (760,540);
}
);
layerId = "927AED37-E9E6-4F96-A08E-421C3785EFC6";
shapes = (
{
closed = 1;
nodes = (
(760,460,l),
(760,555,l),
(29,555,l),
(29,460,l)
);
},
{
closed = 1;
nodes = (
(354,0,l),
(354,100,l),
(270,134,l),
(294,95,l),
(294,305,l),
(264,275,l),
(525,275,l),
(495,305,l),
(495,95,l),
(519,134,l),
(435,100,l),
(435,0,l),
(760,0,l),
(760,100,l),
(674,134,l),
(700,95,l),
(700,611,l),
(674,570,l),
(760,610,l),
(760,710,l),
(435,705,l),
(435,605,l),
(525,569,l),
(495,610,l),
(495,385,l),
(525,415,l),
(264,415,l),
(294,385,l),
(294,611,l),
(265,569,l),
(354,610,l),
(354,710,l),
(29,705,l),
(29,605,l),
(121,569,l),
(89,610,l),
(89,95,l),
(114,134,l),
(29,100,l),
(29,0,l)
);
}
);
width = 789;
}
);
metricLeft = "=H+5";
metricRight = "=H+5";
unicode = 294;
},
{
glyphname = I;
kernLeft = H;
kernRight = H;
layers = (
{
anchors = (
{
name = bottom;
pos = (171,0);
},
{
name = ogonek;
pos = (251,0);
},
{
name = top;
pos = (171,692);
},
{
name = topleft;
pos = (31,692);
}
);
background = {
anchors = (
{
name = bottom;
pos = (171,0);
},
{
name = ogonek;
pos = (251,0);
},
{
name = top;
pos = (171,692);
},
{
name = topleft;
pos = (31,692);
}
);
shapes = (
{
closed = 1;
nodes = (
(281,692,l),
(61,687,l),
(61,672,l),
(168,663,l),
(161,671,l),
(161,21,l),
(168,29,l),
(61,15,l),
(61,0,l),
(281,0,l),
(281,15,l),
(174,29,l),
(181,21,l),
(181,671,l),
(174,663,l),
(281,677,l)
);
}
);
};
layerId = "075BA79B-D813-4287-A9DD-CCAF2D535ED3";
shapes = (
{
closed = 1;
nodes = (
(281,692,l),
(61,687,l),
(61,672,l),
(168,663,l),
(161,671,l),
(161,21,l),
(168,29,l),
(61,15,l),
(61,0,l),
(281,0,l),
(281,15,l),
(174,29,l),
(181,21,l),
(181,671,l),
(174,663,l),
(281,677,l)
);
}
);
width = 341;
},
{
anchors = (
{
name = bottom;
pos = (188,0);
},
{
name = ogonek;
pos = (291,0);
},
{
name = top;
pos = (186,710);
},
{
name = topleft;
pos = (9,710);
}
);
background = {
anchors = (
{
name = bottom;
pos = (188,0);
},
{
name = ogonek;
pos = (291,0);
},
{
name = top;
pos = (186,710);
},
{
name = topleft;
pos = (9,710);
}
);
shapes = (
{
closed = 1;
nodes = (
(349,710,l),
(24,705,l),
(24,605,l),
(108,571,l),
(84,600,l),
(84,105,l),
(101,131,l),
(24,100,l),
(24,0,l),
(349,0,l),
(349,100,l),
(270,132,l),
(289,105,l),
(289,600,l),
(270,572,l),
(349,610,l)
);
}
);
};
layerId = "927AED37-E9E6-4F96-A08E-421C3785EFC6";
shapes = (
{
closed = 1;
nodes = (
(349,710,l),
(24,705,l),
(24,605,l),
(108,571,l),
(84,600,l),
(84,105,l),
(101,131,l),
(24,100,l),
(24,0,l),
(349,0,l),
(349,100,l),
(270,132,l),
(289,105,l),
(289,600,l),
(270,572,l),
(349,610,l)
);
}
);
width = 373;
}
);
unicode = 73;
},
{
glyphname = J;
kernLeft = J;
kernRight = U;
layers = (
{
anchors = (
{
name = bottom;
pos = (161,0);
},
{
name = top;
pos = (161,692);
}
);
background = {
anchors = (
{
name = bottom;
pos = (161,0);
},
{
name = top;
pos = (161,692);
}
);
shapes = (
{
closed = 1;
nodes = (
(41,672,l),
(158,664,l),
(151,671,l),
(151,3,ls),
(151,-73,o),
(116,-105,o),
(39,-105,cs),
(25,-105,o),
(15,-104,o),
(3,-103,c),
(1,-122,l),
(14,-123,o),
(26,-124,o),
(40,-124,cs),
(122,-124,o),
(171,-90,o),
(171,3,cs),
(171,671,l),
(164,663,l),
(271,677,l),
(271,692,l),
(41,687,l)
);
}
);
};
layerId = "075BA79B-D813-4287-A9DD-CCAF2D535ED3";
shapes = (
{
closed = 1;
nodes = (
(41,672,l),
(158,664,l),
(151,671,l),
(151,3,ls),
(151,-73,o),
(116,-105,o),
(39,-105,cs),
(25,-105,o),
(15,-104,o),
(3,-103,c),
(1,-122,l),
(14,-123,o),
(26,-124,o),
(40,-124,cs),
(122,-124,o),
(171,-90,o),
(171,3,cs),
(171,671,l),
(164,663,l),
(271,677,l),
(271,692,l),
(41,687,l)
);
}
);
width = 319;
},
{
anchors = (
{
name = bottom;
pos = (177,0);
},
{
name = top;
pos = (170,710);
}
);
background = {
anchors = (
{
name = bottom;
pos = (177,0);
},
{
name = top;
pos = (170,710);
}
);
shapes = (
{
closed = 1;
nodes = (
(9,605,l),
(96,573,l),
(74,610,l),
(74,114,ls),
(74,12,o),
(54,-37,o),
(-17,-37,cs),
(-27,-37,o),
(-36,-36,o),
(-49,-34,c),
(-66,-177,l),
(-31,-183,o),
(-2,-186,o),
(28,-186,cs),
(233,-186,o),
(279,-48,o),
(279,158,cs),
(279,610,l),
(259,570,l),
(339,612,l),
(339,710,l),
(9,705,l)
);
}
);
};
layerId = "927AED37-E9E6-4F96-A08E-421C3785EFC6";
shapes = (
{
closed = 1;
nodes = (
(9,605,l),
(96,573,l),
(74,610,l),
(74,114,ls),
(74,12,o),
(54,-37,o),
(-17,-37,cs),
(-27,-37,o),
(-36,-36,o),
(-49,-34,c),
(-66,-177,l),
(-31,-183,o),
(-2,-186,o),
(28,-186,cs),
(233,-186,o),
(279,-48,o),
(279,158,cs),
(279,610,l),
(259,570,l),
(339,612,l),
(339,710,l),
(9,705,l)
);
}
);
width = 354;
}
);
unicode = 74;
},
{
glyphname = K;
kernLeft = H;
kernRight = X;
layers = (
{
anchors = (
{
name = bottom;
pos = (348,0);
},
{
name = top;
pos = (348,692);
}
);
background = {
anchors = (
{
name = bottom;
pos = (348,0);
},
{
name = top;
pos = (348,692);
}
);
shapes = (
{
closed = 1;
nodes = (
(347,364,l),
(347,353,l),
(543,670,l),
(532,663,l),
(635,677,l),
(635,692,l),
(419,687,l),
(419,672,l),
(526,664,l),
(522,670,l),
(329,358,l),
(340,364,l),
(174,364,l),
(181,357,l),
(181,671,l),
(174,663,l),
(281,677,l),
(281,692,l),
(61,687,l),
(61,672,l),
(168,663,l),
(161,671,l),
(161,21,l),
(168,29,l),
(61,15,l),
(61,0,l),
(281,0,l),
(281,15,l),
(174,29,l),
(181,21,l),
(181,352,l),
(174,345,l),
(346,345,l),
(333,350,l),
(567,23,l),
(571,28,l),
(468,15,l),
(468,0,l),
(683,0,l),
(683,15,l),
(580,28,l),
(591,23,l)
);
}
);
};
layerId = "075BA79B-D813-4287-A9DD-CCAF2D535ED3";
shapes = (
{
closed = 1;
nodes = (
(347,364,l),
(347,353,l),
(543,670,l),
(532,663,l),
(635,677,l),
(635,692,l),
(419,687,l),
(419,672,l),
(526,664,l),
(522,670,l),
(329,358,l),
(340,364,l),
(174,364,l),
(181,357,l),
(181,671,l),
(174,663,l),
(281,677,l),
(281,692,l),
(61,687,l),
(61,672,l),
(168,663,l),
(161,671,l),
(161,21,l),
(168,29,l),
(61,15,l),
(61,0,l),
(281,0,l),
(281,15,l),
(174,29,l),
(181,21,l),
(181,352,l),
(174,345,l),
(346,345,l),
(333,350,l),
(567,23,l),
(571,28,l),
(468,15,l),
(468,0,l),
(683,0,l),
(683,15,l),
(580,28,l),
(591,23,l)
);
}
);
width = 701;
},
{
anchors = (
{
name = bottom;
pos = (361,0);
},
{
name = top;
pos = (361,710);
}
);
background = {
anchors = (
{
name = bottom;
pos = (361,0);
},
{
name = top;
pos = (361,710);
}
);
shapes = (
{
closed = 1;
nodes = (
(489,395,l),
(489,346,l),
(651,607,l),
(610,574,l),
(692,610,l),
(692,710,l),
(395,705,l),
(395,605,l),
(468,580,l),
(453,609,l),
(336,404,l),
(386,435,l),
(259,435,l),
(289,404,l),
(289,616,l),
(266,574,l),
(344,612,l),
(344,710,l),
(24,705,l),
(24,605,l),
(103,575,l),
(84,611,l),
(84,95,l),
(104,132,l),
(24,100,l),
(24,0,l),
(344,0,l),
(344,100,l),
(265,137,l),
(289,95,l),
(289,329,l),
(259,290,l),
(369,290,l),
(318,329,l),
(457,99,l),
(460,133,l),
(398,100,l),
(398,0,l),
(716,0,l),
(716,100,l),
(639,133,l),
(692,91,l)
);
}
);
};
layerId = "927AED37-E9E6-4F96-A08E-421C3785EFC6";
shapes = (
{
closed = 1;
nodes = (
(489,395,l),
(489,346,l),
(651,607,l),
(610,574,l),
(692,610,l),
(692,710,l),
(395,705,l),
(395,605,l),
(468,580,l),
(453,609,l),
(336,404,l),
(386,435,l),
(259,435,l),
(289,404,l),
(289,616,l),
(266,574,l),
(344,612,l),
(344,710,l),
(24,705,l),
(24,605,l),
(103,575,l),
(84,611,l),
(84,95,l),
(104,132,l),
(24,100,l),
(24,0,l),
(344,0,l),
(344,100,l),
(265,137,l),
(289,95,l),
(289,329,l),
(259,290,l),
(369,290,l),
(318,329,l),
(457,99,l),
(460,133,l),
(398,100,l),
(398,0,l),
(716,0,l),
(716,100,l),
(639,133,l),
(692,91,l)
);
}
);
width = 726;
}
);
metricLeft = H;
unicode = 75;
},
{
glyphname = L;
kernLeft = H;
kernRight = L;
layers = (
{
anchors = (
{
name = bottom;
pos = (318,0);
},
{
name = center;
pos = (421,357);
},
{
name = top;
pos = (171,692);
},
{
name = topright;
pos = (434,692);
}
);
background = {
anchors = (
{
name = bottom;
pos = (318,0);
},
{
name = center;
pos = (421,357);
},
{
name = top;
pos = (171,692);
},
{
name = topright;
pos = (434,692);
}
);
shapes = (
{
closed = 1;
nodes = (
(484,12,l),
(492,19,l),
(174,19,l),
(181,12,l),
(181,670,l),
(174,662,l),
(296,677,l),
(296,692,l),
(61,687,l),
(61,672,l),
(168,662,l),
(161,670,l),
(161,21,l),
(168,29,l),
(61,15,l),
(61,0,l),
(514,0,l),
(514,145,l),
(499,145,l)
);
}
);
};
layerId = "075BA79B-D813-4287-A9DD-CCAF2D535ED3";
shapes = (
{
closed = 1;
nodes = (
(484,12,l),
(492,19,l),
(174,19,l),
(181,12,l),
(181,670,l),
(174,662,l),
(296,677,l),
(296,692,l),
(61,687,l),
(61,672,l),
(168,662,l),
(161,670,l),
(161,21,l),
(168,29,l),
(61,15,l),
(61,0,l),
(514,0,l),
(514,145,l),
(499,145,l)
);
}
);
width = 547;
},
{
anchors = (
{
name = bottom;
pos = (299,0);
},
{
name = center;
pos = (470,425);
},
{
name = top;
pos = (187,710);
},
{
name = topright;
pos = (399,710);
}
);
background = {
anchors = (
{
name = bottom;
pos = (299,0);
},
{
name = center;
pos = (470,425);
},
{
name = top;
pos = (187,710);
},
{
name = topright;
pos = (399,710);
}
);
shapes = (
{
closed = 1;
nodes = (
(402,114,l),
(428,145,l),
(259,145,l),
(289,115,l),
(289,610,l),
(270,573,l),
(352,610,l),
(352,710,l),
(24,705,l),
(24,605,l),
(105,573,l),
(84,610,l),
(84,95,l),
(105,132,l),
(24,100,l),
(24,0,l),
(549,0,l),
(549,245,l),
(429,245,l)
);
}
);
};
layerId = "927AED37-E9E6-4F96-A08E-421C3785EFC6";
shapes = (
{
closed = 1;
nodes = (
(402,114,l),
(428,145,l),
(259,145,l),
(289,115,l),
(289,610,l),
(270,573,l),
(352,610,l),
(352,710,l),
(24,705,l),
(24,605,l),
(105,573,l),
(84,610,l),
(84,95,l),
(105,132,l),
(24,100,l),
(24,0,l),
(549,0,l),
(549,245,l),
(429,245,l)
);
}
);
width = 564;
}
);
metricLeft = H;
unicode = 76;
},
{
glyphname = Lslash;
kernLeft = H;
kernRight = L;
layers = (
{
background = {
shapes = (
{
closed = 1;
nodes = (
(78,245,l),
(395,448,l),
(386,465,l),
(69,262,l)
);
},
{
closed = 1;
nodes = (
(495,12,l),
(503,19,l),
(185,19,l),
(192,12,l),
(192,670,l),
(185,662,l),
(307,677,l),
(307,692,l),
(72,687,l),
(72,672,l),
(179,662,l),
(172,670,l),
(172,21,l),
(179,29,l),
(72,15,l),
(72,0,l),
(525,0,l),
(525,145,l),
(510,145,l)
);
}
);
};
guides = (
{
angle = 90;
pos = (79,484);
},
{
angle = 90;
pos = (69,484);
}
);
layerId = "075BA79B-D813-4287-A9DD-CCAF2D535ED3";
shapes = (
{
closed = 1;
nodes = (
(78,245,l),
(395,448,l),
(386,465,l),
(69,262,l)
);
},
{
closed = 1;
nodes = (
(495,12,l),
(503,19,l),
(185,19,l),
(192,12,l),
(192,670,l),
(185,662,l),
(307,677,l),
(307,692,l),
(72,687,l),
(72,672,l),
(179,662,l),
(172,670,l),
(172,21,l),
(179,29,l),
(72,15,l),
(72,0,l),
(525,0,l),
(525,145,l),
(510,145,l)
);
}
);
width = 558;
},
{
background = {
shapes = (
{
closed = 1;
nodes = (
(52,220,l),
(460,414,l),
(417,515,l),
(9,321,l)
);
},
{
closed = 1;
nodes = (
(430,114,l),
(456,145,l),
(287,145,l),
(317,115,l),
(317,610,l),
(298,573,l),
(380,610,l),
(380,710,l),
(52,705,l),
(52,605,l),
(133,573,l),
(112,610,l),
(112,95,l),
(133,132,l),
(52,100,l),
(52,0,l),
(577,0,l),
(577,245,l),
(457,245,l)
);
}
);
};
guides = (
{
angle = 90;
pos = (52,445);
},
{
angle = -0.7948;
pos = (74,542);
},
{
angle = 90;
pos = (42,484);
}
);
layerId = "927AED37-E9E6-4F96-A08E-421C3785EFC6";
shapes = (
{
closed = 1;
nodes = (
(52,220,l),
(460,414,l),
(417,515,l),
(9,321,l)
);
},
{
closed = 1;
nodes = (
(430,114,l),
(456,145,l),
(287,145,l),
(317,115,l),
(317,610,l),
(298,573,l),
(380,610,l),
(380,710,l),
(52,705,l),
(52,605,l),
(133,573,l),
(112,610,l),
(112,95,l),
(133,132,l),
(52,100,l),
(52,0,l),
(577,0,l),
(577,245,l),
(457,245,l)
);
}
);
width = 592;
}
);
metricRight = L;
unicode = 321;
},
{
glyphname = M;
kernLeft = H;
kernRight = H;
layers = (
{
anchors = (
{
name = bottom;
pos = (455,0);
},
{
name = top;
pos = (455,692);
}
);
background = {
anchors = (
{
name = bottom;
pos = (455,0);
},
{
name = top;
pos = (455,692);
}
);
shapes = (
{
closed = 1;
nodes = (
(849,692,l),
(724,687,l),
(449,197,l),
(455,197,l),
(186,692,l),
(61,687,l),
(61,672,l),
(168,663,l),
(161,671,l),
(161,21,l),
(168,29,l),
(61,15,l),
(61,0,l),
(281,0,l),
(281,15,l),
(173,29,l),
(181,21,l),
(181,665,l),
(177,664,l),
(441,178,l),
(461,182,l),
(732,661,l),
(729,662,l),
(729,21,l),
(736,29,l),
(629,15,l),
(629,0,l),
(849,0,l),
(849,15,l),
(742,29,l),
(749,21,l),
(749,671,l),
(742,663,l),
(849,677,l)
);
}
);
};
layerId = "075BA79B-D813-4287-A9DD-CCAF2D535ED3";
shapes = (
{
closed = 1;
nodes = (
(849,692,l),
(724,687,l),
(449,197,l),
(455,197,l),
(186,692,l),
(61,687,l),
(61,672,l),
(168,663,l),
(161,671,l),
(161,21,l),
(168,29,l),
(61,15,l),
(61,0,l),
(281,0,l),
(281,15,l),
(173,29,l),
(181,21,l),
(181,665,l),
(177,664,l),
(441,178,l),
(461,182,l),
(732,661,l),
(729,662,l),
(729,21,l),
(736,29,l),
(629,15,l),
(629,0,l),
(849,0,l),
(849,15,l),
(742,29,l),
(749,21,l),
(749,671,l),
(742,663,l),
(849,677,l)
);
}
);
width = 909;
},
{
anchors = (
{
name = bottom;
pos = (428,0);
},
{
name = top;
pos = (428,710);
}
);
background = {
anchors = (
{
name = bottom;
pos = (428,0);
},
{
name = top;
pos = (428,710);
}
);
shapes = (
{
closed = 1;
nodes = (
(831,710,l),
(547,705,l),
(425,383,l),
(448,383,l),
(335,710,l),
(24,705,l),
(24,605,l),
(110,571,l),
(84,620,l),
(84,95,l),
(110,134,l),
(24,100,l),
(24,0,l),
(308,0,l),
(308,100,l),
(227,131,l),
(247,95,l),
(247,496,l),
(218,496,l),
(350,178,l),
(475,183,l),
(614,495,l),
(583,496,l),
(583,95,l),
(615,135,l),
(523,100,l),
(523,0,l),
(831,0,l),
(831,100,l),
(745,134,l),
(771,95,l),
(771,620,l),
(745,569,l),
(831,610,l)
);
}
);
};
layerId = "927AED37-E9E6-4F96-A08E-421C3785EFC6";
shapes = (
{
closed = 1;
nodes = (
(831,710,l),
(547,705,l),
(425,383,l),
(448,383,l),
(335,710,l),
(24,705,l),
(24,605,l),
(110,571,l),
(84,620,l),
(84,95,l),
(110,134,l),
(24,100,l),
(24,0,l),
(308,0,l),
(308,100,l),
(227,131,l),
(247,95,l),
(247,496,l),
(218,496,l),
(350,178,l),
(475,183,l),
(614,495,l),
(583,496,l),
(583,95,l),
(615,135,l),
(523,100,l),
(523,0,l),
(831,0,l),
(831,100,l),
(745,134,l),
(771,95,l),
(771,620,l),
(745,569,l),
(831,610,l)
);
}
);
width = 855;
}
);
unicode = 77;
},
{
glyphname = N;
kernLeft = H;
kernRight = H;
layers = (
{
anchors = (
{
name = bottom;
pos = (413,0);
},
{
name = top;
pos = (420,692);
}
);
background = {
anchors = (
{
name = bottom;
pos = (413,0);
},
{
name = top;
pos = (420,692);
}
);
shapes = (
{
closed = 1;
nodes = (
(544,672,l),
(651,665,l),
(644,672,l),
(644,30,l),
(648,31,l),
(186,692,l),
(61,687,l),
(61,672,l),
(168,663,l),
(161,671,l),
(161,21,l),
(168,29,l),
(61,15,l),
(61,0,l),
(281,0,l),
(281,15,l),
(174,29,l),
(181,21,l),
(181,670,l),
(177,669,l),
(644,0,l),
(664,0,l),
(664,671,l),
(657,663,l),
(764,677,l),
(764,692,l),
(544,687,l)
);
}
);
};
layerId = "075BA79B-D813-4287-A9DD-CCAF2D535ED3";
shapes = (
{
closed = 1;
nodes = (
(544,672,l),
(651,665,l),
(644,672,l),
(644,30,l),
(648,31,l),
(186,692,l),
(61,687,l),
(61,672,l),
(168,663,l),
(161,671,l),
(161,21,l),
(168,29,l),
(61,15,l),
(61,0,l),
(281,0,l),
(281,15,l),
(174,29,l),
(181,21,l),
(181,670,l),
(177,669,l),
(644,0,l),
(664,0,l),
(664,671,l),
(657,663,l),
(764,677,l),
(764,692,l),
(544,687,l)
);
}
);
width = 812;
},
{
anchors = (
{
name = bottom;
pos = (382,0);
},
{
name = top;
pos = (387,710);
}
);
background = {
anchors = (
{
name = bottom;
pos = (382,0);
},
{
name = top;
pos = (387,710);
}
);
shapes = (
{
closed = 1;
nodes = (
(452,605,l),
(541,570,l),
(512,610,l),
(512,228,l),
(541,228,l),
(327,710,l),
(24,705,l),
(24,605,l),
(102,574,l),
(84,610,l),
(84,95,l),
(113,135,l),
(24,100,l),
(24,0,l),
(312,0,l),
(312,100,l),
(223,135,l),
(252,95,l),
(252,495,l),
(224,495,l),
(443,0,l),
(680,0,l),
(680,611,l),
(653,570,l),
(740,610,l),
(740,710,l),
(452,705,l)
);
}
);
};
layerId = "927AED37-E9E6-4F96-A08E-421C3785EFC6";
shapes = (
{
closed = 1;
nodes = (
(452,605,l),
(541,570,l),
(512,610,l),
(512,228,l),
(541,228,l),
(327,710,l),
(24,705,l),
(24,605,l),
(102,574,l),
(84,610,l),
(84,95,l),
(113,135,l),
(24,100,l),
(24,0,l),
(312,0,l),
(312,100,l),
(223,135,l),
(252,95,l),
(252,495,l),
(224,495,l),
(443,0,l),
(680,0,l),
(680,611,l),
(653,570,l),
(740,610,l),
(740,710,l),
(452,705,l)
);
}
);
width = 752;
}
);
unicode = 78;
},
{
glyphname = Eng;
kernLeft = H;
kernRight = U;
layers = (
{
background = {
shapes = (
{
closed = 1;
nodes = (
(597,-236,o),
(664,-212,o),
(664,-107,cs),
(664,671,l),
(657,663,l),
(764,677,l),
(764,692,l),
(529,687,l),
(529,671,l),
(651,665,l),
(644,672,l),
(644,28,l),
(648,29,l),
(186,692,l),
(61,687,l),
(61,672,l),
(168,663,l),
(161,671,l),
(161,21,l),
(168,29,l),
(61,15,l),
(61,0,l),
(296,0,l),
(296,15,l),
(174,29,l),
(181,21,l),
(181,670,l),
(177,669,l),
(648,-9,l),
(644,4,l),
(644,-107,ls),
(644,-185,o),
(609,-217,o),
(532,-217,cs),
(521,-217,o),
(510,-216,o),
(497,-215,c),
(495,-234,l),
(507,-235,o),
(519,-236,o),
(532,-236,cs)
);
}
);
};
layerId = "075BA79B-D813-4287-A9DD-CCAF2D535ED3";
shapes = (
{
closed = 1;
nodes = (
(597,-236,o),
(664,-212,o),
(664,-107,cs),
(664,671,l),
(657,663,l),
(764,677,l),
(764,692,l),
(529,687,l),
(529,671,l),
(651,665,l),
(644,672,l),
(644,28,l),
(648,29,l),
(186,692,l),
(61,687,l),
(61,672,l),
(168,663,l),
(161,671,l),
(161,21,l),
(168,29,l),
(61,15,l),
(61,0,l),
(296,0,l),
(296,15,l),
(174,29,l),
(181,21,l),
(181,670,l),
(177,669,l),
(648,-9,l),
(644,4,l),
(644,-107,ls),
(644,-185,o),
(609,-217,o),
(532,-217,cs),
(521,-217,o),
(510,-216,o),
(497,-215,c),
(495,-234,l),
(507,-235,o),
(519,-236,o),
(532,-236,cs)
);
}
);
width = 812;
},
{
background = {
shapes = (
{
closed = 1;
nodes = (
(568,-245,o),
(690,-174,o),
(690,6,cs),
(690,611,l),
(663,570,l),
(760,610,l),
(760,710,l),
(455,705,l),
(455,605,l),
(554,570,l),
(525,610,l),
(525,258,l),
(550,258,l),
(327,710,l),
(24,705,l),
(24,605,l),
(112,574,l),
(94,610,l),
(94,95,l),
(123,135,l),
(24,100,l),
(24,0,l),
(329,0,l),
(329,100,l),
(230,135,l),
(259,95,l),
(259,465,l),
(235,465,l),
(500,-21,l),
(489,35,l),
(489,-22,ls),
(489,-79,o),
(466,-100,o),
(408,-100,cs),
(395,-100,o),
(380,-99,o),
(364,-97,c),
(349,-237,l),
(376,-242,o),
(404,-245,o),
(432,-245,cs)
);
}
);
};
layerId = "927AED37-E9E6-4F96-A08E-421C3785EFC6";
shapes = (
{
closed = 1;
nodes = (
(568,-245,o),
(690,-174,o),
(690,6,cs),
(690,611,l),
(663,570,l),
(760,610,l),
(760,710,l),
(455,705,l),
(455,605,l),
(554,570,l),
(525,610,l),
(525,258,l),
(550,258,l),
(327,710,l),
(24,705,l),
(24,605,l),
(112,574,l),
(94,610,l),
(94,95,l),
(123,135,l),
(24,100,l),
(24,0,l),
(329,0,l),
(329,100,l),
(230,135,l),
(259,95,l),
(259,465,l),
(235,465,l),
(500,-21,l),
(489,35,l),
(489,-22,ls),
(489,-79,o),
(466,-100,o),
(408,-100,cs),
(395,-100,o),
(380,-99,o),
(364,-97,c),
(349,-237,l),
(376,-242,o),
(404,-245,o),
(432,-245,cs)
);
}
);
width = 775;
}
);
metricLeft = N;
metricRight = J;
unicode = 330;
},
{
glyphname = O;
kernLeft = O;
kernRight = O;
layers = (
{
anchors = (
{
name = bottom;
pos = (379,0);
},
{
name = center;
pos = (379,346);
},
{
name = ogonek;
pos = (431,0);
},
{
name = top;
pos = (383,692);
},
{
name = topleft;
pos = (13,692);
},
{
name = topright;
pos = (594,692);
}
);
background = {
anchors = (
{
name = bottom;
pos = (379,0);
},
{
name = center;
pos = (379,346);
},
{
name = ogonek;
pos = (431,0);
},
{
name = top;
pos = (383,692);
},
{
name = topleft;
pos = (13,692);
},
{
name = topright;
pos = (594,692);
}
);
shapes = (
{
closed = 1;
nodes = (
(536,-6,o),
(679,123,o),
(679,356,cs),
(679,591,o),
(533,698,o),
(383,698,cs),
(225,698,o),
(79,581,o),
(79,341,cs),
(79,107,o),
(217,-6,o),
(371,-6,cs)
);
},
{
closed = 1;
nodes = (
(229,14,o),
(101,121,o),
(101,342,cs),
(101,568,o),
(235,678,o),
(382,678,cs),
(527,678,o),
(657,570,o),
(657,353,cs),
(657,129,o),
(520,14,o),
(372,14,cs)
);
}
);
};
guides = (
{
angle = 90;
pos = (73,854);
},
{
angle = 90;
pos = (685,854);
},
{
angle = 90;
pos = (379,661);
}
);
layerId = "075BA79B-D813-4287-A9DD-CCAF2D535ED3";
shapes = (
{
closed = 1;
nodes = (
(536,-6,o),
(679,123,o),
(679,356,cs),
(679,591,o),
(533,698,o),
(383,698,cs),
(225,698,o),
(79,581,o),
(79,341,cs),
(79,107,o),
(217,-6,o),
(371,-6,cs)
);
},
{
closed = 1;
nodes = (
(229,14,o),
(101,121,o),
(101,342,cs),
(101,568,o),
(235,678,o),
(382,678,cs),
(527,678,o),
(657,570,o),
(657,353,cs),
(657,129,o),
(520,14,o),
(372,14,cs)
);
}
);
width = 757;
},
{
anchors = (
{
name = bottom;
pos = (360,0);
},
{
name = center;
pos = (360,355);
},
{
name = ogonek;
pos = (458,0);
},
{
name = top;
pos = (363,710);
},
{
name = topleft;
pos = (25,710);
},
{
name = topright;
pos = (546,710);
}
);
background = {
anchors = (
{
name = bottom;
pos = (360,0);
},
{
name = center;
pos = (360,355);
},
{
name = ogonek;
pos = (458,0);
},
{
name = top;
pos = (363,710);
},
{
name = topleft;
pos = (25,710);
},
{
name = topright;
pos = (546,710);
}
);
shapes = (
{
closed = 1;
nodes = (
(566,-15,o),
(698,133,o),
(698,370,cs),
(698,594,o),
(583,725,o),
(368,725,cs),
(153,725,o),
(23,595,o),
(23,344,cs),
(23,113,o),
(135,-15,o),
(343,-15,cs)
);
},
{
closed = 1;
nodes = (
(274,140,o),
(243,193,o),
(243,351,cs),
(243,531,o),
(283,570,o),
(359,570,cs),
(443,570,o),
(478,524,o),
(478,362,cs),
(478,182,o),
(433,140,o),
(358,140,cs)
);
}
);
};
guides = (
{
angle = 90;
pos = (360,764);
}
);
layerId = "927AED37-E9E6-4F96-A08E-421C3785EFC6";
shapes = (
{
closed = 1;
nodes = (
(566,-15,o),
(698,133,o),
(698,370,cs),
(698,594,o),
(583,725,o),
(368,725,cs),
(153,725,o),
(23,595,o),
(23,344,cs),
(23,113,o),
(135,-15,o),
(343,-15,cs)
);
},
{
closed = 1;
nodes = (
(274,140,o),
(243,193,o),
(243,351,cs),
(243,531,o),
(283,570,o),
(359,570,cs),
(443,570,o),
(478,524,o),
(478,362,cs),
(478,182,o),
(433,140,o),
(358,140,cs)
);
}
);
width = 720;
}
);
unicode = 79;
},
{
glyphname = Ohorn;
kernLeft = O;
kernRight = O;
layers = (
{
anchors = (
{
name = bottom;
pos = (379,0);
},
{
name = top;
pos = (383,692);
}
);
background = {
anchors = (
{
name = bottom;
pos = (379,0);
},
{
name = top;
pos = (383,692);
}
);
shapes = (
{
closed = 1;
nodes = (
(536,-6,o),
(679,123,o),
(679,356,cs),
(679,591,o),
(533,698,o),
(383,698,cs),
(225,698,o),
(79,581,o),
(79,341,cs),
(79,107,o),
(217,-6,o),
(371,-6,cs)
);
},
{
closed = 1;
nodes = (
(229,14,o),
(101,121,o),
(101,342,cs),
(101,568,o),
(235,678,o),
(382,678,cs),
(527,678,o),
(657,570,o),
(657,353,cs),
(657,129,o),
(520,14,o),
(372,14,cs)
);
},
{
closed = 1;
nodes = (
(619,651,o),
(684,690,o),
(684,751,cs),
(684,768,o),
(680,793,o),
(670,821,c),
(650,814,l),
(658,790,o),
(662,767,o),
(662,754,cs),
(662,698,o),
(597,668,o),
(497,667,c),
(527,648,l)
);
}
);
};
guides = (
{
pos = (73,821);
}
);
layerId = "075BA79B-D813-4287-A9DD-CCAF2D535ED3";
shapes = (
{
closed = 1;
nodes = (
(536,-6,o),
(679,123,o),
(679,356,cs),
(679,591,o),
(533,698,o),
(383,698,cs),
(225,698,o),
(79,581,o),
(79,341,cs),
(79,107,o),
(217,-6,o),
(371,-6,cs)
);
},
{
closed = 1;
nodes = (
(229,14,o),
(101,121,o),
(101,342,cs),
(101,568,o),
(235,678,o),
(382,678,cs),
(527,678,o),
(657,570,o),
(657,353,cs),
(657,129,o),
(520,14,o),
(372,14,cs)
);
},
{
closed = 1;
nodes = (
(619,651,o),
(684,690,o),
(684,751,cs),
(684,768,o),
(680,793,o),
(670,821,c),
(650,814,l),
(658,790,o),
(662,767,o),
(662,754,cs),
(662,698,o),
(597,668,o),
(497,667,c),
(527,648,l)
);
}
);
width = 769;
},
{
anchors = (
{
name = bottom;
pos = (360,0);
},
{
name = top;
pos = (363,710);
}
);
background = {
anchors = (
{
name = bottom;
pos = (360,0);
},
{
name = top;
pos = (363,710);
}
);
shapes = (
{
closed = 1;
nodes = (
(566,-15,o),
(698,133,o),
(698,370,cs),
(698,594,o),
(583,725,o),
(368,725,cs),
(153,725,o),
(23,595,o),
(23,344,cs),
(23,113,o),
(135,-15,o),
(343,-15,cs)
);
},
{
closed = 1;
nodes = (
(274,140,o),
(243,193,o),
(243,351,cs),
(243,531,o),
(283,570,o),
(359,570,cs),
(443,570,o),
(478,524,o),
(478,362,cs),
(478,182,o),
(433,140,o),
(358,140,cs)
);
},
{
closed = 1;
nodes = (
(642,613,o),
(718,662,o),
(718,751,cs),
(718,785,o),
(707,823,o),
(685,867,c),
(543,837,l),
(554,805,o),
(561,781,o),
(561,762,cs),
(561,722,o),
(534,707,o),
(472,707,c),
(514,618,l)
);
}
);
};
guides = (
{
pos = (73,867);
}
);
layerId = "927AED37-E9E6-4F96-A08E-421C3785EFC6";
shapes = (
{
closed = 1;
nodes = (
(566,-15,o),
(698,133,o),
(698,370,cs),
(698,594,o),
(583,725,o),
(368,725,cs),
(153,725,o),
(23,595,o),
(23,344,cs),
(23,113,o),
(135,-15,o),
(343,-15,cs)
);
},
{
closed = 1;
nodes = (
(274,140,o),
(243,193,o),
(243,351,cs),
(243,531,o),
(283,570,o),
(359,570,cs),
(443,570,o),
(478,524,o),
(478,362,cs),
(478,182,o),
(433,140,o),
(358,140,cs)
);
},
{
closed = 1;
nodes = (
(642,613,o),
(718,662,o),
(718,751,cs),
(718,785,o),
(707,823,o),
(685,867,c),
(543,837,l),
(554,805,o),
(561,781,o),
(561,762,cs),
(561,722,o),
(534,707,o),
(472,707,c),
(514,618,l)
);
}
);
width = 732;
}
);
metricLeft = O;
unicode = 416;
},
{
glyphname = Oslash;
kernLeft = O;
kernRight = O;
layers = (
{
anchors = (
{
name = top;
pos = (383,692);
}
);
background = {
anchors = (
{
name = top;
pos = (383,692);
}
);
guides = (
{
angle = 90;
pos = (392,592);
}
);
shapes = (
{
closed = 1;
nodes = (
(551,638,l),
(546,629,l),
(195,76,l),
(190,68,l),
(110,-59,l),
(127,-70,l),
(206,55,l),
(210,62,l),
(562,619,l),
(567,626,l),
(647,752,l),
(630,762,l)
);
},
{
closed = 1;
nodes = (
(536,-6,o),
(679,123,o),
(679,356,cs),
(679,591,o),
(533,698,o),
(383,698,cs),
(225,698,o),
(79,581,o),
(79,341,cs),
(79,107,o),
(217,-6,o),
(371,-6,cs)
);
},
{
closed = 1;
nodes = (
(229,14,o),
(101,121,o),
(101,342,cs),
(101,568,o),
(235,678,o),
(382,678,cs),
(527,678,o),
(657,570,o),
(657,353,cs),
(657,129,o),
(520,14,o),
(372,14,cs)
);
}
);
};
guides = (
{
angle = 90;
pos = (392,592);
}
);
layerId = "075BA79B-D813-4287-A9DD-CCAF2D535ED3";
shapes = (
{
closed = 1;
nodes = (
(551,638,l),
(546,629,l),
(195,76,l),
(190,68,l),
(110,-59,l),
(127,-70,l),
(206,55,l),
(210,62,l),
(562,619,l),
(567,626,l),
(647,752,l),
(630,762,l)
);
},
{
closed = 1;
nodes = (
(536,-6,o),
(679,123,o),
(679,356,cs),
(679,591,o),
(533,698,o),
(383,698,cs),
(225,698,o),
(79,581,o),
(79,341,cs),
(79,107,o),
(217,-6,o),
(371,-6,cs)
);
},
{
closed = 1;
nodes = (
(229,14,o),
(101,121,o),
(101,342,cs),
(101,568,o),
(235,678,o),
(382,678,cs),
(527,678,o),
(657,570,o),
(657,353,cs),
(657,129,o),
(520,14,o),
(372,14,cs)
);
}
);
width = 757;
},
{
anchors = (
{
name = top;
pos = (366,710);
}
);
background = {
anchors = (
{
name = top;
pos = (366,710);
}
);
shapes = (
{
closed = 1;
nodes = (
(483,663,l),
(477,643,l),
(168,154,l),
(149,133,l),
(51,-22,l),
(154,-83,l),
(253,75,l),
(263,100,l),
(559,571,l),
(588,607,l),
(665,729,l),
(563,790,l)
);
},
{
closed = 1;
nodes = (
(569,-15,o),
(701,133,o),
(701,370,cs),
(701,594,o),
(586,725,o),
(371,725,cs),
(156,725,o),
(26,595,o),
(26,344,cs),
(26,113,o),
(138,-15,o),
(346,-15,cs)
);
},
{
closed = 1;
nodes = (
(277,140,o),
(246,193,o),
(246,351,cs),
(246,531,o),
(286,570,o),
(362,570,cs),
(446,570,o),
(481,524,o),
(481,362,cs),
(481,182,o),
(436,140,o),
(361,140,cs)
);
}
);
};
layerId = "927AED37-E9E6-4F96-A08E-421C3785EFC6";
shapes = (
{
closed = 1;
nodes = (
(483,663,l),
(477,643,l),
(168,154,l),
(149,133,l),
(51,-22,l),
(154,-83,l),
(253,75,l),
(263,100,l),
(559,571,l),
(588,607,l),
(665,729,l),
(563,790,l)
);
},
{
closed = 1;
nodes = (
(569,-15,o),
(701,133,o),
(701,370,cs),
(701,594,o),
(586,725,o),
(371,725,cs),
(156,725,o),
(26,595,o),
(26,344,cs),
(26,113,o),
(138,-15,o),
(346,-15,cs)
);
},
{
closed = 1;
nodes = (
(277,140,o),
(246,193,o),
(246,351,cs),
(246,531,o),
(286,570,o),
(362,570,cs),
(446,570,o),
(481,524,o),
(481,362,cs),
(481,182,o),
(436,140,o),
(361,140,cs)
);
}
);
width = 724;
}
);
unicode = 216;
},
{
glyphname = OE;
kernLeft = O;
kernRight = E;
layers = (
{
anchors = (
{
name = bottom;
pos = (477,0);
},
{
name = top;
pos = (477,692);
}
);
background = {
anchors = (
{
name = bottom;
pos = (477,0);
},
{
name = top;
pos = (477,692);
}
);
shapes = (
{
closed = 1;
nodes = (
(403,-2,o),
(454,0,o),
(471,0,cs),
(850,0,l),
(850,141,l),
(835,141,l),
(820,12,l),
(828,19,l),
(479,19,l),
(486,12,l),
(486,366,l),
(479,359,l),
(769,359,l),
(769,378,l),
(479,378,l),
(486,371,l),
(486,680,l),
(479,673,l),
(815,673,l),
(807,680,l),
(822,556,l),
(837,556,l),
(837,692,l),
(487,692,ls),
(469,692,o),
(410,694,o),
(383,694,cs),
(218,694,o),
(79,580,o),
(79,340,cs),
(79,107,o),
(210,-2,o),
(367,-2,cs)
);
},
{
closed = 1;
nodes = (
(469,21,l),
(452,19,o),
(401,18,o),
(375,18,cs),
(218,18,o),
(101,120,o),
(101,340,cs),
(101,567,o),
(227,674,o),
(387,674,cs),
(409,674,o),
(456,673,o),
(470,672,c),
(466,679,l),
(466,14,l)
);
}
);
};
layerId = "075BA79B-D813-4287-A9DD-CCAF2D535ED3";
shapes = (
{
closed = 1;
nodes = (
(403,-2,o),
(454,0,o),
(471,0,cs),
(850,0,l),
(850,141,l),
(835,141,l),
(820,12,l),
(828,19,l),
(479,19,l),
(486,12,l),
(486,366,l),
(479,359,l),
(769,359,l),
(769,378,l),
(479,378,l),
(486,371,l),
(486,680,l),
(479,673,l),
(815,673,l),
(807,680,l),
(822,556,l),
(837,556,l),
(837,692,l),
(487,692,ls),
(469,692,o),
(410,694,o),
(383,694,cs),
(218,694,o),
(79,580,o),
(79,340,cs),
(79,107,o),
(210,-2,o),
(367,-2,cs)
);
},
{
closed = 1;
nodes = (
(469,21,l),
(452,19,o),
(401,18,o),
(375,18,cs),
(218,18,o),
(101,120,o),
(101,340,cs),
(101,567,o),
(227,674,o),
(387,674,cs),
(409,674,o),
(456,673,o),
(470,672,c),
(466,679,l),
(466,14,l)
);
}
);
width = 934;
},
{
anchors = (
{
name = bottom;
pos = (539,0);
},
{
name = top;
pos = (539,710);
}
);
background = {
anchors = (
{
name = bottom;
pos = (539,0);
},
{
name = top;
pos = (539,710);
}
);
shapes = (
{
closed = 1;
nodes = (
(400,-7,o),
(525,0,o),
(570,0,cs),
(905,0,l),
(907,211,l),
(787,211,l),
(763,115,l),
(800,145,l),
(608,145,l),
(638,115,l),
(638,320,l),
(608,290,l),
(812,290,l),
(812,430,l),
(608,430,l),
(638,400,l),
(638,595,l),
(608,565,l),
(788,565,l),
(752,591,l),
(775,508,l),
(895,508,l),
(895,710,l),
(634,710,ls),
(593,710,o),
(441,716,o),
(387,716,cs),
(151,716,o),
(23,601,o),
(23,346,cs),
(23,112,o),
(131,-7,o),
(347,-7,cs)
);
},
{
closed = 1;
nodes = (
(466,159,l),
(459,157,o),
(407,147,o),
(364,147,cs),
(274,147,o),
(243,190,o),
(243,353,cs),
(243,536,o),
(282,561,o),
(375,561,cs),
(417,561,o),
(441,556,o),
(476,551,c),
(433,606,l),
(433,103,l)
);
}
);
};
layerId = "927AED37-E9E6-4F96-A08E-421C3785EFC6";
shapes = (
{
closed = 1;
nodes = (
(400,-7,o),
(525,0,o),
(570,0,cs),
(905,0,l),
(907,211,l),
(787,211,l),
(763,115,l),
(800,145,l),
(608,145,l),
(638,115,l),
(638,320,l),
(608,290,l),
(812,290,l),
(812,430,l),
(608,430,l),
(638,400,l),
(638,595,l),
(608,565,l),
(788,565,l),
(752,591,l),
(775,508,l),
(895,508,l),
(895,710,l),
(634,710,ls),
(593,710,o),
(441,716,o),
(387,716,cs),
(151,716,o),
(23,601,o),
(23,346,cs),
(23,112,o),
(131,-7,o),
(347,-7,cs)
);
},
{
closed = 1;
nodes = (
(466,159,l),
(459,157,o),
(407,147,o),
(364,147,cs),
(274,147,o),
(243,190,o),
(243,353,cs),
(243,536,o),
(282,561,o),
(375,561,cs),
(417,561,o),
(441,556,o),
(476,551,c),
(433,606,l),
(433,103,l)
);
}
);
width = 940;
}
);
metricLeft = O;
metricRight = E;
unicode = 338;
},
{
glyphname = P;
kernLeft = H;
kernRight = P;
layers = (
{
anchors = (
{
name = bottom;
pos = (171,0);
},
{
name = top;
pos = (291,692);
}
);
background = {
anchors = (
{
name = bottom;
pos = (171,0);
},
{
name = top;
pos = (291,692);
}
);
shapes = (
{
closed = 1;
nodes = (
(439,285,o),
(532,365,o),
(532,500,cs),
(532,619,o),
(458,692,o),
(317,692,cs),
(182,692,l),
(61,687,l),
(61,672,l),
(168,663,l),
(161,671,l),
(161,21,l),
(168,29,l),
(61,15,l),
(61,0,l),
(306,0,l),
(306,15,l),
(174,29,l),
(181,21,l),
(181,292,l),
(174,285,l),
(280,285,ls)
);
},
{
closed = 1;
nodes = (
(443,673,o),
(510,607,o),
(510,499,cs),
(510,377,o),
(426,304,o),
(281,304,cs),
(174,304,l),
(181,297,l),
(181,680,l),
(174,673,l),
(315,673,ls)
);
}
);
};
layerId = "075BA79B-D813-4287-A9DD-CCAF2D535ED3";
shapes = (
{
closed = 1;
nodes = (
(439,285,o),
(532,365,o),
(532,500,cs),
(532,619,o),
(458,692,o),
(317,692,cs),
(182,692,l),
(61,687,l),
(61,672,l),
(168,663,l),
(161,671,l),
(161,21,l),
(168,29,l),
(61,15,l),
(61,0,l),
(306,0,l),
(306,15,l),
(174,29,l),
(181,21,l),
(181,292,l),
(174,285,l),
(280,285,ls)
);
},
{
closed = 1;
nodes = (
(443,673,o),
(510,607,o),
(510,499,cs),
(510,377,o),
(426,304,o),
(281,304,cs),
(174,304,l),
(181,297,l),
(181,680,l),
(174,673,l),
(315,673,ls)
);
}
);
width = 581;
},
{
anchors = (
{
name = bottom;
pos = (187,0);
},
{
name = top;
pos = (308,710);
}
);
background = {
anchors = (
{
name = bottom;
pos = (187,0);
},
{
name = top;
pos = (308,710);
}
);
shapes = (
{
closed = 1;
nodes = (
(527,231,o),
(614,345,o),
(614,480,cs),
(614,605,o),
(539,710,o),
(362,710,cs),
(293,710,l),
(24,705,l),
(24,605,l),
(119,570,l),
(84,612,l),
(84,95,l),
(114,135,l),
(24,100,l),
(24,0,l),
(369,0,l),
(369,100,l),
(262,132,l),
(289,95,l),
(289,261,l),
(249,231,l),
(315,231,ls)
);
},
{
closed = 1;
nodes = (
(380,566,o),
(406,532,o),
(406,476,cs),
(406,417,o),
(376,376,o),
(315,376,cs),
(249,376,l),
(289,346,l),
(289,596,l),
(259,566,l),
(329,566,ls)
);
}
);
};
layerId = "927AED37-E9E6-4F96-A08E-421C3785EFC6";
shapes = (
{
closed = 1;
nodes = (
(527,231,o),
(614,345,o),
(614,480,cs),
(614,605,o),
(539,710,o),
(362,710,cs),
(293,710,l),
(24,705,l),
(24,605,l),
(119,570,l),
(84,612,l),
(84,95,l),
(114,135,l),
(24,100,l),
(24,0,l),
(369,0,l),
(369,100,l),
(262,132,l),
(289,95,l),
(289,261,l),
(249,231,l),
(315,231,ls)
);
},
{
closed = 1;
nodes = (
(380,566,o),
(406,532,o),
(406,476,cs),
(406,417,o),
(376,376,o),
(315,376,cs),
(249,376,l),
(289,346,l),
(289,596,l),
(259,566,l),
(329,566,ls)
);
}
);
width = 625;
}
);
unicode = 80;
},
{
glyphname = Thorn;
kernLeft = H;
kernRight = P;
layers = (
{
anchors = (
{
name = bottom;
pos = (171,0);
},
{
name = top;
pos = (171,692);
}
);
background = {
anchors = (
{
name = bottom;
pos = (171,0);
},
{
name = top;
pos = (171,692);
}
);
shapes = (
{
closed = 1;
nodes = (
(306,0,l),
(306,15,l),
(174,29,l),
(181,21,l),
(181,156,l),
(174,149,l),
(265,149,ls),
(424,149,o),
(517,229,o),
(517,365,cs),
(517,484,o),
(443,556,o),
(302,556,cs),
(174,556,l),
(181,549,l),
(181,671,l),
(174,663,l),
(281,677,l),
(281,692,l),
(61,687,l),
(61,672,l),
(168,663,l),
(161,671,l),
(161,21,l),
(168,29,l),
(61,15,l),
(61,0,l)
);
},
{
closed = 1;
nodes = (
(181,544,l),
(174,537,l),
(300,537,ls),
(428,537,o),
(495,472,o),
(495,364,cs),
(495,241,o),
(411,168,o),
(266,168,cs),
(174,168,l),
(181,161,l)
);
}
);
};
layerId = "075BA79B-D813-4287-A9DD-CCAF2D535ED3";
shapes = (
{
closed = 1;
nodes = (
(306,0,l),
(306,15,l),
(174,29,l),
(181,21,l),
(181,156,l),
(174,149,l),
(265,149,ls),
(424,149,o),
(517,229,o),
(517,365,cs),
(517,484,o),
(443,556,o),
(302,556,cs),
(174,556,l),
(181,549,l),
(181,671,l),
(174,663,l),
(281,677,l),
(281,692,l),
(61,687,l),
(61,672,l),
(168,663,l),
(161,671,l),
(161,21,l),
(168,29,l),
(61,15,l),
(61,0,l)
);
},
{
closed = 1;
nodes = (
(181,544,l),
(174,537,l),
(300,537,ls),
(428,537,o),
(495,472,o),
(495,364,cs),
(495,241,o),
(411,168,o),
(266,168,cs),
(174,168,l),
(181,161,l)
);
}
);
width = 566;
},
{
anchors = (
{
name = bottom;
pos = (187,0);
},
{
name = top;
pos = (187,710);
}
);
background = {
anchors = (
{
name = bottom;
pos = (187,0);
},
{
name = top;
pos = (187,710);
}
);
shapes = (
{
closed = 1;
nodes = (
(364,0,l),
(364,100,l),
(264,134,l),
(289,97,l),
(289,191,l),
(259,156,l),
(351,156,ls),
(504,156,o),
(604,222,o),
(604,373,cs),
(604,506,o),
(527,559,o),
(391,559,cs),
(259,559,l),
(289,524,l),
(289,606,l),
(268,568,l),
(349,610,l),
(349,710,l),
(24,705,l),
(24,605,l),
(108,571,l),
(84,610,l),
(84,95,l),
(108,133,l),
(24,100,l),
(24,0,l)
);
},
{
closed = 1;
nodes = (
(289,449,l),
(259,419,l),
(320,419,ls),
(357,419,o),
(399,419,o),
(399,360,cs),
(399,296,o),
(351,296,o),
(308,296,cs),
(259,296,l),
(289,266,l)
);
}
);
};
layerId = "927AED37-E9E6-4F96-A08E-421C3785EFC6";
shapes = (
{
closed = 1;
nodes = (
(364,0,l),
(364,100,l),
(264,134,l),
(289,97,l),
(289,191,l),
(259,156,l),
(351,156,ls),
(504,156,o),
(604,222,o),
(604,373,cs),
(604,506,o),
(527,559,o),
(391,559,cs),
(259,559,l),
(289,524,l),
(289,606,l),
(268,568,l),
(349,610,l),
(349,710,l),
(24,705,l),
(24,605,l),
(108,571,l),
(84,610,l),
(84,95,l),
(108,133,l),
(24,100,l),
(24,0,l)
);
},
{
closed = 1;
nodes = (
(289,449,l),
(259,419,l),
(320,419,ls),
(357,419,o),
(399,419,o),
(399,360,cs),
(399,296,o),
(351,296,o),
(308,296,cs),
(259,296,l),
(289,266,l)
);
}
);
width = 615;
}
);
metricRight = P;
unicode = 222;
},
{
glyphname = Q;
kernLeft = O;
kernRight = O;
layers = (
{
anchors = (
{
name = bottom;
pos = (385,0);
},
{
name = top;
pos = (385,692);
}
);
background = {
anchors = (
{
name = bottom;
pos = (385,0);
},
{
name = top;
pos = (385,692);
}
);
shapes = (
{
closed = 1;
nodes = (
(785,-94,l),
(738,-121,o),
(708,-134,o),
(677,-134,cs),
(620,-134,o),
(563,-89,o),
(401,-2,c),
(403,-5,l),
(563,8,o),
(691,135,o),
(691,356,cs),
(691,591,o),
(546,698,o),
(389,698,cs),
(225,698,o),
(79,581,o),
(79,341,cs),
(79,109,o),
(214,-4,o),
(373,-6,c),
(362,-2,l),
(548,-104,o),
(615,-154,o),
(677,-154,cs),
(712,-154,o),
(744,-139,o),
(795,-109,c)
);
},
{
closed = 1;
nodes = (
(101,568,o),
(235,678,o),
(388,678,cs),
(539,678,o),
(669,570,o),
(669,353,cs),
(669,129,o),
(532,14,o),
(378,14,cs),
(229,14,o),
(101,121,o),
(101,342,cs)
);
}
);
};
layerId = "075BA79B-D813-4287-A9DD-CCAF2D535ED3";
shapes = (
{
closed = 1;
nodes = (
(785,-94,l),
(738,-121,o),
(708,-134,o),
(677,-134,cs),
(620,-134,o),
(563,-89,o),
(401,-2,c),
(403,-5,l),
(563,8,o),
(691,135,o),
(691,356,cs),
(691,591,o),
(546,698,o),
(389,698,cs),
(225,698,o),
(79,581,o),
(79,341,cs),
(79,109,o),
(214,-4,o),
(373,-6,c),
(362,-2,l),
(548,-104,o),
(615,-154,o),
(677,-154,cs),
(712,-154,o),
(744,-139,o),
(795,-109,c)
);
},
{
closed = 1;
nodes = (
(101,568,o),
(235,678,o),
(388,678,cs),
(539,678,o),
(669,570,o),
(669,353,cs),
(669,129,o),
(532,14,o),
(378,14,cs),
(229,14,o),
(101,121,o),
(101,342,cs)
);
}
);
width = 770;
},
{
anchors = (
{
name = bottom;
pos = (361,0);
},
{
name = top;
pos = (361,710);
}
);
background = {
anchors = (
{
name = bottom;
pos = (361,0);
},
{
name = top;
pos = (361,710);
}
);
shapes = (
{
closed = 1;
nodes = (
(764,-16,l),
(722,-40,o),
(692,-53,o),
(657,-53,cs),
(613,-53,o),
(565,-32,o),
(476,26,c),
(469,3,l),
(616,49,o),
(700,182,o),
(700,371,cs),
(700,594,o),
(585,725,o),
(369,725,cs),
(153,725,o),
(23,594,o),
(23,345,cs),
(23,114,o),
(135,-13,o),
(341,-15,c),
(297,0,l),
(486,-151,o),
(573,-213,o),
(654,-213,cs),
(708,-213,o),
(759,-186,o),
(835,-139,c)
);
},
{
closed = 1;
nodes = (
(243,514,o),
(273,570,o),
(360,570,cs),
(449,570,o),
(480,517,o),
(480,363,cs),
(480,197,o),
(449,140,o),
(359,140,cs),
(273,140,o),
(243,194,o),
(243,351,cs)
);
}
);
};
layerId = "927AED37-E9E6-4F96-A08E-421C3785EFC6";
shapes = (
{
closed = 1;
nodes = (
(764,-16,l),
(722,-40,o),
(692,-53,o),
(657,-53,cs),
(613,-53,o),
(565,-32,o),
(476,26,c),
(469,3,l),
(616,49,o),
(700,182,o),
(700,371,cs),
(700,594,o),
(585,725,o),
(369,725,cs),
(153,725,o),
(23,594,o),
(23,345,cs),
(23,114,o),
(135,-13,o),
(341,-15,c),
(297,0,l),
(486,-151,o),
(573,-213,o),
(654,-213,cs),
(708,-213,o),
(759,-186,o),
(835,-139,c)
);
},
{
closed = 1;
nodes = (
(243,514,o),
(273,570,o),
(360,570,cs),
(449,570,o),
(480,517,o),
(480,363,cs),
(480,197,o),
(449,140,o),
(359,140,cs),
(273,140,o),
(243,194,o),
(243,351,cs)
);
}
);
width = 722;
}
);
unicode = 81;
},
{
glyphname = R;
kernLeft = H;
kernRight = R;
layers = (
{
anchors = (
{
name = bottom;
pos = (345,0);
},
{
name = top;
pos = (305,692);
}
);
background = {
anchors = (
{
name = bottom;
pos = (345,0);
},
{
name = top;
pos = (305,692);
}
);
shapes = (
{
closed = 1;
nodes = (
(306,0,l),
(306,15,l),
(174,29,l),
(181,21,l),
(181,334,l),
(174,327,l),
(260,327,ls),
(375,327,o),
(406,293,o),
(448,202,cs),
(541,0,l),
(624,0,l),
(624,15,l),
(546,29,l),
(556,22,l),
(467,208,ls),
(431,283,o),
(405,323,o),
(328,336,c),
(330,333,l),
(463,344,o),
(533,413,o),
(533,520,cs),
(533,632,o),
(459,692,o),
(318,692,cs),
(182,692,l),
(61,687,l),
(61,672,l),
(168,663,l),
(161,671,l),
(161,21,l),
(168,29,l),
(61,15,l),
(61,0,l)
);
},
{
closed = 1;
nodes = (
(181,680,l),
(174,673,l),
(316,673,ls),
(444,673,o),
(511,620,o),
(511,519,cs),
(511,406,o),
(427,346,o),
(282,346,cs),
(174,346,l),
(181,339,l)
);
}
);
};
layerId = "075BA79B-D813-4287-A9DD-CCAF2D535ED3";
shapes = (
{
closed = 1;
nodes = (
(306,0,l),
(306,15,l),
(174,29,l),
(181,21,l),
(181,334,l),
(174,327,l),
(260,327,ls),
(375,327,o),
(406,293,o),
(448,202,cs),
(541,0,l),
(624,0,l),
(624,15,l),
(546,29,l),
(556,22,l),
(467,208,ls),
(431,283,o),
(405,323,o),
(328,336,c),
(330,333,l),
(463,344,o),
(533,413,o),
(533,520,cs),
(533,632,o),
(459,692,o),
(318,692,cs),
(182,692,l),
(61,687,l),
(61,672,l),
(168,663,l),
(161,671,l),
(161,21,l),
(168,29,l),
(61,15,l),
(61,0,l)
);
},
{
closed = 1;
nodes = (
(181,680,l),
(174,673,l),
(316,673,ls),
(444,673,o),
(511,620,o),
(511,519,cs),
(511,406,o),
(427,346,o),
(282,346,cs),
(174,346,l),
(181,339,l)
);
}
);
width = 648;
},
{
anchors = (
{
name = bottom;
pos = (349,0);
},
{
name = top;
pos = (324,710);
}
);
background = {
anchors = (
{
name = bottom;
pos = (349,0);
},
{
name = top;
pos = (324,710);
}
);
shapes = (
{
closed = 1;
nodes = (
(349,0,l),
(349,100,l),
(264,134,l),
(289,95,l),
(289,292,l),
(257,265,l),
(292,266,ls),
(341,267,o),
(341,258,o),
(374,188,cs),
(463,0,l),
(667,0,l),
(667,100,l),
(569,139,l),
(625,104,l),
(550,242,ls),
(526,286,o),
(493,314,o),
(415,312,c),
(413,289,l),
(566,309,o),
(631,390,o),
(631,505,cs),
(631,637,o),
(544,710,o),
(375,710,cs),
(297,710,l),
(24,705,l),
(24,605,l),
(119,568,l),
(84,609,l),
(84,95,l),
(108,133,l),
(24,100,l),
(24,0,l)
);
},
{
closed = 1;
nodes = (
(289,596,l),
(257,566,l),
(349,566,ls),
(401,566,o),
(423,536,o),
(423,491,cs),
(423,434,o),
(394,405,o),
(327,405,cs),
(257,405,l),
(289,355,l)
);
}
);
};
layerId = "927AED37-E9E6-4F96-A08E-421C3785EFC6";
shapes = (
{
closed = 1;
nodes = (
(349,0,l),
(349,100,l),
(264,134,l),
(289,95,l),
(289,292,l),
(257,265,l),
(292,266,ls),
(341,267,o),
(341,258,o),
(374,188,cs),
(463,0,l),
(667,0,l),
(667,100,l),
(569,139,l),
(625,104,l),
(550,242,ls),
(526,286,o),
(493,314,o),
(415,312,c),
(413,289,l),
(566,309,o),
(631,390,o),
(631,505,cs),
(631,637,o),
(544,710,o),
(375,710,cs),
(297,710,l),
(24,705,l),
(24,605,l),
(119,568,l),
(84,609,l),
(84,95,l),
(108,133,l),
(24,100,l),
(24,0,l)
);
},
{
closed = 1;
nodes = (
(289,596,l),
(257,566,l),
(349,566,ls),
(401,566,o),
(423,536,o),
(423,491,cs),
(423,434,o),
(394,405,o),
(327,405,cs),
(257,405,l),
(289,355,l)
);
}
);
width = 677;
}
);
unicode = 82;
},
{
glyphname = S;
kernLeft = S;
kernRight = S;
layers = (
{
anchors = (
{
name = bottom;
pos = (305,0);
},
{
name = top;
pos = (311,692);
}
);
background = {
anchors = (
{
name = bottom;
pos = (305,0);
},
{
name = top;
pos = (311,692);
}
);
shapes = (
{
closed = 1;
nodes = (
(122,635,o),
(216,678,o),
(317,678,cs),
(372,678,o),
(429,665,o),
(474,644,c),
(466,653,l),
(475,522,l),
(490,522,l),
(496,659,l),
(438,685,o),
(377,698,o),
(320,698,cs),
(195,698,o),
(100,640,o),
(100,524,cs),
(100,290,o),
(487,402,o),
(487,181,cs),
(487,70,o),
(390,15,o),
(276,15,cs),
(223,15,o),
(166,27,o),
(113,51,c),
(118,41,l),
(106,175,l),
(91,175,l),
(85,36,l),
(146,8,o),
(211,-6,o),
(273,-6,cs),
(401,-6,o),
(509,55,o),
(509,183,cs),
(509,424,o),
(122,312,o),
(122,528,cs)
);
}
);
};
layerId = "075BA79B-D813-4287-A9DD-CCAF2D535ED3";
shapes = (
{
closed = 1;
nodes = (
(122,635,o),
(216,678,o),
(317,678,cs),
(372,678,o),
(429,665,o),
(474,644,c),
(466,653,l),
(475,522,l),
(490,522,l),
(496,659,l),
(438,685,o),
(377,698,o),
(320,698,cs),
(195,698,o),
(100,640,o),
(100,524,cs),
(100,290,o),
(487,402,o),
(487,181,cs),
(487,70,o),
(390,15,o),
(276,15,cs),
(223,15,o),
(166,27,o),
(113,51,c),
(118,41,l),
(106,175,l),
(91,175,l),
(85,36,l),
(146,8,o),
(211,-6,o),
(273,-6,cs),
(401,-6,o),
(509,55,o),
(509,183,cs),
(509,424,o),
(122,312,o),
(122,528,cs)
);
}
);
width = 598;
},
{
anchors = (
{
name = bottom;
pos = (307,0);
},
{
name = top;
pos = (312,710);
}
);
background = {
anchors = (
{
name = bottom;
pos = (307,0);
},
{
name = top;
pos = (312,710);
}
);
shapes = (
{
closed = 1;
nodes = (
(232,562,o),
(274,577,o),
(324,577,cs),
(354,577,o),
(385,572,o),
(413,563,c),
(393,582,l),
(420,484,l),
(540,484,l),
(553,679,l),
(470,709,o),
(386,725,o),
(311,725,cs),
(154,725,o),
(35,653,o),
(35,500,cs),
(35,240,o),
(381,300,o),
(381,188,cs),
(381,149,o),
(337,132,o),
(284,132,cs),
(246,132,o),
(204,141,o),
(171,157,c),
(189,126,l),
(163,241,l),
(46,241,l),
(41,26,l),
(118,-2,o),
(199,-16,o),
(275,-16,cs),
(442,-16,o),
(581,55,o),
(581,215,cs),
(581,469,o),
(232,427,o),
(232,527,cs)
);
}
);
};
layerId = "927AED37-E9E6-4F96-A08E-421C3785EFC6";
shapes = (
{
closed = 1;
nodes = (
(232,562,o),
(274,577,o),
(324,577,cs),
(354,577,o),
(385,572,o),
(413,563,c),
(393,582,l),
(420,484,l),
(540,484,l),
(553,679,l),
(470,709,o),
(386,725,o),
(311,725,cs),
(154,725,o),
(35,653,o),
(35,500,cs),
(35,240,o),
(381,300,o),
(381,188,cs),
(381,149,o),
(337,132,o),
(284,132,cs),
(246,132,o),
(204,141,o),
(171,157,c),
(189,126,l),
(163,241,l),
(46,241,l),
(41,26,l),
(118,-2,o),
(199,-16,o),
(275,-16,cs),
(442,-16,o),
(581,55,o),
(581,215,cs),
(581,469,o),
(232,427,o),
(232,527,cs)
);
}
);
width = 603;
}
);
unicode = 83;
},
{
glyphname = Germandbls;
kernLeft = H;
kernRight = B;
layers = (
{
background = {
shapes = (
{
closed = 1;
nodes = (
(563,-6,o),
(655,61,o),
(655,196,cs),
(655,345,o),
(542,386,o),
(376,396,c),
(378,387,l),
(584,671,l),
(584,692,l),
(181,692,l),
(60,687,l),
(60,672,l),
(167,662,l),
(160,670,l),
(160,21,l),
(167,29,l),
(60,15,l),
(60,0,l),
(180,0,l),
(180,680,l),
(173,672,l),
(571,673,l),
(570,685,l),
(360,397,l),
(360,378,l),
(530,369,o),
(633,333,o),
(633,196,cs),
(633,75,o),
(552,14,o),
(442,14,cs),
(404,14,o),
(360,20,o),
(314,32,c),
(319,24,l),
(307,137,l),
(292,137,l),
(286,19,l),
(340,3,o),
(395,-6,o),
(440,-6,cs)
);
}
);
};
layerId = "075BA79B-D813-4287-A9DD-CCAF2D535ED3";
shapes = (
{
closed = 1;
nodes = (
(563,-6,o),
(655,61,o),
(655,196,cs),
(655,345,o),
(542,386,o),
(376,396,c),
(378,387,l),
(584,671,l),
(584,692,l),
(181,692,l),
(60,687,l),
(60,672,l),
(167,662,l),
(160,670,l),
(160,21,l),
(167,29,l),
(60,15,l),
(60,0,l),
(180,0,l),
(180,680,l),
(173,672,l),
(571,673,l),
(570,685,l),
(360,397,l),
(360,378,l),
(530,369,o),
(633,333,o),
(633,196,cs),
(633,75,o),
(552,14,o),
(442,14,cs),
(404,14,o),
(360,20,o),
(314,32,c),
(319,24,l),
(307,137,l),
(292,137,l),
(286,19,l),
(340,3,o),
(395,-6,o),
(440,-6,cs)
);
}
);
width = 715;
},
{
background = {
shapes = (
{
closed = 1;
nodes = (
(614,-14,o),
(724,64,o),
(724,208,cs),
(724,364,o),
(595,400,o),
(486,420,c),
(510,381,l),
(656,564,l),
(656,710,l),
(284,710,l),
(24,705,l),
(24,605,l),
(108,572,l),
(84,610,l),
(84,100,l),
(108,134,l),
(24,100,l),
(24,0,l),
(289,0,l),
(289,595,l),
(259,565,l),
(504,565,l),
(508,619,l),
(355,433,l),
(355,311,l),
(456,296,o),
(516,278,o),
(516,205,cs),
(516,162,o),
(495,133,o),
(464,133,cs),
(454,133,o),
(443,136,o),
(431,142,c),
(463,113,l),
(438,194,l),
(330,194,l),
(322,8,l),
(374,-7,o),
(426,-14,o),
(469,-14,cs)
);
}
);
};
layerId = "927AED37-E9E6-4F96-A08E-421C3785EFC6";
shapes = (
{
closed = 1;
nodes = (
(614,-14,o),
(724,64,o),
(724,208,cs),
(724,364,o),
(595,400,o),
(486,420,c),
(510,381,l),
(656,564,l),
(656,710,l),
(284,710,l),
(24,705,l),
(24,605,l),
(108,572,l),
(84,610,l),
(84,100,l),
(108,134,l),
(24,100,l),
(24,0,l),
(289,0,l),
(289,595,l),
(259,565,l),
(504,565,l),
(508,619,l),
(355,433,l),
(355,311,l),
(456,296,o),
(516,278,o),
(516,205,cs),
(516,162,o),
(495,133,o),
(464,133,cs),
(454,133,o),
(443,136,o),
(431,142,c),
(463,113,l),
(438,194,l),
(330,194,l),
(322,8,l),
(374,-7,o),
(426,-14,o),
(469,-14,cs)
);
}
);
width = 734;
}
);
unicode = 7838;
},
{
glyphname = T;
kernLeft = T;
kernRight = T;
layers = (
{
anchors = (
{
name = bottom;
pos = (279,0);
},
{
name = center;
pos = (279,355);
},
{
name = top;
pos = (279,692);
}
);
background = {
anchors = (
{
name = bottom;
pos = (279,0);
},
{
name = center;
pos = (279,355);
},
{
name = top;
pos = (279,692);
}
);
shapes = (
{
closed = 1;
nodes = (
(404,0,l),
(404,15,l),
(282,29,l),
(289,21,l),
(289,680,l),
(282,673,l),
(503,673,l),
(495,680,l),
(510,552,l),
(525,552,l),
(525,692,l),
(33,692,l),
(33,552,l),
(48,552,l),
(63,680,l),
(55,673,l),
(276,673,l),
(269,680,l),
(269,21,l),
(276,29,l),
(154,15,l),
(154,0,l)
);
}
);
};
layerId = "075BA79B-D813-4287-A9DD-CCAF2D535ED3";
shapes = (
{
closed = 1;
nodes = (
(404,0,l),
(404,15,l),
(282,29,l),
(289,21,l),
(289,680,l),
(282,673,l),
(503,673,l),
(495,680,l),
(510,552,l),
(525,552,l),
(525,692,l),
(33,692,l),
(33,552,l),
(48,552,l),
(63,680,l),
(55,673,l),
(276,673,l),
(269,680,l),
(269,21,l),
(276,29,l),
(154,15,l),
(154,0,l)
);
}
);
width = 558;
},
{
anchors = (
{
name = bottom;
pos = (320,0);
},
{
name = center;
pos = (320,337);
},
{
name = top;
pos = (320,710);
}
);
background = {
anchors = (
{
name = bottom;
pos = (320,0);
},
{
name = center;
pos = (320,337);
},
{
name = top;
pos = (320,710);
}
);
shapes = (
{
closed = 1;
nodes = (
(492,0,l),
(492,100,l),
(389,135,l),
(422,85,l),
(422,595,l),
(382,565,l),
(517,565,l),
(475,595,l),
(505,477,l),
(625,477,l),
(625,710,l),
(14,710,l),
(14,477,l),
(134,477,l),
(166,603,l),
(122,565,l),
(257,565,l),
(217,595,l),
(217,85,l),
(252,135,l),
(147,100,l),
(147,0,l)
);
}
);
};
layerId = "927AED37-E9E6-4F96-A08E-421C3785EFC6";
shapes = (
{
closed = 1;
nodes = (
(492,0,l),
(492,100,l),
(389,135,l),
(422,85,l),
(422,595,l),
(382,565,l),
(517,565,l),
(475,595,l),
(505,477,l),
(625,477,l),
(625,710,l),
(14,710,l),
(14,477,l),
(134,477,l),
(166,603,l),
(122,565,l),
(257,565,l),
(217,595,l),
(217,85,l),
(252,135,l),
(147,100,l),
(147,0,l)
);
}
);
width = 639;
}
);
unicode = 84;
},
{
glyphname = U;
kernLeft = U;
kernRight = U;
layers = (
{
anchors = (
{
name = bottom;
pos = (378,0);
},
{
name = ogonek;
pos = (446,0);
},
{
name = top;
pos = (378,692);
},
{
name = topright;
pos = (667,689);
}
);
background = {
anchors = (
{
name = bottom;
pos = (378,0);
},
{
name = ogonek;
pos = (446,0);
},
{
name = top;
pos = (378,692);
},
{
name = topright;
pos = (667,689);
}
);
shapes = (
{
closed = 1;
nodes = (
(497,672,l),
(604,664,l),
(597,671,l),
(597,254,ls),
(597,171,o),
(597,13,o),
(376,13,cs),
(159,13,o),
(159,164,o),
(159,245,cs),
(159,671,l),
(152,663,l),
(259,677,l),
(259,692,l),
(39,687,l),
(39,672,l),
(146,663,l),
(139,671,l),
(139,245,ls),
(139,166,o),
(139,-6,o),
(376,-6,cs),
(617,-6,o),
(617,171,o),
(617,254,cs),
(617,671,l),
(610,663,l),
(717,677,l),
(717,692,l),
(497,687,l)
);
}
);
};
layerId = "075BA79B-D813-4287-A9DD-CCAF2D535ED3";
shapes = (
{
closed = 1;
nodes = (
(497,672,l),
(604,664,l),
(597,671,l),
(597,254,ls),
(597,171,o),
(597,13,o),
(376,13,cs),
(159,13,o),
(159,164,o),
(159,245,cs),
(159,671,l),
(152,663,l),
(259,677,l),
(259,692,l),
(39,687,l),
(39,672,l),
(146,663,l),
(139,671,l),
(139,245,ls),
(139,166,o),
(139,-6,o),
(376,-6,cs),
(617,-6,o),
(617,171,o),
(617,254,cs),
(617,671,l),
(610,663,l),
(717,677,l),
(717,692,l),
(497,687,l)
);
}
);
width = 755;
},
{
anchors = (
{
name = bottom;
pos = (364,0);
},
{
name = ogonek;
pos = (483,0);
},
{
name = top;
pos = (371,710);
},
{
name = topright;
pos = (611,707);
}
);
background = {
anchors = (
{
name = bottom;
pos = (364,0);
},
{
name = ogonek;
pos = (483,0);
},
{
name = top;
pos = (371,710);
},
{
name = topright;
pos = (611,707);
}
);
shapes = (
{
closed = 1;
nodes = (
(403,605,l),
(479,575,l),
(463,621,l),
(463,285,ls),
(463,183,o),
(444,140,o),
(365,140,cs),
(289,140,o),
(273,180,o),
(273,270,cs),
(273,620,l),
(255,572,l),
(333,610,l),
(333,710,l),
(8,705,l),
(8,605,l),
(89,573,l),
(68,620,l),
(68,270,ls),
(68,191,o),
(68,-15,o),
(362,-15,cs),
(555,-15,o),
(668,74,o),
(668,285,cs),
(668,621,l),
(647,572,l),
(728,610,l),
(728,710,l),
(403,705,l)
);
}
);
};
layerId = "927AED37-E9E6-4F96-A08E-421C3785EFC6";
shapes = (
{
closed = 1;
nodes = (
(403,605,l),
(479,575,l),
(463,621,l),
(463,285,ls),
(463,183,o),
(444,140,o),
(365,140,cs),
(289,140,o),
(273,180,o),
(273,270,cs),
(273,620,l),
(255,572,l),
(333,610,l),
(333,710,l),
(8,705,l),
(8,605,l),
(89,573,l),
(68,620,l),
(68,270,ls),
(68,191,o),
(68,-15,o),
(362,-15,cs),
(555,-15,o),
(668,74,o),
(668,285,cs),
(668,621,l),
(647,572,l),
(728,610,l),
(728,710,l),
(403,705,l)
);
}
);
width = 736;
}
);
unicode = 85;
},
{
glyphname = Uhorn;
kernLeft = U;
kernRight = Uhorn;
layers = (
{
anchors = (
{
name = bottom;
pos = (378,0);
},
{
name = top;
pos = (378,692);
}
);
background = {
anchors = (
{
name = bottom;
pos = (378,0);
},
{
name = top;
pos = (378,692);
}
);
shapes = (
{
closed = 1;
nodes = (
(682,669,o),
(716,701,o),
(716,752,cs),
(716,773,o),
(710,796,o),
(700,821,c),
(680,814,l),
(688,789,o),
(692,768,o),
(692,751,cs),
(692,711,o),
(670,691,o),
(616,690,cs),
(497,687,l),
(497,672,l),
(604,664,l),
(597,671,l),
(597,254,ls),
(597,101,o),
(550,13,o),
(374,13,cs),
(213,13,o),
(159,88,o),
(159,245,cs),
(159,671,l),
(152,663,l),
(259,677,l),
(259,692,l),
(39,687,l),
(39,672,l),
(146,663,l),
(139,671,l),
(139,245,ls),
(139,78,o),
(201,-6,o),
(375,-6,cs),
(562,-6,o),
(617,90,o),
(617,254,cs),
(617,680,l),
(611,670,l)
);
}
);
};
layerId = "075BA79B-D813-4287-A9DD-CCAF2D535ED3";
shapes = (
{
closed = 1;
nodes = (
(682,669,o),
(716,701,o),
(716,752,cs),
(716,773,o),
(710,796,o),
(700,821,c),
(680,814,l),
(688,789,o),
(692,768,o),
(692,751,cs),
(692,711,o),
(670,691,o),
(616,690,cs),
(497,687,l),
(497,672,l),
(604,664,l),
(597,671,l),
(597,254,ls),
(597,101,o),
(550,13,o),
(374,13,cs),
(213,13,o),
(159,88,o),
(159,245,cs),
(159,671,l),
(152,663,l),
(259,677,l),
(259,692,l),
(39,687,l),
(39,672,l),
(146,663,l),
(139,671,l),
(139,245,ls),
(139,78,o),
(201,-6,o),
(375,-6,cs),
(562,-6,o),
(617,90,o),
(617,254,cs),
(617,680,l),
(611,670,l)
);
}
);
width = 741;
},
{
anchors = (
{
name = bottom;
pos = (364,0);
},
{
name = top;
pos = (371,710);
}
);
background = {
anchors = (
{
name = bottom;
pos = (364,0);
},
{
name = top;
pos = (371,710);
}
);
shapes = (
{
closed = 1;
nodes = (
(708,604,o),
(782,665,o),
(782,752,cs),
(782,786,o),
(771,824,o),
(749,867,c),
(607,837,l),
(619,806,o),
(626,779,o),
(626,759,cs),
(626,728,o),
(608,710,o),
(565,709,cs),
(403,705,l),
(403,605,l),
(479,575,l),
(463,621,l),
(463,285,ls),
(463,183,o),
(444,140,o),
(365,140,cs),
(289,140,o),
(273,180,o),
(273,270,cs),
(273,620,l),
(255,572,l),
(333,610,l),
(333,710,l),
(8,705,l),
(8,605,l),
(89,573,l),
(68,620,l),
(68,270,ls),
(68,70,o),
(165,-15,o),
(359,-15,cs),
(555,-15,o),
(668,73,o),
(668,285,cs),
(668,647,l),
(578,609,l)
);
}
);
};
layerId = "927AED37-E9E6-4F96-A08E-421C3785EFC6";
shapes = (
{
closed = 1;
nodes = (
(708,604,o),
(782,665,o),
(782,752,cs),
(782,786,o),
(771,824,o),
(749,867,c),
(607,837,l),
(619,806,o),
(626,779,o),
(626,759,cs),
(626,728,o),
(608,710,o),
(565,709,cs),
(403,705,l),
(403,605,l),
(479,575,l),
(463,621,l),
(463,285,ls),
(463,183,o),
(444,140,o),
(365,140,cs),
(289,140,o),
(273,180,o),
(273,270,cs),
(273,620,l),
(255,572,l),
(333,610,l),
(333,710,l),
(8,705,l),
(8,605,l),
(89,573,l),
(68,620,l),
(68,270,ls),
(68,70,o),
(165,-15,o),
(359,-15,cs),
(555,-15,o),
(668,73,o),
(668,285,cs),
(668,647,l),
(578,609,l)
);
}
);
width = 757;
}
);
metricLeft = U;
unicode = 431;
},
{
glyphname = V;
kernLeft = V;
kernRight = V;
layers = (
{
anchors = (
{
name = bottom;
pos = (338,0);
},
{
name = top;
pos = (338,692);
}
);
background = {
anchors = (
{
name = bottom;
pos = (338,0);
},
{
name = top;
pos = (338,692);
}
);
shapes = (
{
closed = 1;
nodes = (
(343,-2,l),
(578,670,l),
(569,663,l),
(671,677,l),
(671,692,l),
(439,687,l),
(439,672,l),
(561,664,l),
(558,670,l),
(331,19,l),
(336,19,l),
(120,670,l),
(117,663,l),
(239,677,l),
(239,692,l),
(6,687,l),
(6,672,l),
(108,663,l),
(99,670,l),
(323,-2,l)
);
}
);
};
layerId = "075BA79B-D813-4287-A9DD-CCAF2D535ED3";
shapes = (
{
closed = 1;
nodes = (
(343,-2,l),
(578,670,l),
(569,663,l),
(671,677,l),
(671,692,l),
(439,687,l),
(439,672,l),
(561,664,l),
(558,670,l),
(331,19,l),
(336,19,l),
(120,670,l),
(117,663,l),
(239,677,l),
(239,692,l),
(6,687,l),
(6,672,l),
(108,663,l),
(99,670,l),
(323,-2,l)
);
}
);
width = 677;
},
{
anchors = (
{
name = bottom;
pos = (362,0);
},
{
name = top;
pos = (382,710);
}
);
background = {
anchors = (
{
name = bottom;
pos = (362,0);
},
{
name = top;
pos = (382,710);
}
);
shapes = (
{
closed = 1;
nodes = (
(467,0,l),
(684,610,l),
(639,576,l),
(724,610,l),
(724,710,l),
(439,705,l),
(439,605,l),
(515,572,l),
(499,611,l),
(362,177,l),
(390,177,l),
(269,624,l),
(245,575,l),
(330,610,l),
(330,710,l),
(3,705,l),
(3,605,l),
(89,571,l),
(43,605,l),
(249,0,l)
);
}
);
};
layerId = "927AED37-E9E6-4F96-A08E-421C3785EFC6";
shapes = (
{
closed = 1;
nodes = (
(467,0,l),
(684,610,l),
(639,576,l),
(724,610,l),
(724,710,l),
(439,705,l),
(439,605,l),
(515,572,l),
(499,611,l),
(362,177,l),
(390,177,l),
(269,624,l),
(245,575,l),
(330,610,l),
(330,710,l),
(3,705,l),
(3,605,l),
(89,571,l),
(43,605,l),
(249,0,l)
);
}
);
width = 725;
}
);
unicode = 86;
},
{
glyphname = W;
kernLeft = V;
kernRight = V;
layers = (
{
anchors = (
{
name = bottom;
pos = (513,0);
},
{
name = top;
pos = (516,692);
}
);
background = {
anchors = (
{
name = bottom;
pos = (513,0);
},
{
name = top;
pos = (516,692);
}
);
shapes = (
{
closed = 1;
nodes = (
(791,672,l),
(913,664,l),
(908,670,l),
(724,24,l),
(728,24,l),
(525,692,l),
(506,689,l),
(292,22,l),
(296,21,l),
(123,671,l),
(118,663,l),
(241,677,l),
(241,692,l),
(7,687,l),
(7,672,l),
(111,663,l),
(102,671,l),
(281,-2,l),
(304,-2,l),
(517,662,l),
(513,662,l),
(715,-2,l),
(736,-2,l),
(928,670,l),
(919,663,l),
(1020,677,l),
(1020,692,l),
(791,687,l)
);
}
);
};
layerId = "075BA79B-D813-4287-A9DD-CCAF2D535ED3";
shapes = (
{
closed = 1;
nodes = (
(791,672,l),
(913,664,l),
(908,670,l),
(724,24,l),
(728,24,l),
(525,692,l),
(506,689,l),
(292,22,l),
(296,21,l),
(123,671,l),
(118,663,l),
(241,677,l),
(241,692,l),
(7,687,l),
(7,672,l),
(111,663,l),
(102,671,l),
(281,-2,l),
(304,-2,l),
(517,662,l),
(513,662,l),
(715,-2,l),
(736,-2,l),
(928,670,l),
(919,663,l),
(1020,677,l),
(1020,692,l),
(791,687,l)
);
}
);
width = 1027;
},
{
anchors = (
{
name = bottom;
pos = (502,0);
},
{
name = top;
pos = (523,710);
}
);
background = {
anchors = (
{
name = bottom;
pos = (502,0);
},
{
name = top;
pos = (523,710);
}
);
shapes = (
{
closed = 1;
nodes = (
(737,605,l),
(813,575,l),
(797,611,l),
(697,183,l),
(739,184,l),
(612,710,l),
(424,705,l),
(295,182,l),
(337,182,l),
(254,611,l),
(230,575,l),
(299,610,l),
(299,710,l),
(2,705,l),
(2,605,l),
(61,580,l),
(45,611,l),
(204,0,l),
(394,0,l),
(522,465,l),
(485,466,l),
(608,0,l),
(801,0,l),
(976,629,l),
(931,577,l),
(1017,610,l),
(1017,710,l),
(737,705,l)
);
}
);
};
layerId = "927AED37-E9E6-4F96-A08E-421C3785EFC6";
shapes = (
{
closed = 1;
nodes = (
(737,605,l),
(813,575,l),
(797,611,l),
(697,183,l),
(739,184,l),
(612,710,l),
(424,705,l),
(295,182,l),
(337,182,l),
(254,611,l),
(230,575,l),
(299,610,l),
(299,710,l),
(2,705,l),
(2,605,l),
(61,580,l),
(45,611,l),
(204,0,l),
(394,0,l),
(522,465,l),
(485,466,l),
(608,0,l),
(801,0,l),
(976,629,l),
(931,577,l),
(1017,610,l),
(1017,710,l),
(737,705,l)
);
}
);
width = 1018;
}
);
unicode = 87;
},
{
glyphname = X;
kernLeft = X;
kernRight = X;
layers = (
{
background = {
shapes = (
{
closed = 1;
nodes = (
(347,368,l),
(347,356,l),
(553,670,l),
(542,663,l),
(644,677,l),
(644,692,l),
(423,687,l),
(423,672,l),
(536,663,l),
(533,670,l),
(337,371,l),
(345,371,l),
(153,670,l),
(150,663,l),
(262,677,l),
(262,692,l),
(41,687,l),
(41,672,l),
(142,663,l),
(131,670,l),
(336,352,l),
(336,364,l),
(116,21,l),
(127,28,l),
(26,15,l),
(26,0,l),
(252,0,l),
(252,15,l),
(133,28,l),
(136,21,l),
(346,348,l),
(338,348,l),
(548,21,l),
(551,28,l),
(433,15,l),
(433,0,l),
(659,0,l),
(659,15,l),
(559,28,l),
(570,21,l)
);
}
);
};
layerId = "075BA79B-D813-4287-A9DD-CCAF2D535ED3";
shapes = (
{
closed = 1;
nodes = (
(347,368,l),
(347,356,l),
(553,670,l),
(542,663,l),
(644,677,l),
(644,692,l),
(423,687,l),
(423,672,l),
(536,663,l),
(533,670,l),
(337,371,l),
(345,371,l),
(153,670,l),
(150,663,l),
(262,677,l),
(262,692,l),
(41,687,l),
(41,672,l),
(142,663,l),
(131,670,l),
(336,352,l),
(336,364,l),
(116,21,l),
(127,28,l),
(26,15,l),
(26,0,l),
(252,0,l),
(252,15,l),
(133,28,l),
(136,21,l),
(346,348,l),
(338,348,l),
(548,21,l),
(551,28,l),
(433,15,l),
(433,0,l),
(659,0,l),
(659,15,l),
(559,28,l),
(570,21,l)
);
}
);
width = 684;
},
{
background = {
shapes = (
{
closed = 1;
nodes = (
(468,387,l),
(462,339,l),
(676,610,l),
(629,568,l),
(700,610,l),
(700,710,l),
(434,705,l),
(434,605,l),
(499,576,l),
(489,604,l),
(372,449,l),
(416,439,l),
(293,604,l),
(286,580,l),
(347,610,l),
(347,710,l),
(24,705,l),
(24,605,l),
(90,581,l),
(46,610,l),
(261,325,l),
(263,375,l),
(34,89,l),
(86,134,l),
(14,100,l),
(14,0,l),
(283,0,l),
(283,100,l),
(212,135,l),
(221,92,l),
(363,278,l),
(316,276,l),
(454,100,l),
(447,130,l),
(382,100,l),
(382,0,l),
(711,0,l),
(711,100,l),
(638,133,l),
(696,91,l)
);
}
);
};
layerId = "927AED37-E9E6-4F96-A08E-421C3785EFC6";
shapes = (
{
closed = 1;
nodes = (
(468,387,l),
(462,339,l),
(676,610,l),
(629,568,l),
(700,610,l),
(700,710,l),
(434,705,l),
(434,605,l),
(499,576,l),
(489,604,l),
(372,449,l),
(416,439,l),
(293,604,l),
(286,580,l),
(347,610,l),
(347,710,l),
(24,705,l),
(24,605,l),
(90,581,l),
(46,610,l),
(261,325,l),
(263,375,l),
(34,89,l),
(86,134,l),
(14,100,l),
(14,0,l),
(283,0,l),
(283,100,l),
(212,135,l),
(221,92,l),
(363,278,l),
(316,276,l),
(454,100,l),
(447,130,l),
(382,100,l),
(382,0,l),
(711,0,l),
(711,100,l),
(638,133,l),
(696,91,l)
);
}
);
width = 724;
}
);
unicode = 88;
},
{
glyphname = Y;
kernLeft = Y;
kernRight = Y;
layers = (
{
anchors = (
{
name = bottom;
pos = (317,0);
},
{
name = top;
pos = (317,692);
}
);
background = {
anchors = (
{
name = bottom;
pos = (317,0);
},
{
name = top;
pos = (317,692);
}
);
shapes = (
{
closed = 1;
nodes = (
(427,0,l),
(427,15,l),
(320,29,l),
(327,21,l),
(327,268,l),
(323,251,l),
(538,670,l),
(528,663,l),
(630,677,l),
(630,692,l),
(398,687,l),
(398,672,l),
(522,664,l),
(518,670,l),
(315,275,l),
(321,275,l),
(119,670,l),
(115,663,l),
(240,677,l),
(240,692,l),
(5,687,l),
(5,672,l),
(108,663,l),
(98,670,l),
(311,251,l),
(307,268,l),
(307,21,l),
(314,29,l),
(207,15,l),
(207,0,l)
);
}
);
};
layerId = "075BA79B-D813-4287-A9DD-CCAF2D535ED3";
shapes = (
{
closed = 1;
nodes = (
(427,0,l),
(427,15,l),
(320,29,l),
(327,21,l),
(327,268,l),
(323,251,l),
(538,670,l),
(528,663,l),
(630,677,l),
(630,692,l),
(398,687,l),
(398,672,l),
(522,664,l),
(518,670,l),
(315,275,l),
(321,275,l),
(119,670,l),
(115,663,l),
(240,677,l),
(240,692,l),
(5,687,l),
(5,672,l),
(108,663,l),
(98,670,l),
(311,251,l),
(307,268,l),
(307,21,l),
(314,29,l),
(207,15,l),
(207,0,l)
);
}
);
width = 635;
},
{
anchors = (
{
name = bottom;
pos = (327,0);
},
{
name = top;
pos = (333,710);
}
);
background = {
anchors = (
{
name = bottom;
pos = (327,0);
},
{
name = top;
pos = (333,710);
}
);
shapes = (
{
closed = 1;
nodes = (
(490,0,l),
(490,100,l),
(399,135,l),
(426,95,l),
(426,281,l),
(412,216,l),
(620,609,l),
(584,580,l),
(653,610,l),
(653,710,l),
(379,705,l),
(379,605,l),
(454,571,l),
(440,605,l),
(322,354,l),
(360,354,l),
(245,614,l),
(230,580,l),
(301,610,l),
(301,710,l),
(1,705,l),
(1,605,l),
(68,573,l),
(33,603,l),
(238,216,l),
(221,281,l),
(221,95,l),
(247,135,l),
(156,100,l),
(156,0,l)
);
}
);
};
layerId = "927AED37-E9E6-4F96-A08E-421C3785EFC6";
shapes = (
{
closed = 1;
nodes = (
(490,0,l),
(490,100,l),
(399,135,l),
(426,95,l),
(426,281,l),
(412,216,l),
(620,609,l),
(584,580,l),
(653,610,l),
(653,710,l),
(379,705,l),
(379,605,l),
(454,571,l),
(440,605,l),
(322,354,l),
(360,354,l),
(245,614,l),
(230,580,l),
(301,610,l),
(301,710,l),
(1,705,l),
(1,605,l),
(68,573,l),
(33,603,l),
(238,216,l),
(221,281,l),
(221,95,l),
(247,135,l),
(156,100,l),
(156,0,l)
);
}
);
width = 654;
}
);
unicode = 89;
},
{
glyphname = Z;
kernLeft = Z;
kernRight = Z;
layers = (
{
anchors = (
{
name = bottom;
pos = (303,0);
},
{
name = top;
pos = (307,692);
}
);
background = {
anchors = (
{
name = bottom;
pos = (303,0);
},
{
name = top;
pos = (307,692);
}
);
shapes = (
{
closed = 1;
nodes = (
(545,0,l),
(549,145,l),
(534,145,l),
(515,13,l),
(527,20,l),
(76,20,l),
(79,14,l),
(542,676,l),
(542,692,l),
(77,692,l),
(77,547,l),
(92,547,l),
(108,679,l),
(99,672,l),
(522,672,l),
(519,678,l),
(54,16,l),
(54,0,l)
);
}
);
};
layerId = "075BA79B-D813-4287-A9DD-CCAF2D535ED3";
shapes = (
{
closed = 1;
nodes = (
(545,0,l),
(549,145,l),
(534,145,l),
(515,13,l),
(527,20,l),
(76,20,l),
(79,14,l),
(542,676,l),
(542,692,l),
(77,692,l),
(77,547,l),
(92,547,l),
(108,679,l),
(99,672,l),
(522,672,l),
(519,678,l),
(54,16,l),
(54,0,l)
);
}
);
width = 610;
},
{
anchors = (
{
name = bottom;
pos = (316,0);
},
{
name = top;
pos = (316,710);
}
);
background = {
anchors = (
{
name = bottom;
pos = (316,0);
},
{
name = top;
pos = (316,710);
}
);
shapes = (
{
closed = 1;
nodes = (
(597,0,l),
(597,230,l),
(475,230,l),
(455,120,l),
(494,147,l),
(241,147,l),
(247,117,l),
(594,576,l),
(594,710,l),
(47,710,l),
(47,480,l),
(167,480,l),
(194,583,l),
(149,563,l),
(393,563,l),
(372,585,l),
(24,135,l),
(24,0,l)
);
}
);
};
layerId = "927AED37-E9E6-4F96-A08E-421C3785EFC6";
shapes = (
{
closed = 1;
nodes = (
(597,0,l),
(597,230,l),
(475,230,l),
(455,120,l),
(494,147,l),
(241,147,l),
(247,117,l),
(594,576,l),
(594,710,l),
(47,710,l),
(47,480,l),
(167,480,l),
(194,583,l),
(149,563,l),
(393,563,l),
(372,585,l),
(24,135,l),
(24,0,l)
);
}
);
width = 630;
}
);
unicode = 90;
},
{
glyphname = Q.alt;
kernLeft = O;
kernRight = O;
layers = (
{
anchors = (
{
name = bottom;
pos = (385,0);
},
{
name = top;
pos = (385,692);
}
);
background = {
anchors = (
{
name = bottom;
pos = (385,0);
},
{
name = top;
pos = (385,692);
}
);
shapes = (
{
closed = 1;
nodes = (
(702,-154,o),
(735,-138,o),
(790,-105,c),
(756,-139,l),
(740,-104,l),
(780,-90,l),
(729,-120,o),
(698,-134,o),
(666,-134,cs),
(608,-134,o),
(543,-89,o),
(401,-2,c),
(403,-5,l),
(563,8,o),
(691,135,o),
(691,356,cs),
(691,591,o),
(546,698,o),
(389,698,cs),
(225,698,o),
(79,581,o),
(79,341,cs),
(79,109,o),
(214,-4,o),
(373,-6,c),
(362,-2,l),
(528,-104,o),
(603,-154,o),
(666,-154,cs)
);
},
{
closed = 1;
nodes = (
(229,14,o),
(101,121,o),
(101,342,cs),
(101,568,o),
(235,678,o),
(388,678,cs),
(539,678,o),
(669,570,o),
(669,353,cs),
(669,129,o),
(532,14,o),
(378,14,cs)
);
}
);
};
layerId = "075BA79B-D813-4287-A9DD-CCAF2D535ED3";
shapes = (
{
closed = 1;
nodes = (
(702,-154,o),
(735,-138,o),
(790,-105,c),
(756,-139,l),
(740,-104,l),
(780,-90,l),
(729,-120,o),
(698,-134,o),
(666,-134,cs),
(608,-134,o),
(543,-89,o),
(401,-2,c),
(403,-5,l),
(563,8,o),
(691,135,o),
(691,356,cs),
(691,591,o),
(546,698,o),
(389,698,cs),
(225,698,o),
(79,581,o),
(79,341,cs),
(79,109,o),
(214,-4,o),
(373,-6,c),
(362,-2,l),
(528,-104,o),
(603,-154,o),
(666,-154,cs)
);
},
{
closed = 1;
nodes = (
(229,14,o),
(101,121,o),
(101,342,cs),
(101,568,o),
(235,678,o),
(388,678,cs),
(539,678,o),
(669,570,o),
(669,353,cs),
(669,129,o),
(532,14,o),
(378,14,cs)
);
}
);
width = 770;
},
{
anchors = (
{
name = bottom;
pos = (361,0);
},
{
name = top;
pos = (361,710);
}
);
background = {
anchors = (
{
name = bottom;
pos = (361,0);
},
{
name = top;
pos = (361,710);
}
);
shapes = (
{
closed = 1;
nodes = (
(687,-213,o),
(759,-175,o),
(871,-96,c),
(713,-245,l),
(664,-18,l),
(799,-2,l),
(714,-36,o),
(667,-53,o),
(627,-53,cs),
(578,-53,o),
(543,-28,o),
(471,26,c),
(465,3,l),
(609,39,o),
(700,182,o),
(700,371,cs),
(700,594,o),
(585,725,o),
(369,725,cs),
(153,725,o),
(23,594,o),
(23,345,cs),
(23,114,o),
(135,-13,o),
(341,-15,c),
(297,0,l),
(456,-143,o),
(527,-213,o),
(619,-213,cs)
);
},
{
closed = 1;
nodes = (
(273,140,o),
(243,194,o),
(243,351,cs),
(243,514,o),
(273,570,o),
(360,570,cs),
(449,570,o),
(480,517,o),
(480,363,cs),
(480,197,o),
(449,140,o),
(359,140,cs)
);
}
);
};
layerId = "927AED37-E9E6-4F96-A08E-421C3785EFC6";
shapes = (
{
closed = 1;
nodes = (
(687,-213,o),
(759,-175,o),
(871,-96,c),
(713,-245,l),
(664,-18,l),
(799,-2,l),
(714,-36,o),
(667,-53,o),
(627,-53,cs),
(578,-53,o),
(543,-28,o),
(471,26,c),
(465,3,l),
(609,39,o),
(700,182,o),
(700,371,cs),
(700,594,o),
(585,725,o),
(369,725,cs),
(153,725,o),
(23,594,o),
(23,345,cs),
(23,114,o),
(135,-13,o),
(341,-15,c),
(297,0,l),
(456,-143,o),
(527,-213,o),
(619,-213,cs)
);
},
{
closed = 1;
nodes = (
(273,140,o),
(243,194,o),
(243,351,cs),
(243,514,o),
(273,570,o),
(360,570,cs),
(449,570,o),
(480,517,o),
(480,363,cs),
(480,197,o),
(449,140,o),
(359,140,cs)
);
}
);
width = 722;
}
);
},
{
export = 0;
glyphname = A.ogonekAccent;
kernLeft = A;
kernRight = A;
layers = (
{
anchors = (
{
name = bottom;
pos = (354,0);
},
{
name = ogonek;
pos = (611,0);
},
{
name = top;
pos = (359,692);
}
);
background = {
anchors = (
{
name = bottom;
pos = (354,0);
},
{
name = ogonek;
pos = (611,0);
},
{
name = top;
pos = (359,692);
}
);
shapes = (
{
closed = 1;
nodes = (
(368,693,l),
(349,691,l),
(97,22,l),
(105,29,l),
(6,15,l),
(6,0,l),
(235,0,l),
(235,15,l),
(113,29,l),
(118,22,l),
(189,213,l),
(179,206,l),
(525,206,l),
(517,211,l),
(591,0,l),
(698,0,l),
(698,15,l),
(596,29,l),
(605,22,l)
);
},
{
closed = 1;
nodes = (
(360,672,l),
(356,672,l),
(514,220,l),
(518,225,l),
(185,225,l),
(191,219,l)
);
}
);
};
layerId = "075BA79B-D813-4287-A9DD-CCAF2D535ED3";
shapes = (
{
closed = 1;
nodes = (
(368,693,l),
(349,691,l),
(97,22,l),
(105,29,l),
(6,15,l),
(6,0,l),
(235,0,l),
(235,15,l),
(113,29,l),
(118,22,l),
(189,213,l),
(179,206,l),
(525,206,l),
(517,211,l),
(591,0,l),
(698,0,l),
(698,15,l),
(596,29,l),
(605,22,l)
);
},
{
closed = 1;
nodes = (
(360,672,l),
(356,672,l),
(514,220,l),
(518,225,l),
(185,225,l),
(191,219,l)
);
}
);
width = 704;
},
{
anchors = (
{
name = bottom;
pos = (341,0);
},
{
name = ogonek;
pos = (581,0);
},
{
name = top;
pos = (365,710);
}
);
background = {
anchors = (
{
name = bottom;
pos = (341,0);
},
{
name = ogonek;
pos = (581,0);
},
{
name = top;
pos = (365,710);
}
);
shapes = (
{
closed = 1;
nodes = (
(471,713,l),
(260,708,l),
(32,94,l),
(77,133,l),
(1,100,l),
(1,0,l),
(279,0,l),
(279,100,l),
(219,127,l),
(223,108,l),
(252,202,l),
(231,180,l),
(455,180,l),
(426,205,l),
(481,0,l),
(716,0,l),
(716,100,l),
(638,135,l),
(689,89,l)
);
},
{
closed = 1;
nodes = (
(375,604,l),
(327,605,l),
(404,289,l),
(423,320,l),
(268,320,l),
(280,294,l)
);
}
);
};
layerId = "927AED37-E9E6-4F96-A08E-421C3785EFC6";
shapes = (
{
closed = 1;
nodes = (
(471,713,l),
(260,708,l),
(32,94,l),
(77,133,l),
(1,100,l),
(1,0,l),
(279,0,l),
(279,100,l),
(219,127,l),
(223,108,l),
(252,202,l),
(231,180,l),
(455,180,l),
(426,205,l),
(481,0,l),
(716,0,l),
(716,100,l),
(638,135,l),
(689,89,l)
);
},
{
closed = 1;
nodes = (
(375,604,l),
(327,605,l),
(404,289,l),
(423,320,l),
(268,320,l),
(280,294,l)
);
}
);
width = 718;
}
);
},
{
color = 9;
glyphname = T_h;
kernLeft = T;
kernRight = n;
layers = (
{
background = {
shapes = (
{
closed = 1;
nodes = (
(399,0,l),
(399,15,l),
(277,29,l),
(284,21,l),
(284,680,l),
(277,673,l),
(604,673,l),
(604,692,l),
(33,692,l),
(33,547,l),
(48,547,l),
(63,680,l),
(55,673,l),
(271,673,l),
(264,680,l),
(264,21,l),
(271,29,l),
(149,15,l),
(149,0,l)
);
},
{
closed = 1;
nodes = (
(712,0,l),
(712,15,l),
(615,29,l),
(622,21,l),
(622,414,l),
(618,403,l),
(687,476,o),
(764,509,o),
(826,509,cs),
(905,509,o),
(957,463,o),
(955,363,cs),
(955,21,l),
(962,29,l),
(865,15,l),
(865,0,l),
(1065,0,l),
(1065,15,l),
(968,29,l),
(975,21,l),
(975,368,ls),
(977,477,o),
(915,528,o),
(827,528,cs),
(762,528,o),
(685,497,o),
(618,427,c),
(622,424,l),
(622,765,l),
(602,760,l),
(602,21,l),
(609,29,l),
(512,15,l),
(512,0,l)
);
}
);
};
layerId = "075BA79B-D813-4287-A9DD-CCAF2D535ED3";
shapes = (
{
closed = 1;
nodes = (
(399,0,l),
(399,15,l),
(277,29,l),
(284,21,l),
(284,680,l),
(277,673,l),
(604,673,l),
(604,692,l),
(33,692,l),
(33,547,l),
(48,547,l),
(63,680,l),
(55,673,l),
(271,673,l),
(264,680,l),
(264,21,l),
(271,29,l),
(149,15,l),
(149,0,l)
);
},
{
closed = 1;
nodes = (
(712,0,l),
(712,15,l),
(615,29,l),
(622,21,l),
(622,414,l),
(618,403,l),
(687,476,o),
(764,509,o),
(826,509,cs),
(905,509,o),
(957,463,o),
(955,363,cs),
(955,21,l),
(962,29,l),
(865,15,l),
(865,0,l),
(1065,0,l),
(1065,15,l),
(968,29,l),
(975,21,l),
(975,368,ls),
(977,477,o),
(915,528,o),
(827,528,cs),
(762,528,o),
(685,497,o),
(618,427,c),
(622,424,l),
(622,765,l),
(602,760,l),
(602,21,l),
(609,29,l),
(512,15,l),
(512,0,l)
);
}
);
width = 1089;
},
{
background = {
shapes = (
{
closed = 1;
nodes = (
(484,0,l),
(484,100,l),
(391,135,l),
(424,85,l),
(424,595,l),
(384,565,l),
(629,565,l),
(629,710,l),
(14,710,l),
(14,474,l),
(134,474,l),
(166,603,l),
(122,565,l),
(259,565,l),
(219,595,l),
(219,85,l),
(254,135,l),
(149,100,l),
(149,0,l)
);
},
{
closed = 1;
nodes = (
(809,0,l),
(809,100,l),
(748,126,l),
(764,99,l),
(764,394,l),
(752,366,l),
(782,392,o),
(813,405,o),
(837,405,cs),
(865,405,o),
(884,387,o),
(884,350,cs),
(884,99,l),
(905,127,l),
(839,100,l),
(839,0,l),
(1129,0,l),
(1129,100,l),
(1068,129,l),
(1084,103,l),
(1084,388,ls),
(1084,492,o),
(1015,555,o),
(927,555,cs),
(864,555,o),
(790,524,o),
(726,461,c),
(764,453,l),
(764,785,l),
(564,775,l),
(564,103,l),
(586,130,l),
(509,100,l),
(509,0,l)
);
}
);
};
layerId = "927AED37-E9E6-4F96-A08E-421C3785EFC6";
shapes = (
{
closed = 1;
nodes = (
(484,0,l),
(484,100,l),
(391,135,l),
(424,85,l),
(424,595,l),
(384,565,l),
(629,565,l),
(629,710,l),
(14,710,l),
(14,474,l),
(134,474,l),
(166,603,l),
(122,565,l),
(259,565,l),
(219,595,l),
(219,85,l),
(254,135,l),
(149,100,l),
(149,0,l)
);
},
{
closed = 1;
nodes = (
(809,0,l),
(809,100,l),
(748,126,l),
(764,99,l),
(764,394,l),
(752,366,l),
(782,392,o),
(813,405,o),
(837,405,cs),
(865,405,o),
(884,387,o),
(884,350,cs),
(884,99,l),
(905,127,l),
(839,100,l),
(839,0,l),
(1129,0,l),
(1129,100,l),
(1068,129,l),
(1084,103,l),
(1084,388,ls),
(1084,492,o),
(1015,555,o),
(927,555,cs),
(864,555,o),
(790,524,o),
(726,461,c),
(764,453,l),
(764,785,l),
(564,775,l),
(564,103,l),
(586,130,l),
(509,100,l),
(509,0,l)
);
}
);
width = 1132;
}
);
metricLeft = T;
metricRight = h;
},
{
color = 9;
glyphname = T_h.bolder;
kernLeft = T;
kernRight = n;
layers = (
{
background = {
shapes = (
{
closed = 1;
nodes = (
(399,0,l),
(399,15,l),
(277,29,l),
(284,21,l),
(284,680,l),
(277,673,l),
(604,673,l),
(604,692,l),
(33,692,l),
(33,547,l),
(48,547,l),
(63,680,l),
(55,673,l),
(271,673,l),
(264,680,l),
(264,21,l),
(271,29,l),
(149,15,l),
(149,0,l)
);
},
{
closed = 1;
nodes = (
(712,0,l),
(712,15,l),
(615,29,l),
(622,21,l),
(622,414,l),
(618,403,l),
(687,476,o),
(764,509,o),
(826,509,cs),
(905,509,o),
(957,463,o),
(955,363,cs),
(955,0,l),
(1065,0,l),
(1065,15,l),
(968,29,l),
(975,21,l),
(975,368,ls),
(977,477,o),
(915,528,o),
(827,528,cs),
(762,528,o),
(685,497,o),
(618,427,c),
(622,424,l),
(622,765,l),
(602,760,l),
(602,0,l)
);
}
);
};
layerId = "075BA79B-D813-4287-A9DD-CCAF2D535ED3";
shapes = (
{
closed = 1;
nodes = (
(399,0,l),
(399,15,l),
(277,29,l),
(284,21,l),
(284,680,l),
(277,673,l),
(604,673,l),
(604,692,l),
(33,692,l),
(33,547,l),
(48,547,l),
(63,680,l),
(55,673,l),
(271,673,l),
(264,680,l),
(264,21,l),
(271,29,l),
(149,15,l),
(149,0,l)
);
},
{
closed = 1;
nodes = (
(712,0,l),
(712,15,l),
(615,29,l),
(622,21,l),
(622,414,l),
(618,403,l),
(687,476,o),
(764,509,o),
(826,509,cs),
(905,509,o),
(957,463,o),
(955,363,cs),
(955,0,l),
(1065,0,l),
(1065,15,l),
(968,29,l),
(975,21,l),
(975,368,ls),
(977,477,o),
(915,528,o),
(827,528,cs),
(762,528,o),
(685,497,o),
(618,427,c),
(622,424,l),
(622,765,l),
(602,760,l),
(602,0,l)
);
}
);
width = 1089;
},
{
background = {
shapes = (
{
closed = 1;
nodes = (
(484,0,l),
(484,100,l),
(391,135,l),
(424,85,l),
(424,595,l),
(384,565,l),
(629,565,l),
(629,710,l),
(14,710,l),
(14,474,l),
(134,474,l),
(166,603,l),
(122,565,l),
(259,565,l),
(219,595,l),
(219,85,l),
(254,135,l),
(149,100,l),
(149,0,l)
);
},
{
closed = 1;
nodes = (
(809,0,l),
(809,100,l),
(748,126,l),
(764,99,l),
(764,394,l),
(752,366,l),
(782,392,o),
(813,405,o),
(837,405,cs),
(865,405,o),
(884,387,o),
(884,350,cs),
(884,0,l),
(1129,0,l),
(1129,100,l),
(1068,129,l),
(1084,103,l),
(1084,388,ls),
(1084,492,o),
(1015,555,o),
(927,555,cs),
(864,555,o),
(790,524,o),
(726,461,c),
(764,453,l),
(764,785,l),
(564,775,l),
(564,0,l)
);
}
);
};
layerId = "927AED37-E9E6-4F96-A08E-421C3785EFC6";
shapes = (
{
closed = 1;
nodes = (
(484,0,l),
(484,100,l),
(391,135,l),
(424,85,l),
(424,595,l),
(384,565,l),
(629,565,l),
(629,710,l),
(14,710,l),
(14,474,l),
(134,474,l),
(166,603,l),
(122,565,l),
(259,565,l),
(219,595,l),
(219,85,l),
(254,135,l),
(149,100,l),
(149,0,l)
);
},
{
closed = 1;
nodes = (
(809,0,l),
(809,100,l),
(748,126,l),
(764,99,l),
(764,394,l),
(752,366,l),
(782,392,o),
(813,405,o),
(837,405,cs),
(865,405,o),
(884,387,o),
(884,350,cs),
(884,0,l),
(1129,0,l),
(1129,100,l),
(1068,129,l),
(1084,103,l),
(1084,388,ls),
(1084,492,o),
(1015,555,o),
(927,555,cs),
(864,555,o),
(790,524,o),
(726,461,c),
(764,453,l),
(764,785,l),
(564,775,l),
(564,0,l)
);
}
);
width = 1132;
}
);
metricLeft = T;
metricRight = h;
},
{
color = 0;
glyphname = a;
kernLeft = a;
kernRight = n;
layers = (
{
anchors = (
{
name = bottom;
pos = (268,0);
},
{
name = ogonek;
pos = (429,0);
},
{
name = top;
pos = (260,522);
}
);
background = {
anchors = (
{
name = bottom;
pos = (268,0);
},
{
name = ogonek;
pos = (429,0);
},
{
name = top;
pos = (260,522);
}
);
shapes = (
{
closed = 1;
nodes = (
(419,394,ls),
(419,490,o),
(358,528,o),
(268,528,cs),
(216,528,o),
(155,515,o),
(93,491,c),
(101,392,l),
(118,392,l),
(125,490,l),
(118,479,l),
(171,499,o),
(223,509,o),
(267,509,cs),
(347,509,o),
(399,475,o),
(399,391,cs),
(399,268,l),
(406,275,l),
(248,275,ls),
(149,275,o),
(70,254,o),
(70,136,cs),
(70,40,o),
(122,-6,o),
(198,-6,cs),
(266,-6,o),
(342,30,o),
(404,91,c),
(400,94,l),
(404,-2,l),
(509,2,l),
(509,17,l),
(412,27,l),
(419,19,l)
);
},
{
closed = 1;
nodes = (
(91,227,o),
(137,256,o),
(250,256,cs),
(406,256,l),
(399,263,l),
(399,99,l),
(404,110,l),
(337,48,o),
(261,13,o),
(201,13,cs),
(137,13,o),
(91,53,o),
(91,140,cs)
);
}
);
};
layerId = "075BA79B-D813-4287-A9DD-CCAF2D535ED3";
shapes = (
{
closed = 1;
nodes = (
(419,394,ls),
(419,490,o),
(358,528,o),
(268,528,cs),
(216,528,o),
(155,515,o),
(93,491,c),
(101,392,l),
(118,392,l),
(125,490,l),
(118,479,l),
(171,499,o),
(223,509,o),
(267,509,cs),
(347,509,o),
(399,475,o),
(399,391,cs),
(399,268,l),
(406,275,l),
(248,275,ls),
(149,275,o),
(70,254,o),
(70,136,cs),
(70,40,o),
(122,-6,o),
(198,-6,cs),
(266,-6,o),
(342,30,o),
(404,91,c),
(400,94,l),
(404,-2,l),
(509,2,l),
(509,17,l),
(412,27,l),
(419,19,l)
);
},
{
closed = 1;
nodes = (
(91,227,o),
(137,256,o),
(250,256,cs),
(406,256,l),
(399,263,l),
(399,99,l),
(404,110,l),
(337,48,o),
(261,13,o),
(201,13,cs),
(137,13,o),
(91,53,o),
(91,140,cs)
);
}
);
width = 534;
},
{
anchors = (
{
name = bottom;
pos = (287,0);
},
{
name = ogonek;
pos = (482,0);
},
{
name = top;
pos = (287,540);
}
);
background = {
anchors = (
{
name = bottom;
pos = (287,0);
},
{
name = ogonek;
pos = (482,0);
},
{
name = top;
pos = (287,540);
}
);
shapes = (
{
closed = 1;
nodes = (
(517,376,ls),
(517,497,o),
(448,555,o),
(305,555,cs),
(236,555,o),
(150,542,o),
(46,515,c),
(54,348,l),
(174,348,l),
(190,419,l),
(175,401,l),
(203,407,o),
(229,410,o),
(249,410,cs),
(297,410,o),
(317,390,o),
(317,339,cs),
(317,303,l),
(327,313,l),
(239,313,ls),
(85,313,o),
(15,263,o),
(15,154,cs),
(15,51,o),
(77,-15,o),
(174,-15,cs),
(244,-15,o),
(303,18,o),
(348,81,c),
(336,84,l),
(361,-10,l),
(572,0,l),
(572,100,l),
(491,136,l),
(517,97,l)
);
},
{
closed = 1;
nodes = (
(215,211,o),
(230,223,o),
(272,223,cs),
(328,223,l),
(317,234,l),
(317,135,l),
(323,157,l),
(304,136,o),
(280,124,o),
(259,124,cs),
(234,124,o),
(215,141,o),
(215,178,cs)
);
}
);
};
layerId = "927AED37-E9E6-4F96-A08E-421C3785EFC6";
shapes = (
{
closed = 1;
nodes = (
(517,376,ls),
(517,497,o),
(448,555,o),
(305,555,cs),
(236,555,o),
(150,542,o),
(46,515,c),
(54,348,l),
(174,348,l),
(190,419,l),
(175,401,l),
(203,407,o),
(229,410,o),
(249,410,cs),
(297,410,o),
(317,390,o),
(317,339,cs),
(317,303,l),
(327,313,l),
(239,313,ls),
(85,313,o),
(15,263,o),
(15,154,cs),
(15,51,o),
(77,-15,o),
(174,-15,cs),
(244,-15,o),
(303,18,o),
(348,81,c),
(336,84,l),
(361,-10,l),
(572,0,l),
(572,100,l),
(491,136,l),
(517,97,l)
);
},
{
closed = 1;
nodes = (
(215,211,o),
(230,223,o),
(272,223,cs),
(328,223,l),
(317,234,l),
(317,135,l),
(323,157,l),
(304,136,o),
(280,124,o),
(259,124,cs),
(234,124,o),
(215,141,o),
(215,178,cs)
);
}
);
width = 575;
},
{
anchors = (
{
name = bottom;
pos = (273,0);
},
{
name = ogonek;
pos = (534,1);
},
{
name = top;
pos = (269,530);
}
);
associatedMasterId = "075BA79B-D813-4287-A9DD-CCAF2D535ED3";
attr = {
coordinates = (
100
);
};
background = {
shapes = (
{
closed = 1;
nodes = (
(459,386,ls),
(459,493,o),
(394,540,o),
(282,540,cs),
(223,540,o),
(155,527,o),
(74,502,c),
(82,374,l),
(145,374,l),
(156,458,l),
(145,444,l),
(187,458,o),
(224,465,o),
(257,465,cs),
(321,465,o),
(359,437,o),
(359,368,cs),
(359,282,l),
(368,293,l),
(246,293,ls),
(124,293,o),
(45,257,o),
(45,142,cs),
(45,44,o),
(104,-10,o),
(188,-10,cs),
(254,-10,o),
(320,23,o),
(376,87,c),
(368,90,l),
(382,-6,l),
(534,1,l),
(534,54,l),
(444,75,l),
(459,54,l)
);
},
{
closed = 1;
nodes = (
(146,206,o),
(174,233,o),
(262,233,cs),
(368,233,l),
(359,241,l),
(359,115,l),
(365,139,l),
(319,94,o),
(264,63,o),
(222,63,cs),
(178,63,o),
(146,91,o),
(146,154,cs)
);
}
);
};
layerId = "91C4189D-5999-4309-A290-3D294E67BEB4";
name = "{100}";
shapes = (
{
closed = 1;
nodes = (
(459,386,ls),
(459,493,o),
(394,540,o),
(282,540,cs),
(223,540,o),
(155,527,o),
(74,502,c),
(82,369,l),
(148,369,l),
(159,458,l),
(145,444,l),
(187,458,o),
(224,465,o),
(257,465,cs),
(321,465,o),
(359,437,o),
(359,368,cs),
(359,282,l),
(368,293,l),
(246,293,ls),
(124,293,o),
(45,257,o),
(45,142,cs),
(45,41,o),
(108,-10,o),
(186,-10,cs),
(248,-10,o),
(319,22,o),
(376,87,c),
(368,90,l),
(382,-6,l),
(534,1,l),
(534,54,l),
(444,75,l),
(459,54,l)
);
},
{
closed = 1;
nodes = (
(146,202,o),
(174,229,o),
(262,229,cs),
(368,229,l),
(359,239,l),
(359,115,l),
(365,140,l),
(317,94,o),
(263,65,o),
(220,65,cs),
(177,65,o),
(146,91,o),
(146,149,cs)
);
}
);
width = 551;
}
);
unicode = 97;
},
{
color = 0;
glyphname = ae;
kernLeft = a;
kernRight = e;
layers = (
{
anchors = (
{
name = bottom;
pos = (446,0);
},
{
name = top;
pos = (446,522);
}
);
background = {
anchors = (
{
name = bottom;
pos = (446,0);
},
{
name = top;
pos = (446,522);
}
);
shapes = (
{
closed = 1;
nodes = (
(118,392,l),
(125,490,l),
(118,479,l),
(176,499,o),
(227,508,o),
(268,508,cs),
(352,508,o),
(399,468,o),
(399,391,cs),
(399,274,l),
(408,283,l),
(249,283,ls),
(125,283,o),
(70,238,o),
(70,137,cs),
(70,43,o),
(139,-6,o),
(221,-6,cs),
(294,-6,o),
(378,32,o),
(434,112,c),
(426,114,l),
(460,38,o),
(528,-6,o),
(612,-6,cs),
(676,-6,o),
(746,19,o),
(815,67,c),
(804,83,l),
(741,38,o),
(676,14,o),
(616,14,cs),
(495,14,o),
(420,107,o),
(420,256,cs),
(420,273,l),
(411,264,l),
(813,264,l),
(814,274,o),
(814,276,o),
(814,296,cs),
(814,443,o),
(745,528,o),
(624,528,cs),
(526,528,o),
(450,472,o),
(417,374,c),
(419,371,l),
(419,394,ls),
(419,482,o),
(364,528,o),
(270,528,cs),
(221,528,o),
(161,515,o),
(93,491,c),
(101,392,l)
);
},
{
closed = 1;
nodes = (
(427,132,l),
(375,53,o),
(293,13,o),
(223,13,cs),
(151,13,o),
(91,56,o),
(91,140,cs),
(91,228,o),
(137,264,o),
(251,264,cs),
(408,264,l),
(399,273,l),
(399,205,o),
(406,158,o),
(423,120,c)
);
},
{
closed = 1;
nodes = (
(426,419,o),
(504,509,o),
(623,509,cs),
(736,509,o),
(795,428,o),
(793,276,c),
(802,283,l),
(412,283,l),
(421,276,l)
);
}
);
};
guides = (
{
pos = (543,264);
},
{
pos = (543,283);
}
);
layerId = "075BA79B-D813-4287-A9DD-CCAF2D535ED3";
shapes = (
{
closed = 1;
nodes = (
(118,392,l),
(125,490,l),
(118,479,l),
(176,499,o),
(227,508,o),
(268,508,cs),
(352,508,o),
(399,468,o),
(399,391,cs),
(399,274,l),
(408,283,l),
(249,283,ls),
(125,283,o),
(70,238,o),
(70,137,cs),
(70,43,o),
(139,-6,o),
(221,-6,cs),
(294,-6,o),
(378,32,o),
(434,112,c),
(426,114,l),
(460,38,o),
(528,-6,o),
(612,-6,cs),
(676,-6,o),
(746,19,o),
(815,67,c),
(804,83,l),
(741,38,o),
(676,14,o),
(616,14,cs),
(495,14,o),
(420,107,o),
(420,256,cs),
(420,273,l),
(411,264,l),
(813,264,l),
(814,274,o),
(814,276,o),
(814,296,cs),
(814,443,o),
(745,528,o),
(624,528,cs),
(526,528,o),
(450,472,o),
(417,374,c),
(419,371,l),
(419,394,ls),
(419,482,o),
(364,528,o),
(270,528,cs),
(221,528,o),
(161,515,o),
(93,491,c),
(101,392,l)
);
},
{
closed = 1;
nodes = (
(427,132,l),
(375,53,o),
(293,13,o),
(223,13,cs),
(151,13,o),
(91,56,o),
(91,140,cs),
(91,228,o),
(137,264,o),
(251,264,cs),
(408,264,l),
(399,273,l),
(399,205,o),
(406,158,o),
(423,120,c)
);
},
{
closed = 1;
nodes = (
(426,419,o),
(504,509,o),
(623,509,cs),
(736,509,o),
(795,428,o),
(793,276,c),
(802,283,l),
(412,283,l),
(421,276,l)
);
}
);
width = 881;
},
{
anchors = (
{
name = bottom;
pos = (421,0);
},
{
name = top;
pos = (421,540);
}
);
background = {
anchors = (
{
name = bottom;
pos = (421,0);
},
{
name = top;
pos = (421,540);
}
);
shapes = (
{
closed = 1;
nodes = (
(174,351,l),
(190,419,l),
(175,402,l),
(204,408,o),
(228,411,o),
(247,411,cs),
(298,411,o),
(317,389,o),
(317,339,cs),
(317,303,l),
(327,316,l),
(233,316,ls),
(85,316,o),
(15,263,o),
(15,151,cs),
(15,43,o),
(97,-15,o),
(192,-15,cs),
(269,-15,o),
(354,24,o),
(411,105,c),
(363,105,l),
(399,29,o),
(473,-14,o),
(569,-14,cs),
(653,-14,o),
(740,15,o),
(818,68,c),
(753,172,l),
(703,146,o),
(653,131,o),
(617,131,cs),
(562,131,o),
(525,168,o),
(519,229,cs),
(518,241,l),
(508,221,l),
(818,221,l),
(824,243,o),
(827,275,o),
(827,311,cs),
(827,465,o),
(741,555,o),
(596,555,cs),
(533,555,o),
(474,534,o),
(431,496,c),
(448,481,l),
(436,500,ls),
(413,537,o),
(365,555,o),
(291,555,cs),
(228,555,o),
(146,542,o),
(46,515,c),
(54,351,l)
);
},
{
closed = 1;
nodes = (
(325,151,l),
(300,133,o),
(277,124,o),
(259,124,cs),
(232,124,o),
(215,143,o),
(215,177,cs),
(215,210,o),
(230,221,o),
(276,221,cs),
(327,221,l),
(317,233,l),
(317,201,o),
(317,170,o),
(317,138,c)
);
},
{
closed = 1;
nodes = (
(516,380,o),
(534,415,o),
(575,415,cs),
(610,415,o),
(621,390,o),
(621,307,c),
(631,316,l),
(504,316,l),
(516,298,l)
);
}
);
};
guides = (
{
pos = (416,221);
},
{
pos = (416,316);
}
);
layerId = "927AED37-E9E6-4F96-A08E-421C3785EFC6";
shapes = (
{
closed = 1;
nodes = (
(174,351,l),
(190,419,l),
(175,402,l),
(204,408,o),
(228,411,o),
(247,411,cs),
(298,411,o),
(317,389,o),
(317,339,cs),
(317,303,l),
(327,316,l),
(233,316,ls),
(85,316,o),
(15,263,o),
(15,151,cs),
(15,43,o),
(97,-15,o),
(192,-15,cs),
(269,-15,o),
(354,24,o),
(411,105,c),
(363,105,l),
(399,29,o),
(473,-14,o),
(569,-14,cs),
(653,-14,o),
(740,15,o),
(818,68,c),
(753,172,l),
(703,146,o),
(653,131,o),
(617,131,cs),
(562,131,o),
(525,168,o),
(519,229,cs),
(518,241,l),
(508,221,l),
(818,221,l),
(824,243,o),
(827,275,o),
(827,311,cs),
(827,465,o),
(741,555,o),
(596,555,cs),
(533,555,o),
(474,534,o),
(431,496,c),
(448,481,l),
(436,500,ls),
(413,537,o),
(365,555,o),
(291,555,cs),
(228,555,o),
(146,542,o),
(46,515,c),
(54,351,l)
);
},
{
closed = 1;
nodes = (
(325,151,l),
(300,133,o),
(277,124,o),
(259,124,cs),
(232,124,o),
(215,143,o),
(215,177,cs),
(215,210,o),
(230,221,o),
(276,221,cs),
(327,221,l),
(317,233,l),
(317,201,o),
(317,170,o),
(317,138,c)
);
},
{
closed = 1;
nodes = (
(516,380,o),
(534,415,o),
(575,415,cs),
(610,415,o),
(621,390,o),
(621,307,c),
(631,316,l),
(504,316,l),
(516,298,l)
);
}
);
width = 845;
},
{
anchors = (
{
name = bottom;
pos = (435,0);
},
{
name = top;
pos = (435,530);
}
);
associatedMasterId = "075BA79B-D813-4287-A9DD-CCAF2D535ED3";
attr = {
coordinates = (
100
);
};
background = {
shapes = (
{
closed = 1;
nodes = (
(462,386,ls),
(462,493,o),
(397,540,o),
(285,540,cs),
(226,540,o),
(158,527,o),
(77,502,c),
(85,374,l),
(148,374,l),
(159,458,l),
(148,444,l),
(190,458,o),
(227,465,o),
(260,465,cs),
(324,465,o),
(362,437,o),
(362,368,cs),
(362,282,l),
(371,293,l),
(249,293,ls),
(127,293,o),
(48,257,o),
(48,142,cs),
(48,41,o),
(111,-10,o),
(189,-10,cs),
(251,-10,o),
(322,22,o),
(379,87,c),
(371,90,l),
(385,-6,l),
(537,1,l),
(537,54,l),
(447,75,l),
(462,54,l)
);
},
{
closed = 1;
nodes = (
(149,204,o),
(177,231,o),
(265,231,cs),
(371,231,l),
(362,239,l),
(362,115,l),
(368,137,l),
(320,90,o),
(266,63,o),
(223,63,cs),
(180,63,o),
(149,90,o),
(149,154,cs)
);
}
);
};
guides = (
{
pos = (541,264);
},
{
pos = (541,283);
}
);
layerId = "C5AA469E-57A5-47B5-A186-30BBB557A1CE";
name = "{100}";
shapes = (
{
closed = 1;
nodes = (
(143,374,l),
(154,458,l),
(143,444,l),
(189,459,o),
(228,466,o),
(260,466,cs),
(328,466,o),
(362,434,o),
(362,368,cs),
(362,287,l),
(372,304,l),
(242,304,ls),
(107,304,o),
(45,249,o),
(45,143,cs),
(45,43,o),
(120,-11,o),
(208,-11,cs),
(283,-11,o),
(367,28,o),
(424,109,c),
(398,110,l),
(433,34,o),
(503,-10,o),
(593,-10,cs),
(666,-10,o),
(743,17,o),
(816,67,c),
(781,123,l),
(724,86,o),
(666,66,o),
(616,66,cs),
(525,66,o),
(466,134,o),
(464,244,cs),
(463,259,l),
(454,235,l),
(815,235,l),
(818,250,o),
(820,276,o),
(820,303,cs),
(820,453,o),
(743,540,o),
(611,540,cs),
(529,540,o),
(460,500,o),
(423,428,c),
(432,420,l),
(426,441,ls),
(415,506,o),
(361,540,o),
(272,540,cs),
(218,540,o),
(150,528,o),
(72,502,c),
(80,374,l)
);
},
{
closed = 1;
nodes = (
(381,140,l),
(340,88,o),
(285,63,o),
(239,63,cs),
(187,63,o),
(146,94,o),
(146,156,cs),
(146,220,o),
(178,235,o),
(262,235,cs),
(372,235,l),
(362,255,l),
(362,203,o),
(366,163,o),
(376,128,c)
);
},
{
closed = 1;
nodes = (
(466,402,o),
(517,467,o),
(601,467,cs),
(680,467,o),
(717,411,o),
(716,290,c),
(726,304,l),
(453,304,l),
(463,286,l)
);
}
);
width = 863;
}
);
metricLeft = a;
metricRight = e;
unicode = 230;
},
{
glyphname = b;
kernLeft = h;
kernRight = o;
layers = (
{
background = {
shapes = (
{
closed = 1;
nodes = (
(407,-6,o),
(504,83,o),
(504,265,cs),
(504,433,o),
(416,528,o),
(307,528,cs),
(249,528,o),
(185,500,o),
(124,441,c),
(128,437,l),
(128,765,l),
(18,760,l),
(18,745,l),
(117,731,l),
(108,741,l),
(108,15,l),
(160,1,o),
(208,-6,o),
(251,-6,cs)
);
},
{
closed = 1;
nodes = (
(216,13,o),
(171,20,o),
(123,33,c),
(128,22,l),
(128,432,l),
(124,417,l),
(184,480,o),
(248,509,o),
(305,509,cs),
(404,509,o),
(483,420,o),
(483,264,cs),
(483,97,o),
(398,13,o),
(255,13,cs)
);
}
);
};
layerId = "075BA79B-D813-4287-A9DD-CCAF2D535ED3";
shapes = (
{
closed = 1;
nodes = (
(407,-6,o),
(504,83,o),
(504,265,cs),
(504,433,o),
(416,528,o),
(307,528,cs),
(249,528,o),
(185,500,o),
(124,441,c),
(128,437,l),
(128,765,l),
(18,760,l),
(18,745,l),
(117,731,l),
(108,741,l),
(108,15,l),
(160,1,o),
(208,-6,o),
(251,-6,cs)
);
},
{
closed = 1;
nodes = (
(216,13,o),
(171,20,o),
(123,33,c),
(128,22,l),
(128,432,l),
(124,417,l),
(184,480,o),
(248,509,o),
(305,509,cs),
(404,509,o),
(483,420,o),
(483,264,cs),
(483,97,o),
(398,13,o),
(255,13,cs)
);
}
);
width = 568;
},
{
background = {
shapes = (
{
closed = 1;
nodes = (
(522,-15,o),
(585,124,o),
(585,283,cs),
(585,463,o),
(505,555,o),
(388,555,cs),
(321,555,o),
(266,525,o),
(224,483,c),
(248,454,l),
(248,785,l),
(-7,775,l),
(-7,675,l),
(77,643,l),
(48,694,l),
(48,4,l),
(125,-9,o),
(191,-15,o),
(248,-15,cs)
);
},
{
closed = 1;
nodes = (
(267,125,o),
(246,128,o),
(225,133,c),
(248,88,l),
(248,427,l),
(225,370,l),
(257,396,o),
(283,410,o),
(307,410,cs),
(356,410,o),
(377,352,o),
(377,267,cs),
(377,181,o),
(356,125,o),
(284,125,cs)
);
}
);
};
layerId = "927AED37-E9E6-4F96-A08E-421C3785EFC6";
shapes = (
{
closed = 1;
nodes = (
(522,-15,o),
(585,124,o),
(585,283,cs),
(585,463,o),
(505,555,o),
(388,555,cs),
(321,555,o),
(266,525,o),
(224,483,c),
(248,454,l),
(248,785,l),
(-7,775,l),
(-7,675,l),
(77,643,l),
(48,694,l),
(48,4,l),
(125,-9,o),
(191,-15,o),
(248,-15,cs)
);
},
{
closed = 1;
nodes = (
(267,125,o),
(246,128,o),
(225,133,c),
(248,88,l),
(248,427,l),
(225,370,l),
(257,396,o),
(283,410,o),
(307,410,cs),
(356,410,o),
(377,352,o),
(377,267,cs),
(377,181,o),
(356,125,o),
(284,125,cs)
);
}
);
width = 600;
}
);
unicode = 98;
},
{
glyphname = c;
kernLeft = o;
kernRight = c;
layers = (
{
anchors = (
{
name = bottom;
pos = (271,0);
},
{
name = top;
pos = (285,522);
}
);
background = {
anchors = (
{
name = bottom;
pos = (271,0);
},
{
name = top;
pos = (285,522);
}
);
shapes = (
{
closed = 1;
nodes = (
(328,-6,o),
(393,17,o),
(458,66,c),
(447,82,l),
(388,36,o),
(328,14,o),
(275,14,cs),
(166,14,o),
(83,103,o),
(83,255,cs),
(83,412,o),
(168,509,o),
(290,509,cs),
(322,509,o),
(373,502,o),
(418,479,c),
(413,488,l),
(425,382,l),
(444,382,l),
(447,486,l),
(397,516,o),
(335,528,o),
(294,528,cs),
(165,528,o),
(62,431,o),
(62,253,cs),
(62,91,o),
(153,-6,o),
(271,-6,cs)
);
}
);
};
layerId = "075BA79B-D813-4287-A9DD-CCAF2D535ED3";
shapes = (
{
closed = 1;
nodes = (
(328,-6,o),
(393,17,o),
(458,66,c),
(447,82,l),
(388,36,o),
(328,14,o),
(275,14,cs),
(166,14,o),
(83,103,o),
(83,255,cs),
(83,412,o),
(168,509,o),
(290,509,cs),
(322,509,o),
(373,502,o),
(418,479,c),
(413,488,l),
(425,382,l),
(444,382,l),
(447,486,l),
(397,516,o),
(335,528,o),
(294,528,cs),
(165,528,o),
(62,431,o),
(62,253,cs),
(62,91,o),
(153,-6,o),
(271,-6,cs)
);
}
);
width = 509;
},
{
anchors = (
{
name = bottom;
pos = (274,0);
},
{
name = top;
pos = (282,540);
}
);
background = {
anchors = (
{
name = bottom;
pos = (274,0);
},
{
name = top;
pos = (282,540);
}
);
shapes = (
{
closed = 1;
nodes = (
(356,-15,o),
(437,14,o),
(516,75,c),
(452,174,l),
(400,145,o),
(356,130,o),
(320,130,cs),
(257,130,o),
(221,177,o),
(221,278,cs),
(221,360,o),
(240,415,o),
(309,415,cs),
(330,415,o),
(352,412,o),
(360,411,c),
(346,419,l),
(362,349,l),
(487,349,l),
(492,517,l),
(454,532,o),
(379,555,o),
(303,555,cs),
(165,555,o),
(13,493,o),
(13,267,cs),
(13,86,o),
(125,-15,o),
(274,-15,cs)
);
}
);
};
layerId = "927AED37-E9E6-4F96-A08E-421C3785EFC6";
shapes = (
{
closed = 1;
nodes = (
(356,-15,o),
(437,14,o),
(516,75,c),
(452,174,l),
(400,145,o),
(356,130,o),
(320,130,cs),
(257,130,o),
(221,177,o),
(221,278,cs),
(221,360,o),
(240,415,o),
(309,415,cs),
(330,415,o),
(352,412,o),
(360,411,c),
(346,419,l),
(362,349,l),
(487,349,l),
(492,517,l),
(454,532,o),
(379,555,o),
(303,555,cs),
(165,555,o),
(13,493,o),
(13,267,cs),
(13,86,o),
(125,-15,o),
(274,-15,cs)
);
}
);
width = 520;
}
);
unicode = 99;
},
{
glyphname = d;
kernLeft = o;
kernRight = l;
layers = (
{
anchors = (
{
name = bottom;
pos = (289,0);
},
{
name = center;
pos = (289,261);
},
{
name = topright;
pos = (568,762);
}
);
background = {
anchors = (
{
name = bottom;
pos = (289,0);
},
{
name = center;
pos = (289,261);
},
{
name = topright;
pos = (568,762);
}
);
shapes = (
{
closed = 1;
nodes = (
(319,-6,o),
(383,22,o),
(444,80,c),
(440,83,l),
(445,-2,l),
(550,2,l),
(550,17,l),
(453,27,l),
(460,19,l),
(460,765,l),
(345,760,l),
(345,746,l),
(447,731,l),
(440,739,l),
(440,502,l),
(447,506,l),
(397,520,o),
(351,528,o),
(309,528,cs),
(159,528,o),
(64,431,o),
(64,256,cs),
(64,89,o),
(152,-6,o),
(261,-6,cs)
);
},
{
closed = 1;
nodes = (
(164,13,o),
(85,102,o),
(85,257,cs),
(85,417,o),
(168,509,o),
(308,509,cs),
(349,509,o),
(395,501,o),
(445,484,c),
(440,491,l),
(440,92,l),
(444,104,l),
(384,42,o),
(320,13,o),
(263,13,cs)
);
}
);
};
layerId = "075BA79B-D813-4287-A9DD-CCAF2D535ED3";
shapes = (
{
closed = 1;
nodes = (
(319,-6,o),
(383,22,o),
(444,80,c),
(440,83,l),
(445,-2,l),
(550,2,l),
(550,17,l),
(453,27,l),
(460,19,l),
(460,765,l),
(345,760,l),
(345,746,l),
(447,731,l),
(440,739,l),
(440,502,l),
(447,506,l),
(397,520,o),
(351,528,o),
(309,528,cs),
(159,528,o),
(64,431,o),
(64,256,cs),
(64,89,o),
(152,-6,o),
(261,-6,cs)
);
},
{
closed = 1;
nodes = (
(164,13,o),
(85,102,o),
(85,257,cs),
(85,417,o),
(168,509,o),
(308,509,cs),
(349,509,o),
(395,501,o),
(445,484,c),
(440,491,l),
(440,92,l),
(444,104,l),
(384,42,o),
(320,13,o),
(263,13,cs)
);
}
);
width = 582;
},
{
anchors = (
{
name = bottom;
pos = (322,0);
},
{
name = center;
pos = (312,270);
},
{
name = topright;
pos = (593,780);
}
);
background = {
anchors = (
{
name = bottom;
pos = (322,0);
},
{
name = center;
pos = (312,270);
},
{
name = topright;
pos = (593,780);
}
);
shapes = (
{
closed = 1;
nodes = (
(280,-15,o),
(335,14,o),
(392,71,c),
(372,77,l),
(397,-10,l),
(608,0,l),
(608,100,l),
(531,134,l),
(553,108,l),
(553,785,l),
(293,775,l),
(293,675,l),
(365,643,l),
(353,660,l),
(353,531,l),
(388,552,l),
(365,554,o),
(344,555,o),
(323,555,cs),
(126,555,o),
(16,463,o),
(16,255,cs),
(16,78,o),
(96,-15,o),
(214,-15,cs)
);
},
{
closed = 1;
nodes = (
(245,130,o),
(224,188,o),
(224,274,cs),
(224,359,o),
(245,415,o),
(317,415,cs),
(334,415,o),
(355,412,o),
(376,407,c),
(353,452,l),
(353,113,l),
(376,170,l),
(344,144,o),
(318,130,o),
(294,130,cs)
);
}
);
};
layerId = "927AED37-E9E6-4F96-A08E-421C3785EFC6";
shapes = (
{
closed = 1;
nodes = (
(280,-15,o),
(335,14,o),
(392,71,c),
(372,77,l),
(397,-10,l),
(608,0,l),
(608,100,l),
(531,134,l),
(553,108,l),
(553,785,l),
(293,775,l),
(293,675,l),
(365,643,l),
(353,660,l),
(353,531,l),
(388,552,l),
(365,554,o),
(344,555,o),
(323,555,cs),
(126,555,o),
(16,463,o),
(16,255,cs),
(16,78,o),
(96,-15,o),
(214,-15,cs)
);
},
{
closed = 1;
nodes = (
(245,130,o),
(224,188,o),
(224,274,cs),
(224,359,o),
(245,415,o),
(317,415,cs),
(334,415,o),
(355,412,o),
(376,407,c),
(353,452,l),
(353,113,l),
(376,170,l),
(344,144,o),
(318,130,o),
(294,130,cs)
);
}
);
width = 615;
}
);
unicode = 100;
},
{
glyphname = eth;
kernLeft = o;
kernRight = o;
layers = (
{
background = {
shapes = (
{
closed = 1;
nodes = (
(416,-6,o),
(511,94,o),
(511,312,cs),
(511,545,o),
(403,768,o),
(160,768,c),
(157,749,l),
(349,749,o),
(458,601,o),
(487,396,c),
(490,396,l),
(454,479,o),
(389,528,o),
(296,528,cs),
(156,528,o),
(64,418,o),
(64,246,cs),
(64,89,o),
(141,-6,o),
(277,-6,cs)
);
},
{
closed = 1;
nodes = (
(158,13,o),
(85,102,o),
(85,251,cs),
(85,404,o),
(162,509,o),
(296,509,cs),
(421,509,o),
(490,418,o),
(490,277,cs),
(490,127,o),
(413,13,o),
(277,13,cs)
);
},
{
closed = 1;
nodes = (
(469,752,l),
(459,768,l),
(218,629,l),
(228,613,l)
);
}
);
};
layerId = "075BA79B-D813-4287-A9DD-CCAF2D535ED3";
shapes = (
{
closed = 1;
nodes = (
(416,-6,o),
(511,94,o),
(511,312,cs),
(511,545,o),
(403,768,o),
(160,768,c),
(157,749,l),
(349,749,o),
(458,601,o),
(487,396,c),
(490,396,l),
(454,479,o),
(389,528,o),
(296,528,cs),
(156,528,o),
(64,418,o),
(64,246,cs),
(64,89,o),
(141,-6,o),
(277,-6,cs)
);
},
{
closed = 1;
nodes = (
(158,13,o),
(85,102,o),
(85,251,cs),
(85,404,o),
(162,509,o),
(296,509,cs),
(421,509,o),
(490,418,o),
(490,277,cs),
(490,127,o),
(413,13,o),
(277,13,cs)
);
},
{
closed = 1;
nodes = (
(469,752,l),
(459,768,l),
(218,629,l),
(228,613,l)
);
}
);
width = 588;
},
{
background = {
shapes = (
{
closed = 1;
nodes = (
(482,-15,o),
(559,143,o),
(559,319,cs),
(559,555,o),
(423,795,o),
(107,795,c),
(92,655,l),
(241,650,o),
(347,586,o),
(372,418,c),
(390,409,l),
(355,461,o),
(296,483,o),
(235,483,cs),
(114,483,o),
(9,397,o),
(9,235,cs),
(9,91,o),
(93,-15,o),
(268,-15,cs)
);
},
{
closed = 1;
nodes = (
(244,125,o),
(217,150,o),
(217,239,cs),
(217,336,o),
(249,352,o),
(284,352,cs),
(324,352,o),
(351,331,o),
(351,243,cs),
(351,146,o),
(318,125,o),
(283,125,cs)
);
},
{
closed = 1;
nodes = (
(479,720,l),
(418,799,l),
(145,596,l),
(206,518,l)
);
}
);
};
layerId = "927AED37-E9E6-4F96-A08E-421C3785EFC6";
shapes = (
{
closed = 1;
nodes = (
(482,-15,o),
(559,143,o),
(559,319,cs),
(559,555,o),
(423,795,o),
(107,795,c),
(92,655,l),
(241,650,o),
(347,586,o),
(372,418,c),
(390,409,l),
(355,461,o),
(296,483,o),
(235,483,cs),
(114,483,o),
(9,397,o),
(9,235,cs),
(9,91,o),
(93,-15,o),
(268,-15,cs)
);
},
{
closed = 1;
nodes = (
(244,125,o),
(217,150,o),
(217,239,cs),
(217,336,o),
(249,352,o),
(284,352,cs),
(324,352,o),
(351,331,o),
(351,243,cs),
(351,146,o),
(318,125,o),
(283,125,cs)
);
},
{
closed = 1;
nodes = (
(479,720,l),
(418,799,l),
(145,596,l),
(206,518,l)
);
}
);
width = 579;
}
);
unicode = 240;
},
{
color = 9;
glyphname = dcroat;
kernLeft = o;
kernRight = l;
layers = (
{
background = {
shapes = (
{
closed = 1;
nodes = (
(241,622,l),
(551,622,l),
(551,641,l),
(241,641,l)
);
},
{
closed = 1;
nodes = (
(319,-6,o),
(383,21,o),
(444,79,c),
(440,82,l),
(445,-3,l),
(550,1,l),
(550,16,l),
(453,26,l),
(460,18,l),
(460,764,l),
(345,759,l),
(345,745,l),
(447,730,l),
(440,738,l),
(440,501,l),
(447,505,l),
(397,519,o),
(351,527,o),
(308,527,cs),
(159,527,o),
(64,430,o),
(64,255,cs),
(64,88,o),
(152,-6,o),
(261,-6,cs)
);
},
{
closed = 1;
nodes = (
(164,13,o),
(85,101,o),
(85,256,cs),
(85,416,o),
(168,508,o),
(308,508,cs),
(349,508,o),
(395,500,o),
(445,483,c),
(440,490,l),
(440,91,l),
(444,103,l),
(384,41,o),
(320,13,o),
(263,13,cs)
);
}
);
};
guides = (
{
angle = 90;
pos = (551,316);
}
);
layerId = "075BA79B-D813-4287-A9DD-CCAF2D535ED3";
shapes = (
{
closed = 1;
nodes = (
(241,622,l),
(551,622,l),
(551,641,l),
(241,641,l)
);
},
{
closed = 1;
nodes = (
(319,-6,o),
(383,21,o),
(444,79,c),
(440,82,l),
(445,-3,l),
(550,1,l),
(550,16,l),
(453,26,l),
(460,18,l),
(460,764,l),
(345,759,l),
(345,745,l),
(447,730,l),
(440,738,l),
(440,501,l),
(447,505,l),
(397,519,o),
(351,527,o),
(308,527,cs),
(159,527,o),
(64,430,o),
(64,255,cs),
(64,88,o),
(152,-6,o),
(261,-6,cs)
);
},
{
closed = 1;
nodes = (
(164,13,o),
(85,101,o),
(85,256,cs),
(85,416,o),
(168,508,o),
(308,508,cs),
(349,508,o),
(395,500,o),
(445,483,c),
(440,490,l),
(440,91,l),
(444,103,l),
(384,41,o),
(320,13,o),
(263,13,cs)
);
}
);
width = 583;
},
{
background = {
shapes = (
{
closed = 1;
nodes = (
(174,556,l),
(603,556,l),
(603,661,l),
(174,661,l)
);
},
{
closed = 1;
nodes = (
(280,-15,o),
(335,14,o),
(392,70,c),
(372,76,l),
(397,-11,l),
(608,0,l),
(608,99,l),
(531,133,l),
(553,107,l),
(553,784,l),
(293,774,l),
(293,681,l),
(365,655,l),
(353,669,l),
(353,516,l),
(388,537,l),
(364,539,o),
(340,540,o),
(318,540,cs),
(123,540,o),
(16,456,o),
(16,253,cs),
(16,78,o),
(96,-15,o),
(214,-15,cs)
);
},
{
closed = 1;
nodes = (
(245,129,o),
(224,187,o),
(224,272,cs),
(224,362,o),
(248,401,o),
(312,401,cs),
(330,401,o),
(351,398,o),
(376,392,c),
(353,437,l),
(353,112,l),
(376,169,l),
(344,143,o),
(318,129,o),
(294,129,cs)
);
}
);
};
guides = (
{
angle = 90;
pos = (603,316);
}
);
layerId = "927AED37-E9E6-4F96-A08E-421C3785EFC6";
shapes = (
{
closed = 1;
nodes = (
(174,556,l),
(603,556,l),
(603,661,l),
(174,661,l)
);
},
{
closed = 1;
nodes = (
(280,-15,o),
(335,14,o),
(392,70,c),
(372,76,l),
(397,-11,l),
(608,0,l),
(608,99,l),
(531,133,l),
(553,107,l),
(553,784,l),
(293,774,l),
(293,681,l),
(365,655,l),
(353,669,l),
(353,516,l),
(388,537,l),
(364,539,o),
(340,540,o),
(318,540,cs),
(123,540,o),
(16,456,o),
(16,253,cs),
(16,78,o),
(96,-15,o),
(214,-15,cs)
);
},
{
closed = 1;
nodes = (
(245,129,o),
(224,187,o),
(224,272,cs),
(224,362,o),
(248,401,o),
(312,401,cs),
(330,401,o),
(351,398,o),
(376,392,c),
(353,437,l),
(353,112,l),
(376,169,l),
(344,143,o),
(318,129,o),
(294,129,cs)
);
}
);
width = 615;
}
);
metricLeft = d;
metricRight = d;
unicode = 273;
},
{
color = 0;
glyphname = e;
kernLeft = o;
kernRight = e;
layers = (
{
anchors = (
{
name = bottom;
pos = (276,0);
},
{
name = ogonek;
pos = (331,0);
},
{
name = top;
pos = (286,522);
}
);
background = {
anchors = (
{
name = bottom;
pos = (276,0);
},
{
name = ogonek;
pos = (331,0);
},
{
name = top;
pos = (286,522);
}
);
shapes = (
{
closed = 1;
nodes = (
(338,-6,o),
(408,17,o),
(480,67,c),
(469,82,l),
(402,35,o),
(336,13,o),
(279,13,cs),
(166,13,o),
(85,100,o),
(85,256,cs),
(85,408,o),
(161,509,o),
(288,509,cs),
(415,509,o),
(460,408,o),
(458,290,c),
(467,296,l),
(73,296,l),
(73,277,l),
(478,277,l),
(479,291,o),
(479,298,o),
(479,305,cs),
(479,436,o),
(414,528,o),
(288,528,cs),
(152,528,o),
(64,420,o),
(64,254,cs),
(64,87,o),
(153,-6,o),
(276,-6,cs)
);
}
);
};
layerId = "075BA79B-D813-4287-A9DD-CCAF2D535ED3";
shapes = (
{
closed = 1;
nodes = (
(338,-6,o),
(408,17,o),
(480,67,c),
(469,82,l),
(402,35,o),
(336,13,o),
(279,13,cs),
(166,13,o),
(85,100,o),
(85,256,cs),
(85,408,o),
(161,509,o),
(288,509,cs),
(415,509,o),
(460,408,o),
(458,290,c),
(467,296,l),
(73,296,l),
(73,277,l),
(478,277,l),
(479,291,o),
(479,298,o),
(479,305,cs),
(479,436,o),
(414,528,o),
(288,528,cs),
(152,528,o),
(64,420,o),
(64,254,cs),
(64,87,o),
(153,-6,o),
(276,-6,cs)
);
}
);
width = 546;
},
{
anchors = (
{
name = bottom;
pos = (273,0);
},
{
name = ogonek;
pos = (381,0);
},
{
name = top;
pos = (283,540);
}
);
background = {
anchors = (
{
name = bottom;
pos = (273,0);
},
{
name = ogonek;
pos = (381,0);
},
{
name = top;
pos = (283,540);
}
);
shapes = (
{
closed = 1;
nodes = (
(357,-15,o),
(444,12,o),
(525,68,c),
(460,171,l),
(408,144,o),
(359,130,o),
(321,130,cs),
(232,130,o),
(219,205,o),
(219,290,cs),
(219,352,o),
(226,415,o),
(279,415,cs),
(320,415,o),
(330,379,o),
(328,303,c),
(359,325,l),
(179,325,l),
(179,222,l),
(525,222,l),
(531,253,o),
(534,283,o),
(534,312,cs),
(534,449,o),
(466,555,o),
(296,555,cs),
(122,555,o),
(14,444,o),
(14,259,cs),
(14,79,o),
(116,-15,o),
(273,-15,cs)
);
}
);
};
layerId = "927AED37-E9E6-4F96-A08E-421C3785EFC6";
shapes = (
{
closed = 1;
nodes = (
(357,-15,o),
(444,12,o),
(525,68,c),
(460,171,l),
(408,144,o),
(359,130,o),
(321,130,cs),
(232,130,o),
(219,205,o),
(219,290,cs),
(219,352,o),
(226,415,o),
(279,415,cs),
(320,415,o),
(330,379,o),
(328,303,c),
(359,325,l),
(179,325,l),
(179,222,l),
(525,222,l),
(531,253,o),
(534,283,o),
(534,312,cs),
(534,449,o),
(466,555,o),
(296,555,cs),
(122,555,o),
(14,444,o),
(14,259,cs),
(14,79,o),
(116,-15,o),
(273,-15,cs)
);
}
);
width = 552;
},
{
anchors = (
{
name = bottom;
pos = (288,0);
},
{
name = ogonek;
pos = (353,0);
},
{
name = top;
pos = (284,530);
}
);
associatedMasterId = "075BA79B-D813-4287-A9DD-CCAF2D535ED3";
attr = {
coordinates = (
100
);
};
background = {
anchors = (
{
name = bottom;
pos = (290,0);
},
{
name = ogonek;
pos = (355,0);
},
{
name = top;
pos = (287,530);
}
);
shapes = (
{
closed = 1;
nodes = (
(348,-10,o),
(426,15,o),
(501,67,c),
(466,122,l),
(406,84,o),
(348,66,o),
(300,66,cs),
(197,66,o),
(146,147,o),
(146,269,cs),
(146,384,o),
(191,467,o),
(285,467,cs),
(371,467,o),
(403,397,o),
(401,315,c),
(410,321,l),
(121,321,l),
(121,252,l),
(500,252,l),
(503,274,o),
(504,291,o),
(504,308,cs),
(504,442,o),
(438,540,o),
(293,540,cs),
(140,540,o),
(43,431,o),
(43,256,cs),
(43,83,o),
(138,-10,o),
(276,-10,cs)
);
}
);
};
layerId = "FC6433CF-2B87-4175-A62D-BF714C6363B9";
name = "{100}";
shapes = (
{
closed = 1;
nodes = (
(348,-10,o),
(426,15,o),
(501,67,c),
(466,122,l),
(406,84,o),
(348,66,o),
(300,66,cs),
(197,66,o),
(146,147,o),
(146,269,cs),
(146,383,o),
(191,465,o),
(285,465,cs),
(371,465,o),
(403,396,o),
(401,315,c),
(410,321,l),
(121,321,l),
(121,252,l),
(500,252,l),
(503,274,o),
(504,291,o),
(504,308,cs),
(504,442,o),
(438,540,o),
(293,540,cs),
(140,540,o),
(43,431,o),
(43,256,cs),
(43,83,o),
(138,-10,o),
(276,-10,cs)
);
}
);
width = 547;
}
);
unicode = 101;
},
{
color = 0;
glyphname = schwa;
kernLeft = o;
kernRight = o;
layers = (
{
background = {
shapes = (
{
closed = 1;
nodes = (
(208,528,o),
(138,505,o),
(66,455,c),
(77,440,l),
(144,487,o),
(210,509,o),
(267,509,cs),
(380,509,o),
(461,422,o),
(461,266,cs),
(461,114,o),
(385,13,o),
(258,13,cs),
(131,13,o),
(86,118,o),
(88,240,c),
(79,234,l),
(473,234,l),
(473,253,l),
(68,253,l),
(67,235,o),
(67,226,o),
(67,217,cs),
(67,86,o),
(132,-6,o),
(258,-6,cs),
(394,-6,o),
(482,102,o),
(482,268,cs),
(482,435,o),
(393,528,o),
(270,528,cs)
);
}
);
};
guides = (
{
pos = (241,277);
}
);
layerId = "075BA79B-D813-4287-A9DD-CCAF2D535ED3";
shapes = (
{
closed = 1;
nodes = (
(208,528,o),
(138,505,o),
(66,455,c),
(77,440,l),
(144,487,o),
(210,509,o),
(267,509,cs),
(380,509,o),
(461,422,o),
(461,266,cs),
(461,114,o),
(385,13,o),
(258,13,cs),
(131,13,o),
(86,118,o),
(88,240,c),
(79,234,l),
(473,234,l),
(473,253,l),
(68,253,l),
(67,235,o),
(67,226,o),
(67,217,cs),
(67,86,o),
(132,-6,o),
(258,-6,cs),
(394,-6,o),
(482,102,o),
(482,268,cs),
(482,435,o),
(393,528,o),
(270,528,cs)
);
}
);
width = 546;
},
{
background = {
shapes = (
{
closed = 1;
nodes = (
(193,555,o),
(106,528,o),
(25,472,c),
(90,369,l),
(142,396,o),
(191,410,o),
(229,410,cs),
(318,410,o),
(331,335,o),
(331,250,cs),
(331,188,o),
(324,125,o),
(271,125,cs),
(230,125,o),
(220,167,o),
(222,243,c),
(191,221,l),
(371,221,l),
(371,324,l),
(25,324,l),
(19,293,o),
(16,257,o),
(16,228,cs),
(16,91,o),
(84,-15,o),
(254,-15,cs),
(428,-15,o),
(536,96,o),
(536,281,cs),
(536,461,o),
(434,555,o),
(277,555,cs)
);
}
);
};
guides = (
{
pos = (241,325);
}
);
layerId = "927AED37-E9E6-4F96-A08E-421C3785EFC6";
shapes = (
{
closed = 1;
nodes = (
(193,555,o),
(106,528,o),
(25,472,c),
(90,369,l),
(142,396,o),
(191,410,o),
(229,410,cs),
(318,410,o),
(331,335,o),
(331,250,cs),
(331,188,o),
(324,125,o),
(271,125,cs),
(230,125,o),
(220,167,o),
(222,243,c),
(191,221,l),
(371,221,l),
(371,324,l),
(25,324,l),
(19,293,o),
(16,257,o),
(16,228,cs),
(16,91,o),
(84,-15,o),
(254,-15,cs),
(428,-15,o),
(536,96,o),
(536,281,cs),
(536,461,o),
(434,555,o),
(277,555,cs)
);
}
);
width = 549;
},
{
associatedMasterId = "075BA79B-D813-4287-A9DD-CCAF2D535ED3";
attr = {
coordinates = (
100
);
};
background = {
shapes = (
{
closed = 1;
nodes = (
(199,540,o),
(121,515,o),
(46,463,c),
(81,408,l),
(141,446,o),
(199,464,o),
(247,464,cs),
(350,464,o),
(401,383,o),
(401,261,cs),
(401,146,o),
(356,63,o),
(262,63,cs),
(176,63,o),
(144,133,o),
(146,215,c),
(137,209,l),
(426,209,l),
(426,278,l),
(47,278,l),
(44,256,o),
(43,239,o),
(43,222,cs),
(43,88,o),
(109,-10,o),
(254,-10,cs),
(407,-10,o),
(504,99,o),
(504,274,cs),
(504,447,o),
(409,540,o),
(271,540,cs)
);
}
);
};
guides = (
{
pos = (241,277);
}
);
layerId = "9E782148-9679-45D5-B5D9-7C2D8CDD4934";
name = "{100}";
shapes = (
{
closed = 1;
nodes = (
(201,540,o),
(124,515,o),
(48,463,c),
(83,408,l),
(143,447,o),
(202,465,o),
(250,465,cs),
(352,465,o),
(403,383,o),
(403,259,cs),
(403,147,o),
(358,63,o),
(264,63,cs),
(175,63,o),
(146,140,o),
(148,241,c),
(127,215,l),
(426,215,l),
(428,285,l),
(49,285,l),
(46,261,o),
(44,240,o),
(44,222,cs),
(44,88,o),
(111,-10,o),
(256,-10,cs),
(409,-10,o),
(506,99,o),
(506,274,cs),
(506,447,o),
(411,540,o),
(273,540,cs)
);
}
);
width = 547;
}
);
unicode = 601;
},
{
glyphname = f;
kernLeft = n;
kernRight = f;
layers = (
{
background = {
shapes = (
{
closed = 1;
nodes = (
(266,0,l),
(266,15,l),
(149,29,l),
(156,21,l),
(156,506,l),
(149,499,l),
(309,499,l),
(311,518,l),
(149,518,l),
(156,509,l),
(156,615,ls),
(156,705,o),
(201,749,o),
(278,749,cs),
(306,749,o),
(336,743,o),
(371,733,c),
(377,750,l),
(341,762,o),
(308,768,o),
(279,768,cs),
(193,768,o),
(136,719,o),
(136,612,cs),
(136,509,l),
(143,518,l),
(46,513,l),
(46,499,l),
(143,499,l),
(136,506,l),
(136,21,l),
(143,29,l),
(46,15,l),
(46,0,l)
);
}
);
};
layerId = "075BA79B-D813-4287-A9DD-CCAF2D535ED3";
shapes = (
{
closed = 1;
nodes = (
(266,0,l),
(266,15,l),
(149,29,l),
(156,21,l),
(156,506,l),
(149,499,l),
(309,499,l),
(311,518,l),
(149,518,l),
(156,509,l),
(156,615,ls),
(156,705,o),
(201,749,o),
(278,749,cs),
(306,749,o),
(336,743,o),
(371,733,c),
(377,750,l),
(341,762,o),
(308,768,o),
(279,768,cs),
(193,768,o),
(136,719,o),
(136,612,cs),
(136,509,l),
(143,518,l),
(46,513,l),
(46,499,l),
(143,499,l),
(136,506,l),
(136,21,l),
(143,29,l),
(46,15,l),
(46,0,l)
);
}
);
width = 322;
},
{
background = {
shapes = (
{
closed = 1;
nodes = (
(344,0,l),
(344,100,l),
(263,128,l),
(279,110,l),
(279,424,l),
(262,405,l),
(386,405,l),
(389,535,l),
(255,535,l),
(279,513,l),
(279,574,ls),
(279,637,o),
(316,656,o),
(359,656,cs),
(382,656,o),
(406,651,o),
(428,644,c),
(455,775,l),
(405,788,o),
(364,795,o),
(322,795,cs),
(174,795,o),
(79,719,o),
(79,558,cs),
(79,513,l),
(100,540,l),
(19,510,l),
(19,405,l),
(95,405,l),
(79,424,l),
(79,109,l),
(95,128,l),
(24,100,l),
(24,0,l)
);
}
);
};
layerId = "927AED37-E9E6-4F96-A08E-421C3785EFC6";
shapes = (
{
closed = 1;
nodes = (
(344,0,l),
(344,100,l),
(263,128,l),
(279,110,l),
(279,424,l),
(262,405,l),
(386,405,l),
(389,535,l),
(255,535,l),
(279,513,l),
(279,574,ls),
(279,637,o),
(316,656,o),
(359,656,cs),
(382,656,o),
(406,651,o),
(428,644,c),
(455,775,l),
(405,788,o),
(364,795,o),
(322,795,cs),
(174,795,o),
(79,719,o),
(79,558,cs),
(79,513,l),
(100,540,l),
(19,510,l),
(19,405,l),
(95,405,l),
(79,424,l),
(79,109,l),
(95,128,l),
(24,100,l),
(24,0,l)
);
}
);
width = 400;
}
);
unicode = 102;
},
{
color = 0;
glyphname = g;
kernLeft = g;
kernRight = g;
layers = (
{
anchors = (
{
name = bottom;
pos = (270,-230);
},
{
name = top;
pos = (267,522);
}
);
background = {
anchors = (
{
name = bottom;
pos = (270,-230);
},
{
name = top;
pos = (267,522);
}
);
shapes = (
{
closed = 1;
nodes = (
(418,-236,o),
(498,-182,o),
(498,-82,cs),
(498,9,o),
(432,57,o),
(309,57,cs),
(118,57,l),
(123,49,l),
(159,203,l),
(154,198,l),
(184,182,o),
(219,174,o),
(259,174,cs),
(377,174,o),
(451,244,o),
(451,356,cs),
(451,412,o),
(432,457,o),
(396,488,c),
(392,484,l),
(497,504,l),
(497,521,l),
(351,511,l),
(362,509,l),
(336,521,o),
(304,528,o),
(267,528,cs),
(148,528,o),
(74,459,o),
(74,347,cs),
(74,281,o),
(101,230,o),
(150,201,c),
(147,206,l),
(107,86,o),
(106,81,o),
(106,63,cs),
(106,44,o),
(119,37,o),
(153,37,c),
(150,40,l),
(84,-1,o),
(48,-50,o),
(48,-103,cs),
(48,-189,o),
(123,-236,o),
(270,-236,cs)
);
},
{
closed = 1;
nodes = (
(136,-217,o),
(69,-177,o),
(69,-101,cs),
(69,-50,o),
(104,-5,o),
(175,40,c),
(162,37,l),
(305,37,ls),
(419,37,o),
(477,-3,o),
(477,-82,cs),
(477,-171,o),
(406,-217,o),
(270,-217,cs)
);
},
{
closed = 1;
nodes = (
(156,193,o),
(96,250,o),
(96,348,cs),
(96,450,o),
(158,509,o),
(265,509,cs),
(370,509,o),
(430,453,o),
(430,354,cs),
(430,253,o),
(367,193,o),
(260,193,cs)
);
}
);
};
guides = (
{
angle = 90;
pos = (48,258);
},
{
pos = (354,605);
}
);
layerId = "075BA79B-D813-4287-A9DD-CCAF2D535ED3";
shapes = (
{
closed = 1;
nodes = (
(418,-236,o),
(498,-182,o),
(498,-82,cs),
(498,9,o),
(432,57,o),
(309,57,cs),
(118,57,l),
(123,49,l),
(159,203,l),
(154,198,l),
(184,182,o),
(219,174,o),
(259,174,cs),
(377,174,o),
(451,244,o),
(451,356,cs),
(451,412,o),
(432,457,o),
(396,488,c),
(392,484,l),
(497,504,l),
(497,521,l),
(351,511,l),
(362,509,l),
(336,521,o),
(304,528,o),
(267,528,cs),
(148,528,o),
(74,459,o),
(74,347,cs),
(74,281,o),
(101,230,o),
(150,201,c),
(147,206,l),
(107,86,o),
(106,81,o),
(106,63,cs),
(106,44,o),
(119,37,o),
(153,37,c),
(150,40,l),
(84,-1,o),
(48,-50,o),
(48,-103,cs),
(48,-189,o),
(123,-236,o),
(270,-236,cs)
);
},
{
closed = 1;
nodes = (
(136,-217,o),
(69,-177,o),
(69,-101,cs),
(69,-50,o),
(104,-5,o),
(175,40,c),
(162,37,l),
(305,37,ls),
(419,37,o),
(477,-3,o),
(477,-82,cs),
(477,-171,o),
(406,-217,o),
(270,-217,cs)
);
},
{
closed = 1;
nodes = (
(156,193,o),
(96,250,o),
(96,348,cs),
(96,450,o),
(158,509,o),
(265,509,cs),
(370,509,o),
(430,453,o),
(430,354,cs),
(430,253,o),
(367,193,o),
(260,193,cs)
);
}
);
width = 544;
},
{
anchors = (
{
name = bottom;
pos = (275,-230);
},
{
name = top;
pos = (274,540);
}
);
background = {
anchors = (
{
name = bottom;
pos = (275,-230);
},
{
name = top;
pos = (274,540);
}
);
shapes = (
{
closed = 1;
nodes = (
(477,-245,o),
(586,-180,o),
(586,-58,cs),
(586,49,o),
(513,104,o),
(374,104,cs),
(169,104,l),
(189,92,l),
(194,176,l),
(173,158,l),
(205,152,o),
(236,149,o),
(268,149,cs),
(432,149,o),
(534,229,o),
(534,358,cs),
(534,392,o),
(526,416,o),
(515,437,c),
(503,420,l),
(568,435,l),
(568,535,l),
(391,531,l),
(434,523,l),
(392,544,o),
(338,555,o),
(275,555,cs),
(110,555,o),
(12,479,o),
(12,347,cs),
(12,266,o),
(51,205,o),
(126,173,c),
(125,205,l),
(59,128,o),
(39,92,o),
(39,64,cs),
(39,19,o),
(83,-12,o),
(145,-19,c),
(148,22,l),
(48,-1,o),
(-4,-42,o),
(-4,-113,cs),
(-4,-203,o),
(80,-245,o),
(257,-245,cs)
);
},
{
closed = 1;
nodes = (
(198,-112,o),
(169,-101,o),
(169,-79,cs),
(169,-60,o),
(178,-44,o),
(196,-31,c),
(154,-41,l),
(343,-41,ls),
(374,-41,o),
(396,-50,o),
(396,-76,cs),
(396,-100,o),
(363,-112,o),
(273,-112,cs)
);
},
{
closed = 1;
nodes = (
(229,280,o),
(210,304,o),
(210,354,cs),
(210,403,o),
(230,424,o),
(273,424,cs),
(317,424,o),
(336,405,o),
(336,354,cs),
(336,303,o),
(314,280,o),
(270,280,cs)
);
}
);
};
guides = (
{
angle = 90;
pos = (-13,183);
}
);
layerId = "927AED37-E9E6-4F96-A08E-421C3785EFC6";
shapes = (
{
closed = 1;
nodes = (
(477,-245,o),
(586,-180,o),
(586,-58,cs),
(586,49,o),
(513,104,o),
(374,104,cs),
(169,104,l),
(189,92,l),
(194,176,l),
(173,158,l),
(205,152,o),
(236,149,o),
(268,149,cs),
(432,149,o),
(534,229,o),
(534,358,cs),
(534,392,o),
(526,416,o),
(515,437,c),
(503,420,l),
(568,435,l),
(568,535,l),
(391,531,l),
(434,523,l),
(392,544,o),
(338,555,o),
(275,555,cs),
(110,555,o),
(12,479,o),
(12,347,cs),
(12,266,o),
(51,205,o),
(126,173,c),
(125,205,l),
(59,128,o),
(39,92,o),
(39,64,cs),
(39,19,o),
(83,-12,o),
(145,-19,c),
(148,22,l),
(48,-1,o),
(-4,-42,o),
(-4,-113,cs),
(-4,-203,o),
(80,-245,o),
(257,-245,cs)
);
},
{
closed = 1;
nodes = (
(198,-112,o),
(169,-101,o),
(169,-79,cs),
(169,-60,o),
(178,-44,o),
(196,-31,c),
(154,-41,l),
(343,-41,ls),
(374,-41,o),
(396,-50,o),
(396,-76,cs),
(396,-100,o),
(363,-112,o),
(273,-112,cs)
);
},
{
closed = 1;
nodes = (
(229,280,o),
(210,304,o),
(210,354,cs),
(210,403,o),
(230,424,o),
(273,424,cs),
(317,424,o),
(336,405,o),
(336,354,cs),
(336,303,o),
(314,280,o),
(270,280,cs)
);
}
);
width = 589;
},
{
anchors = (
{
name = bottom;
pos = (272,-230);
},
{
name = top;
pos = (262,530);
}
);
associatedMasterId = "075BA79B-D813-4287-A9DD-CCAF2D535ED3";
attr = {
coordinates = (
100
);
};
background = {
shapes = (
{
closed = 1;
nodes = (
(444,-240,o),
(537,-181,o),
(537,-71,cs),
(537,27,o),
(468,78,o),
(338,78,cs),
(141,78,l),
(152,68,l),
(175,191,l),
(162,180,l),
(193,169,o),
(227,163,o),
(263,163,cs),
(401,163,o),
(488,237,o),
(488,357,cs),
(488,403,o),
(474,439,o),
(449,465,c),
(441,456,l),
(529,473,l),
(529,527,l),
(369,520,l),
(394,515,l),
(361,531,o),
(319,540,o),
(271,540,cs),
(131,540,o),
(46,468,o),
(46,347,cs),
(46,274,o),
(79,219,o),
(139,189,c),
(137,206,l),
(86,105,o),
(76,86,o),
(76,63,cs),
(76,33,o),
(103,15,o),
(149,12,c),
(149,32,l),
(68,-1,o),
(25,-46,o),
(25,-107,cs),
(25,-195,o),
(104,-240,o),
(264,-240,cs)
);
},
{
closed = 1;
nodes = (
(164,-170,o),
(113,-143,o),
(113,-91,cs),
(113,-54,o),
(137,-22,o),
(184,8,c),
(158,2,l),
(322,2,ls),
(399,2,o),
(441,-24,o),
(441,-79,cs),
(441,-139,o),
(387,-170,o),
(271,-170,cs)
);
},
{
closed = 1;
nodes = (
(188,232,o),
(147,274,o),
(147,351,cs),
(147,429,o),
(190,471,o),
(269,471,cs),
(346,471,o),
(388,432,o),
(388,354,cs),
(388,275,o),
(343,232,o),
(264,232,cs)
);
}
);
};
guides = (
{
angle = 90;
pos = (48,258);
},
{
pos = (354,605);
}
);
layerId = "92476EEF-BC68-4881-9FE2-1FC1E2E42DBF";
name = "{100}";
shapes = (
{
closed = 1;
nodes = (
(444,-240,o),
(537,-180,o),
(537,-69,cs),
(537,26,o),
(469,78,o),
(338,78,cs),
(141,78,l),
(162,68,l),
(185,191,l),
(162,180,l),
(193,169,o),
(227,163,o),
(265,163,cs),
(399,163,o),
(488,236,o),
(488,356,cs),
(488,403,o),
(474,439,o),
(449,465,c),
(442,451,l),
(530,468,l),
(529,527,l),
(369,520,l),
(394,515,l),
(361,531,o),
(319,540,o),
(270,540,cs),
(130,540,o),
(46,467,o),
(46,348,cs),
(46,274,o),
(79,219,o),
(139,189,c),
(137,206,l),
(86,105,o),
(76,85,o),
(76,65,cs),
(76,33,o),
(103,15,o),
(149,12,c),
(149,32,l),
(68,-1,o),
(25,-46,o),
(25,-109,cs),
(25,-194,o),
(103,-240,o),
(262,-240,cs)
);
},
{
closed = 1;
nodes = (
(163,-165,o),
(113,-140,o),
(113,-89,cs),
(113,-54,o),
(137,-22,o),
(184,8,c),
(158,2,l),
(322,2,ls),
(400,2,o),
(441,-25,o),
(441,-77,cs),
(441,-136,o),
(388,-165,o),
(271,-165,cs)
);
},
{
closed = 1;
nodes = (
(188,232,o),
(147,274,o),
(147,351,cs),
(147,429,o),
(190,471,o),
(269,471,cs),
(346,471,o),
(388,432,o),
(388,354,cs),
(388,275,o),
(343,232,o),
(264,232,cs)
);
}
);
width = 564;
}
);
unicode = 103;
},
{
color = 9;
glyphname = h;
kernLeft = h;
kernRight = n;
layers = (
{
anchors = (
{
name = bottom;
pos = (299,0);
},
{
name = center;
pos = (133,627);
},
{
name = top;
pos = (133,692);
}
);
background = {
anchors = (
{
name = bottom;
pos = (299,0);
},
{
name = center;
pos = (133,627);
},
{
name = top;
pos = (133,692);
}
);
shapes = (
{
closed = 1;
nodes = (
(233,0,l),
(233,15,l),
(136,29,l),
(143,21,l),
(143,414,l),
(139,403,l),
(208,476,o),
(285,509,o),
(347,509,cs),
(426,509,o),
(478,463,o),
(476,363,cs),
(476,21,l),
(483,29,l),
(386,15,l),
(386,0,l),
(586,0,l),
(586,15,l),
(489,29,l),
(496,21,l),
(496,368,ls),
(498,477,o),
(436,528,o),
(348,528,cs),
(283,528,o),
(206,497,o),
(139,427,c),
(143,424,l),
(143,765,l),
(33,760,l),
(33,745,l),
(130,731,l),
(123,739,l),
(123,21,l),
(130,29,l),
(33,15,l),
(33,0,l)
);
}
);
};
layerId = "075BA79B-D813-4287-A9DD-CCAF2D535ED3";
shapes = (
{
closed = 1;
nodes = (
(233,0,l),
(233,15,l),
(136,29,l),
(143,21,l),
(143,414,l),
(139,403,l),
(208,476,o),
(285,509,o),
(347,509,cs),
(426,509,o),
(478,463,o),
(476,363,cs),
(476,21,l),
(483,29,l),
(386,15,l),
(386,0,l),
(586,0,l),
(586,15,l),
(489,29,l),
(496,21,l),
(496,368,ls),
(498,477,o),
(436,528,o),
(348,528,cs),
(283,528,o),
(206,497,o),
(139,427,c),
(143,424,l),
(143,765,l),
(33,760,l),
(33,745,l),
(130,731,l),
(123,739,l),
(123,21,l),
(130,29,l),
(33,15,l),
(33,0,l)
);
}
);
width = 610;
},
{
anchors = (
{
name = bottom;
pos = (315,0);
},
{
name = center;
pos = (162,655);
},
{
name = top;
pos = (145,710);
}
);
background = {
anchors = (
{
name = bottom;
pos = (315,0);
},
{
name = center;
pos = (162,655);
},
{
name = top;
pos = (145,710);
}
);
shapes = (
{
closed = 1;
nodes = (
(307,0,l),
(307,100,l),
(246,126,l),
(262,99,l),
(262,395,l),
(249,368,l),
(277,392,o),
(306,405,o),
(329,405,cs),
(360,405,o),
(382,383,o),
(382,337,cs),
(382,99,l),
(403,127,l),
(337,100,l),
(337,0,l),
(637,0,l),
(637,100,l),
(566,129,l),
(582,103,l),
(582,380,ls),
(582,496,o),
(510,555,o),
(420,555,cs),
(355,555,o),
(280,523,o),
(217,461,c),
(262,453,l),
(262,785,l),
(7,775,l),
(7,675,l),
(84,645,l),
(62,675,l),
(62,103,l),
(84,130,l),
(7,100,l),
(7,0,l)
);
}
);
};
layerId = "927AED37-E9E6-4F96-A08E-421C3785EFC6";
shapes = (
{
closed = 1;
nodes = (
(307,0,l),
(307,100,l),
(246,126,l),
(262,99,l),
(262,395,l),
(249,368,l),
(277,392,o),
(306,405,o),
(329,405,cs),
(360,405,o),
(382,383,o),
(382,337,cs),
(382,99,l),
(403,127,l),
(337,100,l),
(337,0,l),
(637,0,l),
(637,100,l),
(566,129,l),
(582,103,l),
(582,380,ls),
(582,496,o),
(510,555,o),
(420,555,cs),
(355,555,o),
(280,523,o),
(217,461,c),
(262,453,l),
(262,785,l),
(7,775,l),
(7,675,l),
(84,645,l),
(62,675,l),
(62,103,l),
(84,130,l),
(7,100,l),
(7,0,l)
);
}
);
width = 640;
}
);
unicode = 104;
},
{
color = 9;
glyphname = hbar;
kernLeft = h;
kernRight = n;
layers = (
{
background = {
shapes = (
{
closed = 1;
nodes = (
(233,0,l),
(233,15,l),
(136,29,l),
(143,21,l),
(143,414,l),
(139,403,l),
(208,476,o),
(285,509,o),
(347,509,cs),
(426,509,o),
(478,463,o),
(476,363,cs),
(476,21,l),
(483,29,l),
(386,15,l),
(386,0,l),
(586,0,l),
(586,15,l),
(489,29,l),
(496,21,l),
(496,368,ls),
(498,477,o),
(436,528,o),
(348,528,cs),
(283,528,o),
(206,497,o),
(139,427,c),
(143,424,l),
(143,765,l),
(33,760,l),
(33,745,l),
(130,731,l),
(123,739,l),
(123,21,l),
(130,29,l),
(33,15,l),
(33,0,l)
);
},
{
closed = 1;
nodes = (
(348,622,l),
(348,641,l),
(33,641,l),
(33,622,l)
);
}
);
};
guides = (
{
angle = 90;
pos = (33,702);
}
);
layerId = "075BA79B-D813-4287-A9DD-CCAF2D535ED3";
shapes = (
{
closed = 1;
nodes = (
(233,0,l),
(233,15,l),
(136,29,l),
(143,21,l),
(143,414,l),
(139,403,l),
(208,476,o),
(285,509,o),
(347,509,cs),
(426,509,o),
(478,463,o),
(476,363,cs),
(476,21,l),
(483,29,l),
(386,15,l),
(386,0,l),
(586,0,l),
(586,15,l),
(489,29,l),
(496,21,l),
(496,368,ls),
(498,477,o),
(436,528,o),
(348,528,cs),
(283,528,o),
(206,497,o),
(139,427,c),
(143,424,l),
(143,765,l),
(33,760,l),
(33,745,l),
(130,731,l),
(123,739,l),
(123,21,l),
(130,29,l),
(33,15,l),
(33,0,l)
);
},
{
closed = 1;
nodes = (
(348,622,l),
(348,641,l),
(33,641,l),
(33,622,l)
);
}
);
width = 610;
},
{
background = {
shapes = (
{
closed = 1;
nodes = (
(311,0,l),
(311,100,l),
(250,126,l),
(266,99,l),
(266,379,l),
(254,351,l),
(284,377,o),
(315,390,o),
(339,390,cs),
(367,390,o),
(386,372,o),
(386,335,cs),
(386,99,l),
(407,127,l),
(341,100,l),
(341,0,l),
(631,0,l),
(631,100,l),
(570,129,l),
(586,103,l),
(586,373,ls),
(586,477,o),
(517,540,o),
(429,540,cs),
(366,540,o),
(292,509,o),
(228,446,c),
(266,438,l),
(266,785,l),
(11,775,l),
(11,685,l),
(88,660,l),
(66,685,l),
(66,103,l),
(88,130,l),
(11,100,l),
(11,0,l)
);
},
{
closed = 1;
nodes = (
(420,556,l),
(420,661,l),
(1,661,l),
(1,556,l)
);
}
);
};
guides = (
{
angle = 90;
pos = (11,702);
}
);
layerId = "927AED37-E9E6-4F96-A08E-421C3785EFC6";
shapes = (
{
closed = 1;
nodes = (
(311,0,l),
(311,100,l),
(250,126,l),
(266,99,l),
(266,379,l),
(254,351,l),
(284,377,o),
(315,390,o),
(339,390,cs),
(367,390,o),
(386,372,o),
(386,335,cs),
(386,99,l),
(407,127,l),
(341,100,l),
(341,0,l),
(631,0,l),
(631,100,l),
(570,129,l),
(586,103,l),
(586,373,ls),
(586,477,o),
(517,540,o),
(429,540,cs),
(366,540,o),
(292,509,o),
(228,446,c),
(266,438,l),
(266,785,l),
(11,775,l),
(11,685,l),
(88,660,l),
(66,685,l),
(66,103,l),
(88,130,l),
(11,100,l),
(11,0,l)
);
},
{
closed = 1;
nodes = (
(420,556,l),
(420,661,l),
(1,661,l),
(1,556,l)
);
}
);
width = 639;
}
);
unicode = 295;
},
{
glyphname = idotless;
kernLeft = n;
kernRight = u;
layers = (
{
anchors = (
{
name = bottom;
pos = (146,0);
},
{
name = ogonek;
pos = (216,0);
},
{
name = top;
pos = (139,522);
}
);
background = {
anchors = (
{
name = bottom;
pos = (146,0);
},
{
name = ogonek;
pos = (216,0);
},
{
name = top;
pos = (139,522);
}
);
shapes = (
{
closed = 1;
nodes = (
(156,525,l),
(46,520,l),
(46,505,l),
(143,491,l),
(136,499,l),
(136,21,l),
(143,29,l),
(46,15,l),
(46,0,l),
(246,0,l),
(246,15,l),
(149,29,l),
(156,21,l)
);
}
);
};
guides = (
{
angle = 90;
pos = (146,621);
},
{
angle = 90;
pos = (634,621);
}
);
layerId = "075BA79B-D813-4287-A9DD-CCAF2D535ED3";
shapes = (
{
closed = 1;
nodes = (
(156,525,l),
(46,520,l),
(46,505,l),
(143,491,l),
(136,499,l),
(136,21,l),
(143,29,l),
(46,15,l),
(46,0,l),
(246,0,l),
(246,15,l),
(149,29,l),
(156,21,l)
);
}
);
width = 278;
},
{
anchors = (
{
name = bottom;
pos = (176,0);
},
{
name = ogonek;
pos = (283,0);
},
{
name = top;
pos = (176,540);
}
);
background = {
anchors = (
{
name = bottom;
pos = (176,0);
},
{
name = ogonek;
pos = (283,0);
},
{
name = top;
pos = (176,540);
}
);
shapes = (
{
closed = 1;
nodes = (
(276,544,l),
(21,536,l),
(21,436,l),
(86,411,l),
(76,421,l),
(76,112,l),
(88,127,l),
(21,100,l),
(21,0,l),
(331,0,l),
(331,100,l),
(264,127,l),
(276,112,l)
);
}
);
};
guides = (
{
angle = 90;
pos = (176,454);
},
{
angle = 90;
pos = (697,454);
}
);
layerId = "927AED37-E9E6-4F96-A08E-421C3785EFC6";
shapes = (
{
closed = 1;
nodes = (
(276,544,l),
(21,536,l),
(21,436,l),
(86,411,l),
(76,421,l),
(76,112,l),
(88,127,l),
(21,100,l),
(21,0,l),
(331,0,l),
(331,100,l),
(264,127,l),
(276,112,l)
);
}
);
width = 338;
}
);
unicode = 305;
},
{
glyphname = idieresis;
kernLeft = n;
kernRight = l;
layers = (
{
anchors = (
{
name = bottom;
pos = (146,0);
},
{
name = ogonek;
pos = (246,0);
}
);
background = {
anchors = (
{
name = bottom;
pos = (146,0);
},
{
name = ogonek;
pos = (246,0);
}
);
shapes = (
{
closed = 1;
nodes = (
(236,663,o),
(248,674,o),
(248,692,cs),
(248,711,o),
(238,722,o),
(223,722,cs),
(209,722,o),
(198,711,o),
(198,692,cs),
(198,674,o),
(208,663,o),
(223,663,cs)
);
},
{
closed = 1;
nodes = (
(64,663,o),
(76,674,o),
(76,692,cs),
(76,711,o),
(66,722,o),
(51,722,cs),
(37,722,o),
(26,711,o),
(26,692,cs),
(26,674,o),
(36,663,o),
(51,663,cs)
);
},
{
closed = 1;
nodes = (
(156,525,l),
(46,520,l),
(46,505,l),
(143,491,l),
(136,499,l),
(136,21,l),
(143,29,l),
(46,15,l),
(46,0,l),
(246,0,l),
(246,15,l),
(149,29,l),
(156,21,l)
);
}
);
};
guides = (
{
pos = (154,663);
}
);
layerId = "075BA79B-D813-4287-A9DD-CCAF2D535ED3";
shapes = (
{
closed = 1;
nodes = (
(236,663,o),
(248,674,o),
(248,692,cs),
(248,711,o),
(238,722,o),
(223,722,cs),
(209,722,o),
(198,711,o),
(198,692,cs),
(198,674,o),
(208,663,o),
(223,663,cs)
);
},
{
closed = 1;
nodes = (
(64,663,o),
(76,674,o),
(76,692,cs),
(76,711,o),
(66,722,o),
(51,722,cs),
(37,722,o),
(26,711,o),
(26,692,cs),
(26,674,o),
(36,663,o),
(51,663,cs)
);
},
{
closed = 1;
nodes = (
(156,525,l),
(46,520,l),
(46,505,l),
(143,491,l),
(136,499,l),
(136,21,l),
(143,29,l),
(46,15,l),
(46,0,l),
(246,0,l),
(246,15,l),
(149,29,l),
(156,21,l)
);
}
);
width = 278;
},
{
anchors = (
{
name = bottom;
pos = (176,0);
},
{
name = ogonek;
pos = (331,0);
}
);
background = {
anchors = (
{
name = bottom;
pos = (176,0);
},
{
name = ogonek;
pos = (331,0);
}
);
shapes = (
{
closed = 1;
nodes = (
(315,604,o),
(356,640,o),
(356,701,cs),
(356,761,o),
(321,798,o),
(268,798,cs),
(221,798,o),
(180,761,o),
(181,701,cs),
(182,640,o),
(214,604,o),
(268,604,cs)
);
},
{
closed = 1;
nodes = (
(98,604,o),
(140,640,o),
(140,701,cs),
(140,761,o),
(105,798,o),
(51,798,cs),
(4,798,o),
(-36,761,o),
(-35,701,cs),
(-34,640,o),
(-2,604,o),
(51,604,cs)
);
},
{
closed = 1;
nodes = (
(276,544,l),
(21,536,l),
(21,436,l),
(86,411,l),
(76,421,l),
(76,112,l),
(88,127,l),
(21,100,l),
(21,0,l),
(331,0,l),
(331,100,l),
(264,127,l),
(276,112,l)
);
}
);
};
guides = (
{
pos = (154,800);
},
{
pos = (154,604);
}
);
layerId = "927AED37-E9E6-4F96-A08E-421C3785EFC6";
shapes = (
{
closed = 1;
nodes = (
(315,604,o),
(356,640,o),
(356,701,cs),
(356,761,o),
(321,798,o),
(268,798,cs),
(221,798,o),
(180,761,o),
(181,701,cs),
(182,640,o),
(214,604,o),
(268,604,cs)
);
},
{
closed = 1;
nodes = (
(98,604,o),
(140,640,o),
(140,701,cs),
(140,761,o),
(105,798,o),
(51,798,cs),
(4,798,o),
(-36,761,o),
(-35,701,cs),
(-34,640,o),
(-2,604,o),
(51,604,cs)
);
},
{
closed = 1;
nodes = (
(276,544,l),
(21,536,l),
(21,436,l),
(86,411,l),
(76,421,l),
(76,112,l),
(88,127,l),
(21,100,l),
(21,0,l),
(331,0,l),
(331,100,l),
(264,127,l),
(276,112,l)
);
}
);
width = 338;
}
);
unicode = 239;
},
{
glyphname = idieresisacute;
kernLeft = n;
kernRight = l;
layers = (
{
anchors = (
{
name = bottom;
pos = (146,0);
},
{
name = ogonek;
pos = (246,0);
}
);
background = {
anchors = (
{
name = bottom;
pos = (146,0);
},
{
name = ogonek;
pos = (246,0);
}
);
shapes = (
{
closed = 1;
nodes = (
(246,0,l),
(246,15,l),
(149,29,l),
(156,21,l),
(156,525,l),
(46,520,l),
(46,505,l),
(143,491,l),
(136,499,l),
(136,21,l),
(143,29,l),
(46,15,l),
(46,0,l)
);
},
{
closed = 1;
nodes = (
(71,629,o),
(83,639,o),
(83,658,cs),
(83,676,o),
(73,688,o),
(58,688,cs),
(44,688,o),
(33,677,o),
(33,658,cs),
(33,640,o),
(43,629,o),
(57,629,cs)
);
},
{
closed = 1;
nodes = (
(248,629,o),
(260,639,o),
(260,658,cs),
(260,676,o),
(250,688,o),
(235,688,cs),
(221,688,o),
(210,677,o),
(210,658,cs),
(210,640,o),
(220,629,o),
(234,629,cs)
);
},
{
closed = 1;
nodes = (
(253,784,l),
(230,804,l),
(129,694,l),
(142,681,l)
);
}
);
};
layerId = "075BA79B-D813-4287-A9DD-CCAF2D535ED3";
shapes = (
{
closed = 1;
nodes = (
(246,0,l),
(246,15,l),
(149,29,l),
(156,21,l),
(156,525,l),
(46,520,l),
(46,505,l),
(143,491,l),
(136,499,l),
(136,21,l),
(143,29,l),
(46,15,l),
(46,0,l)
);
},
{
closed = 1;
nodes = (
(71,629,o),
(83,639,o),
(83,658,cs),
(83,676,o),
(73,688,o),
(58,688,cs),
(44,688,o),
(33,677,o),
(33,658,cs),
(33,640,o),
(43,629,o),
(57,629,cs)
);
},
{
closed = 1;
nodes = (
(248,629,o),
(260,639,o),
(260,658,cs),
(260,676,o),
(250,688,o),
(235,688,cs),
(221,688,o),
(210,677,o),
(210,658,cs),
(210,640,o),
(220,629,o),
(234,629,cs)
);
},
{
closed = 1;
nodes = (
(253,784,l),
(230,804,l),
(129,694,l),
(142,681,l)
);
}
);
width = 278;
},
{
anchors = (
{
name = bottom;
pos = (176,0);
},
{
name = ogonek;
pos = (331,0);
}
);
background = {
anchors = (
{
name = bottom;
pos = (176,0);
},
{
name = ogonek;
pos = (331,0);
}
);
shapes = (
{
closed = 1;
nodes = (
(331,0,l),
(331,100,l),
(264,127,l),
(276,112,l),
(276,544,l),
(21,536,l),
(21,436,l),
(86,411,l),
(76,421,l),
(76,112,l),
(88,127,l),
(21,100,l),
(21,0,l)
);
},
{
closed = 1;
nodes = (
(90,577,o),
(131,613,o),
(131,675,cs),
(131,733,o),
(95,771,o),
(46,771,cs),
(-1,771,o),
(-40,737,o),
(-40,674,cs),
(-40,616,o),
(-7,577,o),
(43,577,cs)
);
},
{
closed = 1;
nodes = (
(323,577,o),
(363,613,o),
(363,675,cs),
(363,734,o),
(327,771,o),
(278,771,cs),
(232,771,o),
(192,737,o),
(192,674,cs),
(192,616,o),
(225,577,o),
(275,577,cs)
);
},
{
closed = 1;
nodes = (
(341,863,l),
(242,964,l),
(80,792,l),
(157,715,l)
);
}
);
};
layerId = "927AED37-E9E6-4F96-A08E-421C3785EFC6";
shapes = (
{
closed = 1;
nodes = (
(331,0,l),
(331,100,l),
(264,127,l),
(276,112,l),
(276,544,l),
(21,536,l),
(21,436,l),
(86,411,l),
(76,421,l),
(76,112,l),
(88,127,l),
(21,100,l),
(21,0,l)
);
},
{
closed = 1;
nodes = (
(90,577,o),
(131,613,o),
(131,675,cs),
(131,733,o),
(95,771,o),
(46,771,cs),
(-1,771,o),
(-40,737,o),
(-40,674,cs),
(-40,616,o),
(-7,577,o),
(43,577,cs)
);
},
{
closed = 1;
nodes = (
(323,577,o),
(363,613,o),
(363,675,cs),
(363,734,o),
(327,771,o),
(278,771,cs),
(232,771,o),
(192,737,o),
(192,674,cs),
(192,616,o),
(225,577,o),
(275,577,cs)
);
},
{
closed = 1;
nodes = (
(341,863,l),
(242,964,l),
(80,792,l),
(157,715,l)
);
}
);
width = 338;
}
);
unicode = 7727;
},
{
glyphname = jdotless;
kernLeft = j;
kernRight = j;
layers = (
{
anchors = (
{
name = top;
pos = (125,522);
}
);
background = {
anchors = (
{
name = top;
pos = (125,522);
}
);
shapes = (
{
closed = 1;
nodes = (
(127,-236,o),
(142,-163,o),
(142,-68,cs),
(142,525,l),
(32,520,l),
(32,505,l),
(129,491,l),
(122,499,l),
(122,-77,ls),
(122,-179,o),
(92,-217,o),
(12,-217,cs),
(2,-217,o),
(-8,-216,o),
(-20,-215,c),
(-22,-234,l),
(-10,-235,o),
(2,-236,o),
(10,-236,cs)
);
}
);
};
layerId = "075BA79B-D813-4287-A9DD-CCAF2D535ED3";
shapes = (
{
closed = 1;
nodes = (
(127,-236,o),
(142,-163,o),
(142,-68,cs),
(142,525,l),
(32,520,l),
(32,505,l),
(129,491,l),
(122,499,l),
(122,-77,ls),
(122,-179,o),
(92,-217,o),
(12,-217,cs),
(2,-217,o),
(-8,-216,o),
(-20,-215,c),
(-22,-234,l),
(-10,-235,o),
(2,-236,o),
(10,-236,cs)
);
}
);
width = 251;
},
{
anchors = (
{
name = top;
pos = (156,540);
}
);
background = {
anchors = (
{
name = top;
pos = (156,540);
}
);
shapes = (
{
closed = 1;
nodes = (
(143,-245,o),
(263,-179,o),
(263,36,cs),
(263,544,l),
(8,536,l),
(8,436,l),
(80,408,l),
(63,429,l),
(63,-23,ls),
(63,-80,o),
(38,-100,o),
(-20,-100,cs),
(-32,-100,o),
(-47,-99,o),
(-63,-97,c),
(-78,-236,l),
(-48,-242,o),
(-23,-245,o),
(6,-245,cs)
);
}
);
};
guides = (
{
pos = (87,-96);
}
);
layerId = "927AED37-E9E6-4F96-A08E-421C3785EFC6";
shapes = (
{
closed = 1;
nodes = (
(143,-245,o),
(263,-179,o),
(263,36,cs),
(263,544,l),
(8,536,l),
(8,436,l),
(80,408,l),
(63,429,l),
(63,-23,ls),
(63,-80,o),
(38,-100,o),
(-20,-100,cs),
(-32,-100,o),
(-47,-99,o),
(-63,-97,c),
(-78,-236,l),
(-48,-242,o),
(-23,-245,o),
(6,-245,cs)
);
}
);
width = 311;
}
);
unicode = 567;
},
{
glyphname = k;
kernLeft = h;
kernRight = x;
layers = (
{
anchors = (
{
name = bottom;
pos = (300,0);
},
{
name = top;
pos = (273,522);
}
);
background = {
anchors = (
{
name = bottom;
pos = (300,0);
},
{
name = top;
pos = (273,522);
}
);
shapes = (
{
closed = 1;
nodes = (
(233,0,l),
(233,15,l),
(136,29,l),
(143,21,l),
(143,290,l),
(136,283,l),
(289,283,l),
(279,289,l),
(449,0,l),
(537,0,l),
(537,14,l),
(448,31,l),
(458,24,l),
(292,304,l),
(295,292,l),
(418,502,l),
(408,495,l),
(504,511,l),
(504,525,l),
(308,520,l),
(308,506,l),
(402,495,l),
(399,502,l),
(276,296,l),
(284,302,l),
(136,302,l),
(143,295,l),
(143,765,l),
(33,760,l),
(33,745,l),
(130,731,l),
(123,739,l),
(123,21,l),
(130,29,l),
(33,15,l),
(33,0,l)
);
}
);
};
layerId = "075BA79B-D813-4287-A9DD-CCAF2D535ED3";
shapes = (
{
closed = 1;
nodes = (
(233,0,l),
(233,15,l),
(136,29,l),
(143,21,l),
(143,290,l),
(136,283,l),
(289,283,l),
(279,289,l),
(449,0,l),
(537,0,l),
(537,14,l),
(448,31,l),
(458,24,l),
(292,304,l),
(295,292,l),
(418,502,l),
(408,495,l),
(504,511,l),
(504,525,l),
(308,520,l),
(308,506,l),
(402,495,l),
(399,502,l),
(276,296,l),
(284,302,l),
(136,302,l),
(143,295,l),
(143,765,l),
(33,760,l),
(33,745,l),
(130,731,l),
(123,739,l),
(123,21,l),
(130,29,l),
(33,15,l),
(33,0,l)
);
}
);
width = 541;
},
{
anchors = (
{
name = bottom;
pos = (318,0);
},
{
name = top;
pos = (308,540);
}
);
background = {
anchors = (
{
name = bottom;
pos = (318,0);
},
{
name = top;
pos = (308,540);
}
);
shapes = (
{
closed = 1;
nodes = (
(312,0,l),
(312,100,l),
(244,131,l),
(262,95,l),
(262,238,l),
(231,227,l),
(333,227,l),
(307,238,l),
(413,0,l),
(612,0,l),
(612,100,l),
(543,123,l),
(569,99,l),
(454,332,l),
(450,284,l),
(572,453,l),
(521,424,l),
(598,445,l),
(598,545,l),
(331,535,l),
(331,435,l),
(389,420,l),
(375,439,l),
(302,336,l),
(349,357,l),
(231,357,l),
(262,330,l),
(262,785,l),
(7,775,l),
(7,675,l),
(74,649,l),
(62,669,l),
(62,95,l),
(84,130,l),
(7,100,l),
(7,0,l)
);
}
);
};
layerId = "927AED37-E9E6-4F96-A08E-421C3785EFC6";
shapes = (
{
closed = 1;
nodes = (
(312,0,l),
(312,100,l),
(244,131,l),
(262,95,l),
(262,238,l),
(231,227,l),
(333,227,l),
(307,238,l),
(413,0,l),
(612,0,l),
(612,100,l),
(543,123,l),
(569,99,l),
(454,332,l),
(450,284,l),
(572,453,l),
(521,424,l),
(598,445,l),
(598,545,l),
(331,535,l),
(331,435,l),
(389,420,l),
(375,439,l),
(302,336,l),
(349,357,l),
(231,357,l),
(262,330,l),
(262,785,l),
(7,775,l),
(7,675,l),
(74,649,l),
(62,669,l),
(62,95,l),
(84,130,l),
(7,100,l),
(7,0,l)
);
}
);
width = 620;
}
);
unicode = 107;
},
{
glyphname = kgreenlandic;
kernLeft = n;
kernRight = x;
layers = (
{
background = {
shapes = (
{
closed = 1;
nodes = (
(260,0,l),
(260,15,l),
(149,29,l),
(156,21,l),
(156,286,l),
(149,278,l),
(302,278,l),
(293,285,l),
(462,0,l),
(555,0,l),
(555,14,l),
(461,31,l),
(471,24,l),
(306,300,l),
(307,288,l),
(431,502,l),
(421,495,l),
(517,511,l),
(517,525,l),
(318,520,l),
(318,506,l),
(415,495,l),
(412,502,l),
(288,292,l),
(297,297,l),
(149,297,l),
(156,291,l),
(156,525,l),
(46,520,l),
(46,505,l),
(143,491,l),
(136,499,l),
(136,21,l),
(143,29,l),
(46,15,l),
(46,0,l)
);
}
);
};
guides = (
{
pos = (293,303);
},
{
pos = (293,284);
}
);
layerId = "075BA79B-D813-4287-A9DD-CCAF2D535ED3";
shapes = (
{
closed = 1;
nodes = (
(260,0,l),
(260,15,l),
(149,29,l),
(156,21,l),
(156,286,l),
(149,278,l),
(302,278,l),
(293,285,l),
(462,0,l),
(555,0,l),
(555,14,l),
(461,31,l),
(471,24,l),
(306,300,l),
(307,288,l),
(431,502,l),
(421,495,l),
(517,511,l),
(517,525,l),
(318,520,l),
(318,506,l),
(415,495,l),
(412,502,l),
(288,292,l),
(297,297,l),
(149,297,l),
(156,291,l),
(156,525,l),
(46,520,l),
(46,505,l),
(143,491,l),
(136,499,l),
(136,21,l),
(143,29,l),
(46,15,l),
(46,0,l)
);
}
);
width = 559;
},
{
background = {
shapes = (
{
closed = 1;
nodes = (
(326,0,l),
(326,100,l),
(258,131,l),
(276,95,l),
(276,243,l),
(245,227,l),
(347,227,l),
(319,243,l),
(427,0,l),
(626,0,l),
(626,100,l),
(557,123,l),
(583,99,l),
(470,328,l),
(464,284,l),
(586,453,l),
(530,424,l),
(612,445,l),
(612,545,l),
(345,535,l),
(345,435,l),
(398,420,l),
(389,439,l),
(318,338,l),
(363,357,l),
(245,357,l),
(276,335,l),
(276,545,l),
(21,535,l),
(21,435,l),
(88,409,l),
(76,429,l),
(76,95,l),
(98,130,l),
(21,100,l),
(21,0,l)
);
}
);
};
guides = (
{
pos = (299,227);
},
{
pos = (299,357);
},
{
angle = 180;
pos = (405,357);
}
);
layerId = "927AED37-E9E6-4F96-A08E-421C3785EFC6";
shapes = (
{
closed = 1;
nodes = (
(326,0,l),
(326,100,l),
(258,131,l),
(276,95,l),
(276,243,l),
(245,227,l),
(347,227,l),
(319,243,l),
(427,0,l),
(626,0,l),
(626,100,l),
(557,123,l),
(583,99,l),
(470,328,l),
(464,284,l),
(586,453,l),
(530,424,l),
(612,445,l),
(612,545,l),
(345,535,l),
(345,435,l),
(398,420,l),
(389,439,l),
(318,338,l),
(363,357,l),
(245,357,l),
(276,335,l),
(276,545,l),
(21,535,l),
(21,435,l),
(88,409,l),
(76,429,l),
(76,95,l),
(98,130,l),
(21,100,l),
(21,0,l)
);
}
);
width = 634;
}
);
metricRight = k;
unicode = 312;
},
{
glyphname = l;
kernLeft = h;
kernRight = l;
layers = (
{
anchors = (
{
name = bottom;
pos = (133,0);
},
{
name = center;
pos = (300,385);
},
{
name = top;
pos = (120,740);
},
{
name = topright;
pos = (251,762);
}
);
background = {
anchors = (
{
name = bottom;
pos = (133,0);
},
{
name = center;
pos = (300,385);
},
{
name = top;
pos = (120,740);
},
{
name = topright;
pos = (251,762);
}
);
shapes = (
{
closed = 1;
nodes = (
(143,765,l),
(33,760,l),
(33,745,l),
(130,731,l),
(123,739,l),
(123,21,l),
(130,29,l),
(33,15,l),
(33,0,l),
(233,0,l),
(233,15,l),
(136,29,l),
(143,21,l)
);
}
);
};
guides = (
{
angle = 90;
pos = (309,692);
}
);
layerId = "075BA79B-D813-4287-A9DD-CCAF2D535ED3";
shapes = (
{
closed = 1;
nodes = (
(143,765,l),
(33,760,l),
(33,745,l),
(130,731,l),
(123,739,l),
(123,21,l),
(130,29,l),
(33,15,l),
(33,0,l),
(233,0,l),
(233,15,l),
(136,29,l),
(143,21,l)
);
}
);
width = 266;
},
{
anchors = (
{
name = bottom;
pos = (162,0);
},
{
name = center;
pos = (418,367);
},
{
name = top;
pos = (162,750);
},
{
name = topright;
pos = (302,780);
}
);
background = {
anchors = (
{
name = bottom;
pos = (162,0);
},
{
name = center;
pos = (418,367);
},
{
name = top;
pos = (162,750);
},
{
name = topright;
pos = (302,780);
}
);
shapes = (
{
closed = 1;
nodes = (
(262,785,l),
(7,775,l),
(7,675,l),
(72,650,l),
(62,661,l),
(62,112,l),
(74,127,l),
(7,100,l),
(7,0,l),
(317,0,l),
(317,100,l),
(250,127,l),
(262,112,l)
);
}
);
};
layerId = "927AED37-E9E6-4F96-A08E-421C3785EFC6";
shapes = (
{
closed = 1;
nodes = (
(262,785,l),
(7,775,l),
(7,675,l),
(72,650,l),
(62,661,l),
(62,112,l),
(74,127,l),
(7,100,l),
(7,0,l),
(317,0,l),
(317,100,l),
(250,127,l),
(262,112,l)
);
}
);
width = 324;
}
);
unicode = 108;
},
{
glyphname = lslash;
kernLeft = lslash;
kernRight = lslash;
layers = (
{
anchors = (
{
name = bottom;
pos = (149,0);
},
{
name = top;
pos = (134,743);
},
{
name = topright;
pos = (267,762);
}
);
background = {
anchors = (
{
name = bottom;
pos = (149,0);
},
{
name = top;
pos = (134,743);
},
{
name = topright;
pos = (267,762);
}
);
shapes = (
{
closed = 1;
nodes = (
(260,438,l),
(253,455,l),
(47,351,l),
(54,334,l)
);
},
{
closed = 1;
nodes = (
(159,765,l),
(49,760,l),
(49,745,l),
(146,731,l),
(139,739,l),
(139,21,l),
(146,29,l),
(49,15,l),
(49,0,l),
(249,0,l),
(249,15,l),
(152,29,l),
(159,21,l)
);
}
);
};
guides = (
{
angle = 90;
pos = (154,481);
}
);
layerId = "075BA79B-D813-4287-A9DD-CCAF2D535ED3";
shapes = (
{
closed = 1;
nodes = (
(260,438,l),
(253,455,l),
(47,351,l),
(54,334,l)
);
},
{
closed = 1;
nodes = (
(159,765,l),
(49,760,l),
(49,745,l),
(146,731,l),
(139,739,l),
(139,21,l),
(146,29,l),
(49,15,l),
(49,0,l),
(249,0,l),
(249,15,l),
(152,29,l),
(159,21,l)
);
}
);
width = 301;
},
{
anchors = (
{
name = bottom;
pos = (202,0);
},
{
name = top;
pos = (202,750);
},
{
name = topright;
pos = (342,780);
}
);
background = {
anchors = (
{
name = bottom;
pos = (202,0);
},
{
name = top;
pos = (202,750);
},
{
name = topright;
pos = (342,780);
}
);
shapes = (
{
closed = 1;
nodes = (
(395,426,l),
(358,536,l),
(8,376,l),
(45,266,l)
);
},
{
closed = 1;
nodes = (
(302,785,l),
(47,775,l),
(47,675,l),
(112,650,l),
(102,661,l),
(102,112,l),
(114,127,l),
(47,100,l),
(47,0,l),
(357,0,l),
(357,100,l),
(290,127,l),
(302,112,l)
);
}
);
};
guides = (
{
angle = 90;
pos = (202,480);
}
);
layerId = "927AED37-E9E6-4F96-A08E-421C3785EFC6";
shapes = (
{
closed = 1;
nodes = (
(395,426,l),
(358,536,l),
(8,376,l),
(45,266,l)
);
},
{
closed = 1;
nodes = (
(302,785,l),
(47,775,l),
(47,675,l),
(112,650,l),
(102,661,l),
(102,112,l),
(114,127,l),
(47,100,l),
(47,0,l),
(357,0,l),
(357,100,l),
(290,127,l),
(302,112,l)
);
}
);
width = 403;
}
);
unicode = 322;
},
{
color = 9;
glyphname = m;
kernLeft = n;
kernRight = n;
layers = (
{
anchors = (
{
name = bottom;
pos = (489,0);
},
{
name = top;
pos = (489,522);
}
);
background = {
anchors = (
{
name = bottom;
pos = (489,0);
},
{
name = top;
pos = (489,522);
}
);
shapes = (
{
closed = 1;
nodes = (
(477,493,o),
(425,528,o),
(361,528,cs),
(296,528,o),
(219,497,o),
(152,427,c),
(156,424,l),
(151,525,l),
(46,520,l),
(46,505,l),
(143,491,l),
(136,499,l),
(136,21,l),
(143,29,l),
(46,15,l),
(46,0,l),
(246,0,l),
(246,15,l),
(149,29,l),
(156,21,l),
(156,414,l),
(152,403,l),
(221,476,o),
(298,509,o),
(360,509,cs),
(429,509,o),
(479,463,o),
(479,363,cs),
(479,21,l),
(486,29,l),
(389,15,l),
(389,0,l),
(589,0,l),
(589,15,l),
(492,29,l),
(499,21,l),
(499,368,ls),
(499,382,o),
(498,396,o),
(496,408,c),
(493,400,l),
(562,473,o),
(639,509,o),
(701,509,cs),
(770,509,o),
(820,463,o),
(820,363,cs),
(820,21,l),
(827,29,l),
(730,15,l),
(730,0,l),
(930,0,l),
(930,15,l),
(833,29,l),
(840,21,l),
(840,368,ls),
(840,477,o),
(780,528,o),
(702,528,cs),
(637,528,o),
(558,493,o),
(491,422,c),
(494,420,l)
);
}
);
};
layerId = "075BA79B-D813-4287-A9DD-CCAF2D535ED3";
shapes = (
{
closed = 1;
nodes = (
(477,493,o),
(425,528,o),
(361,528,cs),
(296,528,o),
(219,497,o),
(152,427,c),
(156,424,l),
(151,525,l),
(46,520,l),
(46,505,l),
(143,491,l),
(136,499,l),
(136,21,l),
(143,29,l),
(46,15,l),
(46,0,l),
(246,0,l),
(246,15,l),
(149,29,l),
(156,21,l),
(156,414,l),
(152,403,l),
(221,476,o),
(298,509,o),
(360,509,cs),
(429,509,o),
(479,463,o),
(479,363,cs),
(479,21,l),
(486,29,l),
(389,15,l),
(389,0,l),
(589,0,l),
(589,15,l),
(492,29,l),
(499,21,l),
(499,368,ls),
(499,382,o),
(498,396,o),
(496,408,c),
(493,400,l),
(562,473,o),
(639,509,o),
(701,509,cs),
(770,509,o),
(820,463,o),
(820,363,cs),
(820,21,l),
(827,29,l),
(730,15,l),
(730,0,l),
(930,0,l),
(930,15,l),
(833,29,l),
(840,21,l),
(840,368,ls),
(840,477,o),
(780,528,o),
(702,528,cs),
(637,528,o),
(558,493,o),
(491,422,c),
(494,420,l)
);
}
);
width = 954;
},
{
anchors = (
{
name = bottom;
pos = (486,0);
},
{
name = top;
pos = (486,540);
}
);
background = {
anchors = (
{
name = bottom;
pos = (486,0);
},
{
name = top;
pos = (486,540);
}
);
shapes = (
{
closed = 1;
nodes = (
(541,529,o),
(490,555,o),
(432,555,cs),
(367,555,o),
(292,521,o),
(231,461,c),
(256,453,l),
(232,546,l),
(21,536,l),
(21,436,l),
(98,406,l),
(76,436,l),
(76,103,l),
(98,130,l),
(21,100,l),
(21,0,l),
(316,0,l),
(316,100,l),
(260,126,l),
(276,99,l),
(276,394,l),
(264,369,l),
(291,392,o),
(318,405,o),
(340,405,cs),
(367,405,o),
(386,384,o),
(386,337,cs),
(386,99,l),
(407,127,l),
(346,100,l),
(346,0,l),
(626,0,l),
(626,100,l),
(570,129,l),
(586,103,l),
(586,389,ls),
(586,392,o),
(586,397,o),
(585,408,c),
(571,366,l),
(600,391,o),
(628,405,o),
(650,405,cs),
(678,405,o),
(696,384,o),
(696,337,cs),
(696,99,l),
(717,127,l),
(656,100,l),
(656,0,l),
(951,0,l),
(951,100,l),
(880,129,l),
(896,103,l),
(896,381,ls),
(896,498,o),
(828,555,o),
(742,555,cs),
(678,555,o),
(604,524,o),
(541,461,c),
(569,470,l)
);
}
);
};
layerId = "927AED37-E9E6-4F96-A08E-421C3785EFC6";
shapes = (
{
closed = 1;
nodes = (
(541,529,o),
(490,555,o),
(432,555,cs),
(367,555,o),
(292,521,o),
(231,461,c),
(256,453,l),
(232,546,l),
(21,536,l),
(21,436,l),
(98,406,l),
(76,436,l),
(76,103,l),
(98,130,l),
(21,100,l),
(21,0,l),
(316,0,l),
(316,100,l),
(260,126,l),
(276,99,l),
(276,394,l),
(264,369,l),
(291,392,o),
(318,405,o),
(340,405,cs),
(367,405,o),
(386,384,o),
(386,337,cs),
(386,99,l),
(407,127,l),
(346,100,l),
(346,0,l),
(626,0,l),
(626,100,l),
(570,129,l),
(586,103,l),
(586,389,ls),
(586,392,o),
(586,397,o),
(585,408,c),
(571,366,l),
(600,391,o),
(628,405,o),
(650,405,cs),
(678,405,o),
(696,384,o),
(696,337,cs),
(696,99,l),
(717,127,l),
(656,100,l),
(656,0,l),
(951,0,l),
(951,100,l),
(880,129,l),
(896,103,l),
(896,381,ls),
(896,498,o),
(828,555,o),
(742,555,cs),
(678,555,o),
(604,524,o),
(541,461,c),
(569,470,l)
);
}
);
width = 954;
}
);
metricLeft = n;
unicode = 109;
},
{
color = 9;
glyphname = n;
kernLeft = n;
kernRight = n;
layers = (
{
anchors = (
{
name = bottom;
pos = (322,0);
},
{
name = top;
pos = (322,522);
},
{
name = topleft;
pos = (46,522);
}
);
background = {
anchors = (
{
name = bottom;
pos = (322,0);
},
{
name = top;
pos = (322,522);
},
{
name = topleft;
pos = (46,522);
}
);
shapes = (
{
closed = 1;
nodes = (
(246,0,l),
(246,15,l),
(149,29,l),
(156,21,l),
(156,414,l),
(152,403,l),
(221,476,o),
(298,509,o),
(360,509,cs),
(439,509,o),
(489,463,o),
(489,363,cs),
(489,21,l),
(496,29,l),
(399,15,l),
(399,0,l),
(599,0,l),
(599,15,l),
(502,29,l),
(509,21,l),
(509,368,ls),
(511,477,o),
(449,528,o),
(361,528,cs),
(296,528,o),
(219,497,o),
(152,427,c),
(156,424,l),
(151,525,l),
(46,520,l),
(46,505,l),
(143,491,l),
(136,499,l),
(136,21,l),
(143,29,l),
(46,15,l),
(46,0,l)
);
}
);
};
layerId = "075BA79B-D813-4287-A9DD-CCAF2D535ED3";
shapes = (
{
closed = 1;
nodes = (
(246,0,l),
(246,15,l),
(149,29,l),
(156,21,l),
(156,414,l),
(152,403,l),
(221,476,o),
(298,509,o),
(360,509,cs),
(439,509,o),
(489,463,o),
(489,363,cs),
(489,21,l),
(496,29,l),
(399,15,l),
(399,0,l),
(599,0,l),
(599,15,l),
(502,29,l),
(509,21,l),
(509,368,ls),
(511,477,o),
(449,528,o),
(361,528,cs),
(296,528,o),
(219,497,o),
(152,427,c),
(156,424,l),
(151,525,l),
(46,520,l),
(46,505,l),
(143,491,l),
(136,499,l),
(136,21,l),
(143,29,l),
(46,15,l),
(46,0,l)
);
}
);
width = 623;
},
{
anchors = (
{
name = bottom;
pos = (335,0);
},
{
name = top;
pos = (336,540);
},
{
name = topleft;
pos = (21,540);
}
);
background = {
anchors = (
{
name = bottom;
pos = (335,0);
},
{
name = top;
pos = (336,540);
},
{
name = topleft;
pos = (21,540);
}
);
shapes = (
{
closed = 1;
nodes = (
(321,0,l),
(321,100,l),
(260,126,l),
(276,99,l),
(276,395,l),
(264,369,l),
(292,392,o),
(320,405,o),
(344,405,cs),
(374,405,o),
(396,384,o),
(396,336,cs),
(396,99,l),
(417,127,l),
(351,100,l),
(351,0,l),
(651,0,l),
(651,100,l),
(580,129,l),
(596,103,l),
(596,378,ls),
(596,496,o),
(525,555,o),
(435,555,cs),
(370,555,o),
(295,524,o),
(231,461,c),
(256,453,l),
(232,546,l),
(21,536,l),
(21,436,l),
(98,406,l),
(76,436,l),
(76,103,l),
(98,130,l),
(21,100,l),
(21,0,l)
);
}
);
};
layerId = "927AED37-E9E6-4F96-A08E-421C3785EFC6";
shapes = (
{
closed = 1;
nodes = (
(321,0,l),
(321,100,l),
(260,126,l),
(276,99,l),
(276,395,l),
(264,369,l),
(292,392,o),
(320,405,o),
(344,405,cs),
(374,405,o),
(396,384,o),
(396,336,cs),
(396,99,l),
(417,127,l),
(351,100,l),
(351,0,l),
(651,0,l),
(651,100,l),
(580,129,l),
(596,103,l),
(596,378,ls),
(596,496,o),
(525,555,o),
(435,555,cs),
(370,555,o),
(295,524,o),
(231,461,c),
(256,453,l),
(232,546,l),
(21,536,l),
(21,436,l),
(98,406,l),
(76,436,l),
(76,103,l),
(98,130,l),
(21,100,l),
(21,0,l)
);
}
);
width = 654;
}
);
unicode = 110;
},
{
glyphname = eng;
kernLeft = n;
kernRight = j;
layers = (
{
background = {
shapes = (
{
closed = 1;
nodes = (
(494,-236,o),
(509,-163,o),
(509,-68,cs),
(509,368,ls),
(509,477,o),
(449,528,o),
(361,528,cs),
(296,528,o),
(219,497,o),
(152,427,c),
(156,424,l),
(151,525,l),
(46,520,l),
(46,505,l),
(143,491,l),
(136,499,l),
(136,21,l),
(143,29,l),
(46,15,l),
(46,0,l),
(246,0,l),
(246,15,l),
(149,29,l),
(156,21,l),
(156,414,l),
(152,403,l),
(221,476,o),
(298,509,o),
(360,509,cs),
(439,509,o),
(489,463,o),
(489,363,cs),
(489,-77,ls),
(489,-179,o),
(457,-217,o),
(376,-217,cs),
(366,-217,o),
(355,-216,o),
(343,-215,c),
(341,-234,l),
(353,-235,o),
(364,-236,o),
(374,-236,cs)
);
}
);
};
layerId = "075BA79B-D813-4287-A9DD-CCAF2D535ED3";
shapes = (
{
closed = 1;
nodes = (
(494,-236,o),
(509,-163,o),
(509,-68,cs),
(509,368,ls),
(509,477,o),
(449,528,o),
(361,528,cs),
(296,528,o),
(219,497,o),
(152,427,c),
(156,424,l),
(151,525,l),
(46,520,l),
(46,505,l),
(143,491,l),
(136,499,l),
(136,21,l),
(143,29,l),
(46,15,l),
(46,0,l),
(246,0,l),
(246,15,l),
(149,29,l),
(156,21,l),
(156,414,l),
(152,403,l),
(221,476,o),
(298,509,o),
(360,509,cs),
(439,509,o),
(489,463,o),
(489,363,cs),
(489,-77,ls),
(489,-179,o),
(457,-217,o),
(376,-217,cs),
(366,-217,o),
(355,-216,o),
(343,-215,c),
(341,-234,l),
(353,-235,o),
(364,-236,o),
(374,-236,cs)
);
}
);
width = 609;
},
{
background = {
shapes = (
{
closed = 1;
nodes = (
(476,-245,o),
(596,-179,o),
(596,36,c),
(596,378,ls),
(596,496,o),
(525,555,o),
(435,555,cs),
(370,555,o),
(295,524,o),
(231,461,c),
(256,453,l),
(232,546,l),
(21,536,l),
(21,436,l),
(98,406,l),
(76,436,l),
(76,103,l),
(98,130,l),
(21,100,l),
(21,0,l),
(321,0,l),
(321,100,l),
(260,126,l),
(276,99,l),
(276,395,l),
(264,369,l),
(292,392,o),
(320,405,o),
(344,405,cs),
(374,405,o),
(396,384,o),
(396,336,c),
(396,-22,ls),
(396,-79,o),
(374,-101,o),
(319,-101,cs),
(304,-101,o),
(287,-99,o),
(267,-96,c),
(252,-236,l),
(282,-241,o),
(312,-245,o),
(341,-245,cs)
);
}
);
};
guides = (
{
pos = (90,-96);
}
);
layerId = "927AED37-E9E6-4F96-A08E-421C3785EFC6";
shapes = (
{
closed = 1;
nodes = (
(476,-245,o),
(596,-179,o),
(596,36,c),
(596,378,ls),
(596,496,o),
(525,555,o),
(435,555,cs),
(370,555,o),
(295,524,o),
(231,461,c),
(256,453,l),
(232,546,l),
(21,536,l),
(21,436,l),
(98,406,l),
(76,436,l),
(76,103,l),
(98,130,l),
(21,100,l),
(21,0,l),
(321,0,l),
(321,100,l),
(260,126,l),
(276,99,l),
(276,395,l),
(264,369,l),
(292,392,o),
(320,405,o),
(344,405,cs),
(374,405,o),
(396,384,o),
(396,336,c),
(396,-22,ls),
(396,-79,o),
(374,-101,o),
(319,-101,cs),
(304,-101,o),
(287,-99,o),
(267,-96,c),
(252,-236,l),
(282,-241,o),
(312,-245,o),
(341,-245,cs)
);
}
);
width = 643;
}
);
metricLeft = n;
metricRight = j;
unicode = 331;
},
{
glyphname = o;
kernLeft = o;
kernRight = o;
layers = (
{
anchors = (
{
name = bottom;
pos = (287,0);
},
{
name = center;
pos = (287,261);
},
{
name = ogonek;
pos = (332,0);
},
{
name = top;
pos = (287,522);
},
{
name = topright;
pos = (445,522);
}
);
background = {
anchors = (
{
name = bottom;
pos = (287,0);
},
{
name = center;
pos = (287,261);
},
{
name = ogonek;
pos = (332,0);
},
{
name = top;
pos = (287,522);
},
{
name = topright;
pos = (445,522);
}
);
shapes = (
{
closed = 1;
nodes = (
(151,528,o),
(64,418,o),
(64,249,cs),
(64,84,o),
(146,-6,o),
(277,-6,cs),
(424,-6,o),
(511,106,o),
(511,270,cs),
(511,432,o),
(426,528,o),
(293,528,cs)
);
},
{
closed = 1;
nodes = (
(414,509,o),
(490,418,o),
(490,267,cs),
(490,116,o),
(413,13,o),
(279,13,cs),
(158,13,o),
(85,98,o),
(85,251,cs),
(85,407,o),
(161,509,o),
(291,509,cs)
);
}
);
};
guides = (
{
angle = 90;
pos = (1097,522);
}
);
layerId = "075BA79B-D813-4287-A9DD-CCAF2D535ED3";
shapes = (
{
closed = 1;
nodes = (
(151,528,o),
(64,418,o),
(64,249,cs),
(64,84,o),
(146,-6,o),
(277,-6,cs),
(424,-6,o),
(511,106,o),
(511,270,cs),
(511,432,o),
(426,528,o),
(293,528,cs)
);
},
{
closed = 1;
nodes = (
(414,509,o),
(490,418,o),
(490,267,cs),
(490,116,o),
(413,13,o),
(279,13,cs),
(158,13,o),
(85,98,o),
(85,251,cs),
(85,407,o),
(161,509,o),
(291,509,cs)
);
}
);
width = 574;
},
{
anchors = (
{
name = bottom;
pos = (289,0);
},
{
name = center;
pos = (289,270);
},
{
name = ogonek;
pos = (383,0);
},
{
name = top;
pos = (289,540);
},
{
name = topright;
pos = (498,540);
}
);
background = {
anchors = (
{
name = bottom;
pos = (289,0);
},
{
name = center;
pos = (289,270);
},
{
name = ogonek;
pos = (383,0);
},
{
name = top;
pos = (289,540);
},
{
name = topright;
pos = (498,540);
}
);
shapes = (
{
closed = 1;
nodes = (
(117,555,o),
(14,446,o),
(14,261,cs),
(14,85,o),
(107,-15,o),
(278,-15,cs),
(456,-15,o),
(564,93,o),
(564,280,cs),
(564,457,o),
(467,555,o),
(297,555,cs)
);
},
{
closed = 1;
nodes = (
(339,415,o),
(356,379,o),
(356,272,cs),
(356,165,o),
(339,125,o),
(288,125,cs),
(239,125,o),
(222,162,o),
(222,270,cs),
(222,378,o),
(239,415,o),
(288,415,cs)
);
}
);
};
layerId = "927AED37-E9E6-4F96-A08E-421C3785EFC6";
shapes = (
{
closed = 1;
nodes = (
(117,555,o),
(14,446,o),
(14,261,cs),
(14,85,o),
(107,-15,o),
(278,-15,cs),
(456,-15,o),
(564,93,o),
(564,280,cs),
(564,457,o),
(467,555,o),
(297,555,cs)
);
},
{
closed = 1;
nodes = (
(339,415,o),
(356,379,o),
(356,272,cs),
(356,165,o),
(339,125,o),
(288,125,cs),
(239,125,o),
(222,162,o),
(222,270,cs),
(222,378,o),
(239,415,o),
(288,415,cs)
);
}
);
width = 578;
}
);
unicode = 111;
},
{
glyphname = ohorn;
kernLeft = o;
kernRight = ohorn;
layers = (
{
anchors = (
{
name = bottom;
pos = (287,0);
},
{
name = top;
pos = (295,522);
}
);
background = {
anchors = (
{
name = bottom;
pos = (287,0);
},
{
name = top;
pos = (295,522);
}
);
shapes = (
{
closed = 1;
nodes = (
(424,-6,o),
(511,106,o),
(511,270,cs),
(511,432,o),
(426,528,o),
(293,528,cs),
(151,528,o),
(64,418,o),
(64,249,cs),
(64,84,o),
(146,-6,o),
(277,-6,cs)
);
},
{
closed = 1;
nodes = (
(158,13,o),
(85,98,o),
(85,251,cs),
(85,407,o),
(161,509,o),
(291,509,cs),
(414,509,o),
(490,418,o),
(490,267,cs),
(490,116,o),
(413,13,o),
(279,13,cs)
);
},
{
closed = 1;
nodes = (
(481,497,o),
(524,526,o),
(524,585,cs),
(524,605,o),
(520,628,o),
(510,656,c),
(490,649,l),
(498,625,o),
(502,604,o),
(502,587,cs),
(502,533,o),
(459,513,o),
(365,512,c),
(395,494,l)
);
}
);
};
guides = (
{
pos = (333,656);
}
);
layerId = "075BA79B-D813-4287-A9DD-CCAF2D535ED3";
shapes = (
{
closed = 1;
nodes = (
(424,-6,o),
(511,106,o),
(511,270,cs),
(511,432,o),
(426,528,o),
(293,528,cs),
(151,528,o),
(64,418,o),
(64,249,cs),
(64,84,o),
(146,-6,o),
(277,-6,cs)
);
},
{
closed = 1;
nodes = (
(158,13,o),
(85,98,o),
(85,251,cs),
(85,407,o),
(161,509,o),
(291,509,cs),
(414,509,o),
(490,418,o),
(490,267,cs),
(490,116,o),
(413,13,o),
(279,13,cs)
);
},
{
closed = 1;
nodes = (
(481,497,o),
(524,526,o),
(524,585,cs),
(524,605,o),
(520,628,o),
(510,656,c),
(490,649,l),
(498,625,o),
(502,604,o),
(502,587,cs),
(502,533,o),
(459,513,o),
(365,512,c),
(395,494,l)
);
}
);
width = 574;
},
{
anchors = (
{
name = bottom;
pos = (289,0);
},
{
name = top;
pos = (256,540);
}
);
background = {
anchors = (
{
name = bottom;
pos = (289,0);
},
{
name = top;
pos = (256,540);
}
);
shapes = (
{
closed = 1;
nodes = (
(459,-15,o),
(564,94,o),
(564,283,cs),
(564,456,o),
(467,555,o),
(298,555,cs),
(117,555,o),
(14,447,o),
(14,259,cs),
(14,85,o),
(109,-15,o),
(275,-15,cs)
);
},
{
closed = 1;
nodes = (
(239,125,o),
(222,162,o),
(222,270,cs),
(222,378,o),
(239,415,o),
(288,415,cs),
(339,415,o),
(356,379,o),
(356,276,cs),
(356,164,o),
(339,125,o),
(288,125,cs)
);
},
{
closed = 1;
nodes = (
(515,450,o),
(594,497,o),
(594,586,cs),
(594,619,o),
(583,657,o),
(561,700,c),
(419,670,l),
(430,640,o),
(437,614,o),
(437,594,cs),
(437,563,o),
(420,545,o),
(379,544,c),
(386,451,l)
);
}
);
};
layerId = "927AED37-E9E6-4F96-A08E-421C3785EFC6";
shapes = (
{
closed = 1;
nodes = (
(459,-15,o),
(564,94,o),
(564,283,cs),
(564,456,o),
(467,555,o),
(298,555,cs),
(117,555,o),
(14,447,o),
(14,259,cs),
(14,85,o),
(109,-15,o),
(275,-15,cs)
);
},
{
closed = 1;
nodes = (
(239,125,o),
(222,162,o),
(222,270,cs),
(222,378,o),
(239,415,o),
(288,415,cs),
(339,415,o),
(356,379,o),
(356,276,cs),
(356,164,o),
(339,125,o),
(288,125,cs)
);
},
{
closed = 1;
nodes = (
(515,450,o),
(594,497,o),
(594,586,cs),
(594,619,o),
(583,657,o),
(561,700,c),
(419,670,l),
(430,640,o),
(437,614,o),
(437,594,cs),
(437,563,o),
(420,545,o),
(379,544,c),
(386,451,l)
);
}
);
width = 584;
}
);
metricLeft = o;
unicode = 417;
},
{
glyphname = oslash;
kernLeft = o;
kernRight = o;
layers = (
{
anchors = (
{
name = bottom;
pos = (287,0);
},
{
name = ogonek;
pos = (332,0);
},
{
name = top;
pos = (287,522);
}
);
background = {
anchors = (
{
name = bottom;
pos = (287,0);
},
{
name = ogonek;
pos = (332,0);
},
{
name = top;
pos = (287,522);
}
);
guides = (
{
angle = 90;
pos = (303,445);
}
);
shapes = (
{
closed = 1;
nodes = (
(419,485,l),
(416,480,l),
(153,48,l),
(150,43,l),
(87,-60,l),
(104,-71,l),
(167,33,l),
(170,38,l),
(431,467,l),
(434,471,l),
(500,580,l),
(483,590,l)
);
},
{
closed = 1;
nodes = (
(151,528,o),
(64,418,o),
(64,249,cs),
(64,84,o),
(146,-6,o),
(277,-6,cs),
(424,-6,o),
(511,106,o),
(511,270,cs),
(511,432,o),
(426,528,o),
(293,528,cs)
);
},
{
closed = 1;
nodes = (
(414,509,o),
(490,418,o),
(490,267,cs),
(490,116,o),
(413,13,o),
(279,13,cs),
(158,13,o),
(85,98,o),
(85,251,cs),
(85,407,o),
(161,509,o),
(291,509,cs)
);
}
);
};
guides = (
{
angle = 90;
pos = (303,445);
}
);
layerId = "075BA79B-D813-4287-A9DD-CCAF2D535ED3";
shapes = (
{
closed = 1;
nodes = (
(419,485,l),
(416,480,l),
(153,48,l),
(150,43,l),
(87,-60,l),
(104,-71,l),
(167,33,l),
(170,38,l),
(431,467,l),
(434,471,l),
(500,580,l),
(483,590,l)
);
},
{
closed = 1;
nodes = (
(151,528,o),
(64,418,o),
(64,249,cs),
(64,84,o),
(146,-6,o),
(277,-6,cs),
(424,-6,o),
(511,106,o),
(511,270,cs),
(511,432,o),
(426,528,o),
(293,528,cs)
);
},
{
closed = 1;
nodes = (
(414,509,o),
(490,418,o),
(490,267,cs),
(490,116,o),
(413,13,o),
(279,13,cs),
(158,13,o),
(85,98,o),
(85,251,cs),
(85,407,o),
(161,509,o),
(291,509,cs)
);
}
);
width = 574;
},
{
anchors = (
{
name = bottom;
pos = (294,0);
},
{
name = ogonek;
pos = (388,0);
},
{
name = top;
pos = (294,540);
}
);
background = {
anchors = (
{
name = bottom;
pos = (294,0);
},
{
name = ogonek;
pos = (388,0);
},
{
name = top;
pos = (294,540);
}
);
guides = (
{
angle = 90;
pos = (291,613);
}
);
shapes = (
{
closed = 1;
nodes = (
(379,513,l),
(373,481,l),
(149,129,l),
(117,101,l),
(20,-53,l),
(117,-109,l),
(212,42,l),
(221,80,l),
(440,425,l),
(471,452,l),
(564,598,l),
(468,653,l)
);
},
{
closed = 1;
nodes = (
(122,555,o),
(19,446,o),
(19,261,cs),
(19,85,o),
(112,-15,o),
(283,-15,cs),
(461,-15,o),
(569,93,o),
(569,280,cs),
(569,457,o),
(472,555,o),
(302,555,cs)
);
},
{
closed = 1;
nodes = (
(344,415,o),
(361,379,o),
(361,272,cs),
(361,165,o),
(344,125,o),
(293,125,cs),
(244,125,o),
(227,162,o),
(227,270,cs),
(227,378,o),
(244,415,o),
(293,415,cs)
);
}
);
};
layerId = "927AED37-E9E6-4F96-A08E-421C3785EFC6";
shapes = (
{
closed = 1;
nodes = (
(379,513,l),
(373,481,l),
(149,129,l),
(117,101,l),
(20,-53,l),
(117,-109,l),
(212,42,l),
(221,80,l),
(440,425,l),
(471,452,l),
(564,598,l),
(468,653,l)
);
},
{
closed = 1;
nodes = (
(122,555,o),
(19,446,o),
(19,261,cs),
(19,85,o),
(112,-15,o),
(283,-15,cs),
(461,-15,o),
(569,93,o),
(569,280,cs),
(569,457,o),
(472,555,o),
(302,555,cs)
);
},
{
closed = 1;
nodes = (
(344,415,o),
(361,379,o),
(361,272,cs),
(361,165,o),
(344,125,o),
(293,125,cs),
(244,125,o),
(227,162,o),
(227,270,cs),
(227,378,o),
(244,415,o),
(293,415,cs)
);
}
);
width = 585;
}
);
unicode = 248;
},
{
color = 0;
glyphname = oe;
kernLeft = o;
kernRight = e;
layers = (
{
anchors = (
{
name = bottom;
pos = (486,0);
},
{
name = top;
pos = (486,522);
}
);
background = {
anchors = (
{
name = bottom;
pos = (486,0);
},
{
name = top;
pos = (486,522);
}
);
shapes = (
{
closed = 1;
nodes = (
(400,-6,o),
(473,69,o),
(500,179,c),
(498,179,l),
(521,61,o),
(600,-6,o),
(703,-6,cs),
(765,-6,o),
(835,18,o),
(906,67,c),
(895,83,l),
(829,36,o),
(764,14,o),
(707,14,cs),
(593,14,o),
(511,102,o),
(511,258,cs),
(511,266,o),
(511,274,o),
(511,282,c),
(504,277,l),
(904,277,l),
(905,293,o),
(905,296,o),
(905,304,cs),
(905,435,o),
(840,528,o),
(714,528,cs),
(605,528,o),
(528,458,o),
(501,346,c),
(503,346,l),
(482,463,o),
(406,527,o),
(297,527,cs),
(155,527,o),
(68,420,o),
(64,256,cs),
(60,95,o),
(139,-6,o),
(279,-6,cs)
);
},
{
closed = 1;
nodes = (
(153,13,o),
(85,106,o),
(85,251,cs),
(85,408,o),
(165,509,o),
(297,508,cs),
(425,507,o),
(490,409,o),
(490,268,cs),
(490,113,o),
(412,13,o),
(280,13,cs)
);
},
{
closed = 1;
nodes = (
(522,421,o),
(595,509,o),
(712,509,cs),
(843,509,o),
(884,399,o),
(883,289,c),
(890,296,l),
(506,296,l),
(513,289,l)
);
}
);
};
layerId = "075BA79B-D813-4287-A9DD-CCAF2D535ED3";
shapes = (
{
closed = 1;
nodes = (
(400,-6,o),
(473,69,o),
(500,179,c),
(498,179,l),
(521,61,o),
(600,-6,o),
(703,-6,cs),
(765,-6,o),
(835,18,o),
(906,67,c),
(895,83,l),
(829,36,o),
(764,14,o),
(707,14,cs),
(593,14,o),
(511,102,o),
(511,258,cs),
(511,266,o),
(511,274,o),
(511,282,c),
(504,277,l),
(904,277,l),
(905,293,o),
(905,296,o),
(905,304,cs),
(905,435,o),
(840,528,o),
(714,528,cs),
(605,528,o),
(528,458,o),
(501,346,c),
(503,346,l),
(482,463,o),
(406,527,o),
(297,527,cs),
(155,527,o),
(68,420,o),
(64,256,cs),
(60,95,o),
(139,-6,o),
(279,-6,cs)
);
},
{
closed = 1;
nodes = (
(153,13,o),
(85,106,o),
(85,251,cs),
(85,408,o),
(165,509,o),
(297,508,cs),
(425,507,o),
(490,409,o),
(490,268,cs),
(490,113,o),
(412,13,o),
(280,13,cs)
);
},
{
closed = 1;
nodes = (
(522,421,o),
(595,509,o),
(712,509,cs),
(843,509,o),
(884,399,o),
(883,289,c),
(890,296,l),
(506,296,l),
(513,289,l)
);
}
);
width = 972;
},
{
anchors = (
{
name = bottom;
pos = (451,0);
},
{
name = top;
pos = (451,540);
}
);
background = {
anchors = (
{
name = bottom;
pos = (451,0);
},
{
name = top;
pos = (451,540);
}
);
shapes = (
{
closed = 1;
nodes = (
(392,-15,o),
(455,21,o),
(494,90,c),
(434,93,l),
(468,22,o),
(532,-15,o),
(627,-15,cs),
(708,-15,o),
(795,12,o),
(876,68,c),
(811,172,l),
(759,145,o),
(711,131,o),
(675,131,cs),
(605,131,o),
(585,182,o),
(580,238,cs),
(579,250,o),
(579,255,o),
(579,262,c),
(537,222,l),
(876,222,l),
(882,253,o),
(885,283,o),
(885,312,cs),
(885,449,o),
(817,555,o),
(651,555,cs),
(555,555,o),
(488,520,o),
(449,456,c),
(505,453,l),
(473,519,o),
(406,555,o),
(298,555,cs),
(121,555,o),
(14,459,o),
(14,260,cs),
(14,66,o),
(115,-15,o),
(281,-15,cs)
);
},
{
closed = 1;
nodes = (
(247,125,o),
(222,150,o),
(222,269,cs),
(222,399,o),
(252,415,o),
(293,415,cs),
(342,415,o),
(367,393,o),
(367,276,cs),
(367,147,o),
(337,125,o),
(293,125,cs)
);
},
{
closed = 1;
nodes = (
(579,360,o),
(587,415,o),
(633,415,cs),
(671,415,o),
(682,378,o),
(679,300,c),
(711,325,l),
(537,325,l),
(577,306,l)
);
}
);
};
layerId = "927AED37-E9E6-4F96-A08E-421C3785EFC6";
shapes = (
{
closed = 1;
nodes = (
(392,-15,o),
(455,21,o),
(494,90,c),
(434,93,l),
(468,22,o),
(532,-15,o),
(627,-15,cs),
(708,-15,o),
(795,12,o),
(876,68,c),
(811,172,l),
(759,145,o),
(711,131,o),
(675,131,cs),
(605,131,o),
(585,182,o),
(580,238,cs),
(579,250,o),
(579,255,o),
(579,262,c),
(537,222,l),
(876,222,l),
(882,253,o),
(885,283,o),
(885,312,cs),
(885,449,o),
(817,555,o),
(651,555,cs),
(555,555,o),
(488,520,o),
(449,456,c),
(505,453,l),
(473,519,o),
(406,555,o),
(298,555,cs),
(121,555,o),
(14,459,o),
(14,260,cs),
(14,66,o),
(115,-15,o),
(281,-15,cs)
);
},
{
closed = 1;
nodes = (
(247,125,o),
(222,150,o),
(222,269,cs),
(222,399,o),
(252,415,o),
(293,415,cs),
(342,415,o),
(367,393,o),
(367,276,cs),
(367,147,o),
(337,125,o),
(293,125,cs)
);
},
{
closed = 1;
nodes = (
(579,360,o),
(587,415,o),
(633,415,cs),
(671,415,o),
(682,378,o),
(679,300,c),
(711,325,l),
(537,325,l),
(577,306,l)
);
}
);
width = 903;
},
{
anchors = (
{
name = bottom;
pos = (470,0);
},
{
name = top;
pos = (470,530);
}
);
associatedMasterId = "075BA79B-D813-4287-A9DD-CCAF2D535ED3";
attr = {
coordinates = (
100
);
};
background = {
anchors = (
{
name = bottom;
pos = (470,0);
},
{
name = top;
pos = (470,530);
}
);
shapes = (
{
closed = 1;
nodes = (
(396,-10,o),
(465,48,o),
(497,139,c),
(470,141,l),
(497,44,o),
(570,-10,o),
(669,-10,cs),
(740,-10,o),
(817,15,o),
(893,67,c),
(858,123,l),
(798,84,o),
(740,66,o),
(693,66,cs),
(598,66,o),
(544,138,o),
(542,249,cs),
(541,259,o),
(541,266,o),
(541,273,c),
(519,253,l),
(892,253,l),
(895,275,o),
(896,290,o),
(896,308,cs),
(896,441,o),
(830,540,o),
(686,540,cs),
(583,540,o),
(510,486,o),
(478,395,c),
(504,394,l),
(478,488,o),
(406,539,o),
(297,539,cs),
(140,539,o),
(44,437,o),
(42,258,cs),
(40,82,o),
(128,-10,o),
(280,-10,cs)
);
},
{
closed = 1;
nodes = (
(195,63,o),
(146,126,o),
(146,259,cs),
(146,404,o),
(204,467,o),
(295,467,cs),
(388,466,o),
(435,402,o),
(435,272,cs),
(435,128,o),
(379,63,o),
(286,63,cs)
);
},
{
closed = 1;
nodes = (
(547,394,o),
(591,467,o),
(677,467,cs),
(767,467,o),
(794,390,o),
(792,294,c),
(810,309,l),
(520,309,l),
(541,297,l)
);
}
);
};
layerId = "DD0E9BD3-5CFF-4CE4-B949-18983257925C";
name = "{100}";
shapes = (
{
closed = 1;
nodes = (
(402,-10,o),
(470,46,o),
(504,139,c),
(470,141,l),
(498,44,o),
(570,-10,o),
(671,-10,cs),
(740,-10,o),
(818,15,o),
(893,67,c),
(858,123,l),
(798,84,o),
(741,66,o),
(694,66,cs),
(599,66,o),
(542,141,o),
(542,249,cs),
(542,259,o),
(542,266,o),
(542,273,c),
(519,252,l),
(892,252,l),
(895,272,o),
(896,293,o),
(896,309,cs),
(896,449,o),
(824,540,o),
(687,540,cs),
(584,540,o),
(512,488,o),
(478,395,c),
(510,394,l),
(484,487,o),
(414,539,o),
(297,539,cs),
(139,539,o),
(42,434,o),
(42,253,cs),
(42,80,o),
(131,-10,o),
(279,-10,cs)
);
},
{
closed = 1;
nodes = (
(195,63,o),
(146,126,o),
(146,259,cs),
(146,404,o),
(204,467,o),
(296,467,cs),
(388,467,o),
(436,403,o),
(436,271,cs),
(436,128,o),
(379,63,o),
(286,63,cs)
);
},
{
closed = 1;
nodes = (
(548,392,o),
(589,467,o),
(677,467,cs),
(766,467,o),
(795,391,o),
(793,315,c),
(802,321,l),
(520,321,l),
(542,297,l)
);
}
);
width = 939;
}
);
metricLeft = o;
metricRight = e;
unicode = 339;
},
{
glyphname = p;
kernLeft = n;
kernRight = o;
layers = (
{
anchors = (
{
name = bottom;
pos = (291,0);
},
{
name = top;
pos = (291,522);
}
);
background = {
anchors = (
{
name = bottom;
pos = (291,0);
},
{
name = top;
pos = (291,522);
}
);
shapes = (
{
closed = 1;
nodes = (
(248,-230,l),
(248,-215,l),
(135,-201,l),
(143,-209,l),
(143,21,l),
(136,15,l),
(186,1,o),
(232,-7,o),
(274,-7,cs),
(424,-7,o),
(519,90,o),
(519,265,cs),
(519,433,o),
(431,528,o),
(322,528,cs),
(264,528,o),
(200,500,o),
(139,441,c),
(143,439,l),
(138,525,l),
(33,520,l),
(33,505,l),
(130,491,l),
(123,499,l),
(123,-209,l),
(130,-201,l),
(33,-215,l),
(33,-230,l)
);
},
{
closed = 1;
nodes = (
(234,12,o),
(188,20,o),
(138,37,c),
(143,28,l),
(143,430,l),
(139,417,l),
(199,480,o),
(263,509,o),
(320,509,cs),
(419,509,o),
(498,420,o),
(498,264,cs),
(498,104,o),
(415,12,o),
(275,12,cs)
);
}
);
};
layerId = "075BA79B-D813-4287-A9DD-CCAF2D535ED3";
shapes = (
{
closed = 1;
nodes = (
(248,-230,l),
(248,-215,l),
(135,-201,l),
(143,-209,l),
(143,21,l),
(136,15,l),
(186,1,o),
(232,-7,o),
(274,-7,cs),
(424,-7,o),
(519,90,o),
(519,265,cs),
(519,433,o),
(431,528,o),
(322,528,cs),
(264,528,o),
(200,500,o),
(139,441,c),
(143,439,l),
(138,525,l),
(33,520,l),
(33,505,l),
(130,491,l),
(123,499,l),
(123,-209,l),
(130,-201,l),
(33,-215,l),
(33,-230,l)
);
},
{
closed = 1;
nodes = (
(234,12,o),
(188,20,o),
(138,37,c),
(143,28,l),
(143,430,l),
(139,417,l),
(199,480,o),
(263,509,o),
(320,509,cs),
(419,509,o),
(498,420,o),
(498,264,cs),
(498,104,o),
(415,12,o),
(275,12,cs)
);
}
);
width = 583;
},
{
anchors = (
{
name = bottom;
pos = (308,0);
},
{
name = top;
pos = (308,540);
}
);
background = {
anchors = (
{
name = bottom;
pos = (308,0);
},
{
name = top;
pos = (308,540);
}
);
shapes = (
{
closed = 1;
nodes = (
(334,-230,l),
(334,-130,l),
(251,-99,l),
(269,-126,l),
(269,15,l),
(246,-6,l),
(276,-12,o),
(305,-15,o),
(333,-15,cs),
(494,-15,o),
(606,84,o),
(606,288,cs),
(606,461,o),
(526,555,o),
(409,555,cs),
(342,555,o),
(287,525,o),
(225,470,c),
(246,458,l),
(225,546,l),
(14,536,l),
(14,436,l),
(90,406,l),
(69,430,l),
(69,-126,l),
(93,-95,l),
(14,-130,l),
(14,-230,l)
);
},
{
closed = 1;
nodes = (
(288,125,o),
(267,128,o),
(246,133,c),
(269,97,l),
(269,419,l),
(246,370,l),
(278,396,o),
(304,410,o),
(328,410,cs),
(377,410,o),
(398,352,o),
(398,267,cs),
(398,181,o),
(377,125,o),
(305,125,cs)
);
}
);
};
layerId = "927AED37-E9E6-4F96-A08E-421C3785EFC6";
shapes = (
{
closed = 1;
nodes = (
(334,-230,l),
(334,-130,l),
(251,-99,l),
(269,-126,l),
(269,15,l),
(246,-6,l),
(276,-12,o),
(305,-15,o),
(333,-15,cs),
(494,-15,o),
(606,84,o),
(606,288,cs),
(606,461,o),
(526,555,o),
(409,555,cs),
(342,555,o),
(287,525,o),
(225,470,c),
(246,458,l),
(225,546,l),
(14,536,l),
(14,436,l),
(90,406,l),
(69,430,l),
(69,-126,l),
(93,-95,l),
(14,-130,l),
(14,-230,l)
);
},
{
closed = 1;
nodes = (
(288,125,o),
(267,128,o),
(246,133,c),
(269,97,l),
(269,419,l),
(246,370,l),
(278,396,o),
(304,410,o),
(328,410,cs),
(377,410,o),
(398,352,o),
(398,267,cs),
(398,181,o),
(377,125,o),
(305,125,cs)
);
}
);
width = 621;
}
);
unicode = 112;
},
